<?xml version="1.0" encoding="utf-8"?>
<!-- Generator: Adobe Illustrator 19.0.0, SVG Export Plug-In . SVG Version: 6.00 Build 0)  -->
<svg version="1.1" id="Calque_1" xmlns="http://www.w3.org/2000/svg" xmlns:xlink="http://www.w3.org/1999/xlink" x="0px" y="0px"
	 viewBox="0 0 16 16" style="enable-background:new 0 0 16 16;" xml:space="preserve">
<style type="text/css">
	.st0{fill:#FFFFFF;}
</style>
<path id="XMLID_1_" class="st0" d="M13.7,8.8c0-0.2,0.1-0.5,0.1-0.8c0-0.3,0-0.5-0.1-0.8L15.4,6c0.1-0.1,0.2-0.3,0.1-0.5l-1.5-2.7
	c-0.1-0.2-0.3-0.2-0.5-0.2l-1.9,0.8c-0.4-0.3-0.8-0.6-1.3-0.8l-0.3-2c0-0.2-0.2-0.3-0.4-0.3H6.5c-0.2,0-0.4,0.1-0.4,0.3l-0.3,2
	C5.3,2.9,4.9,3.1,4.5,3.4L2.6,2.6c-0.2-0.1-0.4,0-0.5,0.2L0.6,5.5C0.5,5.6,0.5,5.9,0.6,6l1.6,1.3c0,0.2-0.1,0.5-0.1,0.8
	c0,0.3,0,0.5,0.1,0.8L0.6,10c-0.1,0.1-0.2,0.3-0.1,0.5l1.5,2.7c0.1,0.2,0.3,0.2,0.5,0.2l1.9-0.8c0.4,0.3,0.8,0.6,1.3,0.8l0.3,2
	c0,0.2,0.2,0.3,0.4,0.3h3.1c0.2,0,0.4-0.1,0.4-0.3l0.3-2c0.5-0.2,0.9-0.5,1.3-0.8l1.9,0.8c0.2,0.1,0.4,0,0.5-0.2l1.5-2.7
	c0.1-0.2,0.1-0.4-0.1-0.5L13.7,8.8z M8,10.7c-1.5,0-2.7-1.2-2.7-2.7S6.5,5.3,8,5.3s2.7,1.2,2.7,2.7S9.5,10.7,8,10.7z"/>
</svg>
