<?xml version="1.0" encoding="utf-8"?>
<!-- Generator: Adobe Illustrator 19.0.0, SVG Export Plug-In . SVG Version: 6.00 Build 0)  -->
<svg version="1.1" id="Calque_1" xmlns="http://www.w3.org/2000/svg" xmlns:xlink="http://www.w3.org/1999/xlink" x="0px" y="0px"
	 viewBox="0 0 18 18" style="enable-background:new 0 0 18 18;" xml:space="preserve">
<style type="text/css">
	.st0{fill:#161616;}
</style>
<g>
	<path class="st0" d="M11.7,1.6l1-1c0.1-0.1,0.1-0.4,0-0.5c-0.1-0.1-0.4-0.1-0.5,0l-1.1,1.1c-0.6-0.3-1.3-0.5-2-0.5
		c-0.7,0-1.4,0.2-2,0.5L6,0.1C5.8,0,5.6,0,5.4,0.1c-0.1,0.1-0.1,0.4,0,0.5l1,1C5.3,2.4,4.6,3.8,4.6,5.3h9
		C13.6,3.8,12.9,2.4,11.7,1.6z M6.8,3.8V3h0.7v0.8H6.8z M11.3,3.8h-0.7V3h0.7V3.8z"/>
	<path class="st0" d="M15.5,6c-0.6,0-1.1,0.5-1.1,1.1v5.2c0,0.6,0.5,1.1,1.1,1.1c0.6,0,1.1-0.5,1.1-1.1V7.1C16.6,6.5,16.1,6,15.5,6z
		"/>
	<path class="st0" d="M2.3,6C1.7,6,1.2,6.5,1.2,7.1v5.2c0,0.6,0.5,1.1,1.1,1.1c0.6,0,1.1-0.5,1.1-1.1V7.1C3.4,6.5,2.9,6,2.3,6z"/>
	<path class="st0" d="M4.4,6L4.4,6l0,7.6c0,0.4,0.3,0.7,0.7,0.7h0.7v2.6c0,0.6,0.5,1.1,1.1,1.1C7.5,18,8,17.5,8,16.9v-2.6h0h1.8v2.6
		c0,0.6,0.5,1.1,1.1,1.1c0.6,0,1.1-0.5,1.1-1.1v-2.6h0.7c0.4,0,0.7-0.3,0.7-0.7V6H8H4.4z"/>
</g>
</svg>
