<?xml version="1.0" encoding="utf-8"?>
<!-- Generator: Adobe Illustrator 19.0.0, SVG Export Plug-In . SVG Version: 6.00 Build 0)  -->
<svg version="1.1" id="Calque_1" xmlns="http://www.w3.org/2000/svg" xmlns:xlink="http://www.w3.org/1999/xlink" x="0px" y="0px"
	 viewBox="0 0 34 34" style="enable-background:new 0 0 34 34;" xml:space="preserve">
<style type="text/css">
	.st0{fill:#010202;}
	.st1{fill:#FFFFFF;}
</style>
<g id="XMLID_7304_">
	<circle id="XMLID_7309_" class="st0" cx="16.4" cy="16.6" r="16"/>
	<path id="XMLID_7305_" class="st1" d="M17.9,16.5c1.5,0,2.7-1.2,2.7-2.7c0-1.5-1.2-2.7-2.7-2.7c-1.5,0-2.7,1.2-2.7,2.7
		C15.2,15.3,16.4,16.5,17.9,16.5z M11.8,15.1v-2.1h-1.4v2.1H8.3v1.4h2.1v2.1h1.4v-2.1h2.1v-1.4H11.8z M17.9,17.9
		c-1.8,0-5.5,0.9-5.5,2.7V22h11v-1.4C23.4,18.8,19.7,17.9,17.9,17.9z"/>
</g>
</svg>
