<?xml version="1.0" encoding="utf-8"?>
<!-- Generator: Adobe Illustrator 19.0.0, SVG Export Plug-In . SVG Version: 6.00 Build 0)  -->
<svg version="1.1" id="Calque_1" xmlns="http://www.w3.org/2000/svg" xmlns:xlink="http://www.w3.org/1999/xlink" x="0px" y="0px"
	 viewBox="0 268 16 16" style="enable-background:new 0 268 16 16;" xml:space="preserve">
<style type="text/css">
	.st0{fill:#E6195E;}
</style>
<path id="XMLID_57417_" class="st0" d="M8,269c-3.9,0-7,3.1-7,7s3.1,7,7,7s7-3.1,7-7S11.9,269,8,269z M8,271.1
	c1.2,0,2.1,0.9,2.1,2.1c0,1.2-0.9,2.1-2.1,2.1s-2.1-0.9-2.1-2.1C5.9,272,6.8,271.1,8,271.1z M8,281c-1.8,0-3.3-0.9-4.2-2.3
	c0-1.4,2.8-2.2,4.2-2.2s4.2,0.8,4.2,2.2C11.3,280.1,9.7,281,8,281z"/>
</svg>
