<?xml version="1.0" encoding="utf-8"?>
<!-- Generator: Adobe Illustrator 19.0.0, SVG Export Plug-In . SVG Version: 6.00 Build 0)  -->
<svg version="1.1" id="Calque_1" xmlns="http://www.w3.org/2000/svg" xmlns:xlink="http://www.w3.org/1999/xlink" x="0px" y="0px"
	 viewBox="0 0 16 16" style="enable-background:new 0 0 16 16;" xml:space="preserve">
<style type="text/css">
	.st0{fill:#3D3D3D;}
</style>
<path id="XMLID_57417_" class="st0" d="M8,1C4.1,1,1,4.1,1,8s3.1,7,7,7s7-3.1,7-7S11.9,1,8,1z M8,3.1c1.2,0,2.1,0.9,2.1,2.1
	c0,1.2-0.9,2.1-2.1,2.1S5.9,6.4,5.9,5.2C5.9,4,6.8,3.1,8,3.1z M8,13c-1.8,0-3.3-0.9-4.2-2.3c0-1.4,2.8-2.2,4.2-2.2s4.2,0.8,4.2,2.2
	C11.3,12.1,9.7,13,8,13z"/>
</svg>
