<?xml version="1.0" encoding="utf-8"?>
<!-- Generator: Adobe Illustrator 19.0.0, SVG Export Plug-In . SVG Version: 6.00 Build 0)  -->
<svg version="1.1" id="Calque_1" xmlns="http://www.w3.org/2000/svg" xmlns:xlink="http://www.w3.org/1999/xlink" x="0px" y="0px"
	 viewBox="0 0 16 16" style="enable-background:new 0 0 16 16;" xml:space="preserve">
<style type="text/css">
	.st0{fill:#3D3D3D;}
</style>
<path id="XMLID_26038_" class="st0" d="M10.7,8c0-0.8-0.7-1.5-1.5-1.5C8.3,6.5,7.6,7.2,7.6,8s0.7,1.5,1.5,1.5
	C10,9.5,10.7,8.8,10.7,8z M9.1,1.1C5.4,1.1,2.3,4.2,2.3,8H0l3,3l3-3H3.8c0-2.9,2.4-5.3,5.3-5.3s5.3,2.4,5.3,5.3s-2.4,5.3-5.3,5.3
	c-1.2,0-2.2-0.4-3.1-1L5,13.4c1.2,0.9,2.6,1.4,4.2,1.4c3.8,0,6.9-3.1,6.9-6.9S12.9,1.1,9.1,1.1z"/>
</svg>
