<?xml version="1.0" encoding="utf-8"?>
<!-- Generator: Adobe Illustrator 19.0.0, SVG Export Plug-In . SVG Version: 6.00 Build 0)  -->
<svg version="1.1" id="Calque_1" xmlns="http://www.w3.org/2000/svg" xmlns:xlink="http://www.w3.org/1999/xlink" x="0px" y="0px"
	 viewBox="0 0 160 160" style="enable-background:new 0 0 160 160;" xml:space="preserve">
<style type="text/css">
	.st0{opacity:0.4;fill:#CDCBCB;}
	.st1{fill:#CDCBCB;}
</style>
<g id="XMLID_50755_">
	<circle id="XMLID_50759_" class="st0" cx="622.5" cy="253.3" r="79.5"/>
	<path id="XMLID_50756_" class="st1" d="M665.9,229.9l-17.7,17.7v-15.5c0-2.4-2-4.4-4.4-4.4h-27.3l49.4,49.4V229.9z M587.7,210
		l-5.6,5.6l12,12h-3.2c-2.4,0-4.4,2-4.4,4.4v44.2c0,2.4,2,4.4,4.4,4.4h53c0.9,0,1.7-0.3,2.4-0.8l14.1,14.1l5.6-5.6L587.7,210z"/>
</g>
<g id="XMLID_1_">
	<circle id="XMLID_5_" class="st0" cx="80" cy="80" r="80"/>
	<path id="XMLID_2_" class="st1" d="M123.7,56.5l-17.8,17.8V58.7c0-2.4-2-4.4-4.4-4.4H74l49.7,49.7V56.5z M44.9,36.5l-5.7,5.7
		l12.1,12.1h-3.2c-2.4,0-4.4,2-4.4,4.4v44.4c0,2.4,2,4.4,4.4,4.4h53.3c0.9,0,1.7-0.3,2.4-0.8l14.2,14.2l5.6-5.7L44.9,36.5z"/>
</g>
</svg>
