<?xml version="1.0" encoding="utf-8"?>
<!-- Generator: Adobe Illustrator 19.0.0, SVG Export Plug-In . SVG Version: 6.00 Build 0)  -->
<svg version="1.1" id="Calque_1" xmlns="http://www.w3.org/2000/svg" xmlns:xlink="http://www.w3.org/1999/xlink" x="0px" y="0px"
	 viewBox="0 0 16 16" style="enable-background:new 0 0 16 16;" xml:space="preserve">
<style type="text/css">
	.st0{fill:#161616;}
</style>
<path id="XMLID_20734_" class="st0" d="M1.5,8c0-1.4,1.1-2.5,2.5-2.5h3.2V4H4C1.8,4,0,5.8,0,8s1.8,4,4,4h3.2v-1.5H4
	C2.6,10.5,1.5,9.4,1.5,8z M4.8,8.8h6.4V7.2H4.8V8.8z M12,4H8.8v1.5H12c1.4,0,2.5,1.1,2.5,2.5s-1.1,2.5-2.5,2.5H8.8V12H12
	c2.2,0,4-1.8,4-4S14.2,4,12,4z"/>
</svg>
