<?xml version="1.0" encoding="utf-8"?>
<!-- Generator: Adobe Illustrator 19.0.0, SVG Export Plug-In . SVG Version: 6.00 Build 0)  -->
<svg version="1.1" id="Calque_1" xmlns="http://www.w3.org/2000/svg" xmlns:xlink="http://www.w3.org/1999/xlink" x="0px" y="0px"
	 viewBox="0 0 16 16" style="enable-background:new 0 0 16 16;" xml:space="preserve">
<style type="text/css">
	.st0{fill:#161616;}
</style>
<path id="XMLID_23156_" class="st0" d="M8,4c1.1,0,2-0.9,2-2c0-1.1-0.9-2-2-2C6.9,0,6,0.9,6,2C6,3.1,6.9,4,8,4 M8,6C6.9,6,6,6.9,6,8
	c0,1.1,0.9,2,2,2c1.1,0,2-0.9,2-2C10,6.9,9.1,6,8,6 M8,12c-1.1,0-2,0.9-2,2c0,1.1,0.9,2,2,2c1.1,0,2-0.9,2-2C10,12.9,9.1,12,8,12"/>
</svg>
