<?xml version="1.0" encoding="utf-8"?>
<!-- Generator: Adobe Illustrator 19.0.0, SVG Export Plug-In . SVG Version: 6.00 Build 0)  -->
<svg version="1.1" id="Calque_1" xmlns="http://www.w3.org/2000/svg" xmlns:xlink="http://www.w3.org/1999/xlink" x="0px" y="0px"
	 viewBox="0 268 16 16" style="enable-background:new 0 268 16 16;" xml:space="preserve">
<style type="text/css">
	.st0{fill:#E6195E;}
</style>
<path id="XMLID_29300_" class="st0" d="M7.8,279.5c0.7,0,1.3-0.6,1.3-1.3c0-0.7-0.6-1.4-1.3-1.4s-1.3,0.6-1.3,1.3
	C6.5,278.8,7.1,279.5,7.8,279.5z M11.8,273.5h-0.7v-1.3c0-1.8-1.5-3.3-3.3-3.3s-3.3,1.4-3.3,3.3v1.3H3.8c-0.7,0-1.3,0.6-1.3,1.3v6.7
	c0,0.7,0.6,1.3,1.3,1.3h8c0.7,0,1.3-0.6,1.3-1.3v-6.7C13.1,274.1,12.5,273.5,11.8,273.5z M5.7,272.2c0-1.1,0.9-2.1,2.1-2.1
	s2.1,0.9,2.1,2.1v1.3H5.7V272.2z M11.8,281.5h-8v-6.7h8V281.5z"/>
</svg>
