<?xml version="1.0" encoding="utf-8"?>
<!-- Generator: Adobe Illustrator 19.0.0, SVG Export Plug-In . SVG Version: 6.00 Build 0)  -->
<svg version="1.1" id="Calque_1" xmlns="http://www.w3.org/2000/svg" xmlns:xlink="http://www.w3.org/1999/xlink" x="0px" y="0px"
	 viewBox="0 0 16 16" style="enable-background:new 0 0 16 16;" xml:space="preserve">
<style type="text/css">
	.st0{fill:#3D3D3D;}
</style>
<path id="XMLID_25979_" class="st0" d="M13.9,8.8C14,8.5,14,8.2,14,8s0-0.5-0.1-0.8l1.7-1.3c0.2-0.1,0.2-0.3,0.1-0.5l-1.6-2.8
	c-0.1-0.2-0.3-0.2-0.5-0.2l-2,0.8c-0.4-0.3-0.9-0.6-1.4-0.8L10,0.3C10,0.1,9.8,0,9.6,0H6.4C6.2,0,6,0.1,6,0.3L5.7,2.4
	C5.2,2.6,4.8,2.9,4.4,3.2l-2-0.8C2.2,2.4,2,2.4,1.9,2.6L0.3,5.4C0.2,5.5,0.2,5.8,0.4,5.9l1.7,1.3C2,7.5,2,7.7,2,8s0,0.5,0.1,0.8
	l-1.7,1.3c-0.2,0.1-0.2,0.3-0.1,0.5l1.6,2.8c0.1,0.2,0.3,0.2,0.5,0.2l2-0.8c0.4,0.3,0.9,0.6,1.4,0.8L6,15.6C6,15.8,6.2,16,6.4,16
	h3.2c0.2,0,0.4-0.1,0.4-0.3l0.3-2.1c0.5-0.2,0.9-0.5,1.4-0.8l2,0.8c0.2,0.1,0.4,0,0.5-0.2l1.6-2.8c0.1-0.2,0.1-0.4-0.1-0.5L13.9,8.8
	z M8,10.8c-1.5,0-2.8-1.3-2.8-2.8S6.5,5.2,8,5.2s2.8,1.3,2.8,2.8S9.5,10.8,8,10.8z"/>
</svg>
