<?xml version="1.0" encoding="utf-8"?>
<!-- Generator: Adobe Illustrator 19.0.0, SVG Export Plug-In . SVG Version: 6.00 Build 0)  -->
<svg version="1.1" id="Calque_1" xmlns="http://www.w3.org/2000/svg" xmlns:xlink="http://www.w3.org/1999/xlink" x="0px" y="0px"
	 viewBox="0 0 18 18" style="enable-background:new 0 0 18 18;" xml:space="preserve">
<style type="text/css">
	.st0{fill:#161616;}
</style>
<path id="XMLID_9980_" class="st0" d="M12.3,11h-0.7l-0.3-0.3c0.9-1,1.4-2.4,1.4-3.9c0-3.3-2.7-5.9-5.9-5.9c-3.3,0-5.9,2.7-5.9,5.9
	c0,3.3,2.7,5.9,5.9,5.9c1.5,0,2.8-0.5,3.9-1.4l0.3,0.3v0.7l4.6,4.6l1.4-1.4L12.3,11z M6.8,11c-2.3,0-4.1-1.8-4.1-4.1
	c0-2.3,1.8-4.1,4.1-4.1c2.3,0,4.1,1.8,4.1,4.1C10.9,9.1,9.1,11,6.8,11"/>
</svg>
