<?xml version="1.0" encoding="utf-8"?>
<!-- Generator: Adobe Illustrator 19.0.0, SVG Export Plug-In . SVG Version: 6.00 Build 0)  -->
<svg version="1.1" id="Calque_1" xmlns="http://www.w3.org/2000/svg" xmlns:xlink="http://www.w3.org/1999/xlink" x="0px" y="0px"
	 viewBox="0 0 90 90" style="enable-background:new 0 0 90 90;" xml:space="preserve">
<style type="text/css">
	.st0{fill:#EFEEED;}
	.st1{clip-path:url(#XMLID_2_);}
	.st2{opacity:0.1;fill:#5F5F5F;enable-background:new    ;}
	.st3{fill:#8D1442;}
	.st4{fill:#FFFFFF;}
	.st5{opacity:0.8;fill:#AEAEAF;enable-background:new    ;}
	.st6{fill:#5F5F5F;}
	.st7{fill:#020304;fill-opacity:0;}
	.st8{fill:#C91456;}
	.st9{opacity:0.2;fill:#3D3D3D;enable-background:new    ;}
	.st10{fill:#E62261;}
	.st11{opacity:0.2;}
	.st12{opacity:0.7;fill:#5F5F5F;enable-background:new    ;}
	.st13{fill:#D3D3D3;}
	.st14{opacity:0.8;fill:#B4B4B4;enable-background:new    ;}
	.st15{fill:#2B2C2C;}
	.st16{fill:#E32462;}
	.st17{opacity:0.7;fill:#CC2057;enable-background:new    ;}
</style>
<g id="XMLID_15661_">
	<g id="XMLID_20251_">
		<circle id="SVGID_254_" class="st0" cx="45" cy="45" r="45"/>
	</g>
	<g id="XMLID_15662_">
		<defs>
			<circle id="XMLID_15663_" cx="45" cy="45" r="45"/>
		</defs>
		<clipPath id="XMLID_2_">
			<use xlink:href="#XMLID_15663_"  style="overflow:visible;"/>
		</clipPath>
		<g id="XMLID_15664_" class="st1">
			<path id="XMLID_20249_" class="st2" d="M57.3,66.3L55,43c0-0.5-0.4-0.8-0.9-0.7l-0.3-0.1l-1.5-14.7l-7.2-5.9l-29.4,2.9
				c-0.5,0-0.8,0.5-0.7,0.9l2,20.2l-0.5,0.3c-0.5,0-0.8,0.4-0.7,0.9l0,0.4l0,0L18,70.1c0,0.5,0.4,0.8,0.9,0.7l21-2l16.6-1.6
				C57,67.2,57.3,66.8,57.3,66.3z"/>
			<g id="XMLID_16238_">
				<path id="XMLID_20247_" class="st3" d="M58.7,37.2l-20.3-8.1L19,41c-0.5,0-0.8,0.5-0.8,0.9l2.4,24.6c0,0.5,0.5,0.8,0.9,0.8
					l39.7-3.8c0.5,0,0.8-0.5,0.8-0.9L59.7,38C59.6,37.5,59.2,37.1,58.7,37.2z"/>
				<path id="XMLID_20102_" class="st4" d="M56.9,21.6l3.5,35.4c0,0.5-0.3,0.9-0.8,1l-37.1,3.7c-0.5,0-0.9-0.3-0.9-0.8l-4.1-41.4
					c0-0.5,0.3-0.9,0.8-1l31.1-3.1L56.9,21.6z"/>
				<g id="XMLID_17946_">
					<path id="XMLID_20091_" class="st5" d="M41.8,34.9c-0.1-0.2-0.1-0.3,0-0.4c0.4-0.7,0.6-1.5,0.6-2.3c0-1.3-0.5-2.4-1.4-3.3
						C41,28.9,40.9,29,40.9,29c-0.9,1.3-2.1,2.2-3.7,2.7c-0.7,0.2-1.5-0.2-1.7-0.9c-0.2-0.7,0.2-1.4,0.9-1.7
						c0.2-0.1,0.4-0.1,0.6-0.2c0.6-0.3,1.1-0.7,1.6-1.3c-0.1,0-0.2,0-0.2,0c-2-0.2-4.1,1.1-4.8,3c-1,2.8,0.8,5.6,3.7,6.1
						c0.1,0,0.3,0.1,0.3,0.2c0.4,0.8,0.8,1.6,1.2,2.4c0.1,0.1,0.2,0.2,0.3,0.3c0.5,0.2,1,0.4,1.5,0.5c-0.2,0.6-0.4,1.2-0.6,1.8
						c0.6,0.2,1.2,0.4,1.7,0.6c-0.2,0.6-0.4,1.2-0.6,1.8c0.6,0.2,1.2,0.4,1.7,0.6c-0.2,0.5-0.4,1-0.5,1.6c1,0.4,2,0.7,3,1
						c0-0.1,0.1-0.1,0.1-0.1c0.3-0.9,0.7-1.9,1-2.9c0-0.1,0-0.3-0.1-0.4C44.8,41.1,43.3,38,41.8,34.9z"/>
					<path id="XMLID_20081_" class="st5" d="M35.2,36.9c-0.6-0.3-1.1-0.7-1.5-1.2c-1.6-1.9-1.7-4.8-0.2-6.8c0.2-0.3,0.5-0.6,0.8-0.9
						c-0.1,0-0.3,0-0.4,0c-1.7-0.1-3.4,0.9-4,2.5c-0.7,1.7-0.2,3.5,1.1,4.7c0.1,0.1,0.2,0.2,0.2,0.4c-0.1,0.8-0.1,1.5-0.2,2.3
						c0,0.1,0,0.3,0.1,0.4c0.3,0.4,0.6,0.7,0.9,1.1c-0.4,0.4-0.8,0.7-1.2,1.1c0.4,0.4,0.7,0.8,1,1.2c-0.4,0.4-0.8,0.7-1.2,1.1
						c0.4,0.4,0.7,0.8,1,1.3c-0.4,0.3-0.7,0.6-1.1,1c0.6,0.7,1.2,1.4,1.8,2.1c0.7-0.6,1.5-1.2,2.2-1.8c0.1-0.1,0.1-0.2,0.1-0.3
						c0.2-2.5,0.4-5,0.6-7.6C35.4,37.1,35.3,37,35.2,36.9z"/>
					<path id="XMLID_19148_" class="st6" d="M32.3,20.5c-1.7,1.1-2.8,3.1-2.6,5.3c0.1,0.8,0.3,1.6,0.8,2.4c0.2-0.2,0.5-0.3,0.7-0.5
						c0-0.1-0.1-0.2-0.1-0.3c-0.8-1.7-0.6-3.8,0.7-5.2c0.4-0.5,0.9-0.8,1.4-1.1c0,0,0,0,0,0C32.8,20.9,32.6,20.7,32.3,20.5z"/>
					<path id="XMLID_18421_" class="st6" d="M39.3,22.5c1,1.4,1.2,3.4,0.4,5.1c-0.6,1.2-1.6,2-2.9,2.4c-0.4,0.1-0.5,0.4-0.4,0.6
						c0.1,0.3,0.3,0.4,0.7,0.2c1.6-0.5,2.8-1.6,3.5-3.2c0.8-1.8,0.6-3.8-0.4-5.4c0,0-0.1,0-0.1,0C40,22.3,39.7,22.4,39.3,22.5z"/>
					<path id="XMLID_17966_" class="st6" d="M36.7,19.7c-0.1,0-0.1,0-0.2,0c-0.1,0.3-0.2,0.6-0.4,0.9c0.2,0,0.3,0.1,0.5,0.1
						c0-0.1,0-0.2,0-0.3C36.6,20.1,36.6,19.9,36.7,19.7z"/>
					<path id="XMLID_17965_" class="st6" d="M37.4,20c-0.3-0.1-0.5-0.2-0.8-0.2c-0.1,0.2-0.1,0.4-0.1,0.7c0,0.1,0,0.2,0,0.3
						c0.7,0.2,1.3,0.5,1.9,1c0.3,0.3,0.6,0.5,0.8,0.9c0.4-0.1,0.6-0.2,0.8-0.3c0,0,0.1,0,0.1,0C39.6,21.2,38.6,20.4,37.4,20z"/>
					<path id="XMLID_17964_" class="st6" d="M32.3,20.5c0.2,0.2,0.5,0.4,0.7,0.6c0,0,0,0,0,0c0.9-0.5,2-0.7,3-0.5
						c0.2-0.3,0.3-0.5,0.4-0.9C35,19.4,33.5,19.7,32.3,20.5z"/>
				</g>
				<path id="XMLID_17519_" class="st7" d="M36.3,53.7l22.4-16.5l0.3,3L41,53.3L36.3,53.7z"/>
				<path id="XMLID_16253_" class="st8" d="M20.6,66.6c0,0.5,0.5,0.8,0.9,0.8l39.7-3.8c0.5,0,0.8-0.5,0.8-0.9l-2.3-24.2L40.2,52.9
					L18.3,42.4L20.6,66.6z"/>
				<path id="XMLID_16244_" class="st9" d="M56.9,21.6L50,22.3l-0.7-6.9L56.9,21.6z"/>
				<path id="XMLID_16241_" class="st10" d="M18.3,42.4l2.3,23.3l19.7-12.8L18.3,42.4z"/>
				<polygon id="XMLID_16240_" class="st8" points="59.7,38.4 40.2,52.9 62,61.7 				"/>
			</g>
			<g id="XMLID_15702_" class="st11">
				<path id="XMLID_15703_" class="st12" d="M60.5,62c0.6-3.2,2.2-6.1,4.6-8.1c-0.1-0.1-0.2-0.1-0.3-0.2c-0.7-0.4-1-1-1.1-1.8
					c-0.4-3.2-0.8-6.4-1.3-9.6c-0.1-0.5-0.4-1-0.8-1.4c-1.1-1-2.3-1.9-3.4-2.8c-1.1-0.9-2.2-1.9-3.4-2.4c-2.6-1.2-5.4-2.1-8.1-3.1
					c-0.5-0.2-0.9-0.3-1.6,0c-0.4,0.2-0.6,0.6-0.7,0.9c-0.7,1.3-0.2,3,1.3,4c2.6,1.7,5.2,3.5,7.8,5.2c0.6,0.4,0.8,0.9,0.8,1.6
					c-0.2,2.1-0.4,4.3-0.6,6.4c-0.4,4.7-0.8,8.8-1.3,13.6c0,0,0,0,0,0.1c1.6-0.2,2.2-0.2,3.6-0.3c1.4-0.1,2.8-0.3,4.3-0.4
					C60.4,63.1,60.4,62.5,60.5,62z"/>
			</g>
			<g id="XMLID_15665_">
				<path id="XMLID_15680_" class="st13" d="M48.8,30.9c0.4-0.2,0.9-0.2,1.4,0c2.7,1,5.4,1.9,8.1,3.1c1.3,0.6,2.3,1.6,3.4,2.4
					c1.2,0.9,2.3,1.8,3.4,2.8c0.4,0.3,0.7,0.9,0.8,1.4c0.5,3.2,0.9,6.4,1.3,9.6c0.1,0.8,0.4,1.4,1.1,1.8c0.7,0.4,1.3,1,2,1.4
					c0.5,0.3,0.6,0.7,0.3,1.2c-2.1,4-4.2,8-6.3,12c-0.1,0.2-0.7,0.4-1,0.4c-2.3-0.8-4.6-1.7-6.9-2.6c-0.7-0.2-0.7-0.7-0.6-1.3
					c0.4-4.7,0.9-9.4,1.3-14.1c0.2-2.1,0.4-4.3,0.6-6.4c0.1-0.7-0.1-1.2-0.8-1.6c-2.6-1.7-5.2-3.4-7.8-5.2c-1.4-1-1.9-2.7-1.3-4
					C48.1,31.4,48.3,31.1,48.8,30.9z"/>
				<path id="XMLID_15679_" class="st14" d="M64.2,66.6c1.6-3,3.2-6,4.8-9c-3.9,0.9-7.7-1.6-11-3.8c-0.4-0.3-0.8-0.6-1.3-0.9
					c-0.3,3.4-0.6,6.8-0.9,10.2c-0.1,0.6,0,1,0.6,1.3c2.3,0.8,4.6,1.7,6.9,2.6C63.5,67,64.1,66.8,64.2,66.6z"/>
				<path id="XMLID_15677_" class="st15" d="M62.9,67.6c-0.4-0.2-0.4-0.9,0-1.5l7.4-12.4c0.4-0.6,0.9-0.9,1.3-0.7l4.1,2.4
					c0.4,0.2,0.4,0.9,0,1.5l-7.4,12.4c-0.4,0.6-0.9,0.9-1.3,0.7L62.9,67.6z"/>
				<path id="XMLID_15671_" class="st16" d="M93.4,64.9c-0.1,0.3-0.1,0.7-0.3,1.1c-2.7,4.7-5.5,9.4-8.2,14.1
					c-0.4,0.7-0.9,0.8-1.6,0.4c-3.3-1.9-12.7-7.5-16-9.4c-0.8-0.4-0.9-1-0.4-1.7c2.7-4.6,5.4-9.3,8.1-14c0.4-0.7,0.9-0.9,1.7-0.5
					c3.3,1.9,12.7,7.5,16,9.4C92.9,64.5,93.1,64.6,93.4,64.9z"/>
				<path id="XMLID_15669_" class="st17" d="M84.9,80c2.2-3.8,4.4-7.5,6.5-11.3c-7.5,0.1-14.9-2.2-22.2-3.5c0,0,0,0,0,0
					c-0.8,1.3-1.6,2.7-2.4,4c-0.4,0.7-0.3,1.3,0.4,1.7c3.3,1.9,12.7,7.5,16,9.4C84,80.9,84.5,80.8,84.9,80z"/>
				<path id="XMLID_15668_" class="st4" d="M73.2,70.9c-0.6,0.4-1.4,0.2-1.8-0.4c-0.4-0.6-0.2-1.4,0.4-1.8c0.6-0.4,1.4-0.2,1.8,0.4
					C74,69.7,73.8,70.5,73.2,70.9z"/>
				<circle id="XMLID_15666_" class="st4" cx="76.8" cy="73" r="1.3"/>
			</g>
		</g>
	</g>
</g>
</svg>
