<?xml version="1.0" encoding="utf-8"?>
<!-- Generator: Adobe Illustrator 19.0.0, SVG Export Plug-In . SVG Version: 6.00 Build 0)  -->
<svg version="1.1" id="Calque_1" xmlns="http://www.w3.org/2000/svg" xmlns:xlink="http://www.w3.org/1999/xlink" x="0px" y="0px"
	 viewBox="0 0 90 90" style="enable-background:new 0 0 90 90;" xml:space="preserve">
<style type="text/css">
	.st0{fill:#EFEEED;}
	.st1{clip-path:url(#XMLID_2_);}
	.st2{opacity:0.1;fill:#5F5F5F;enable-background:new    ;}
	.st3{fill:#8D1442;}
	.st4{fill:#FFFFFF;}
	.st5{fill:#020304;fill-opacity:0;}
	.st6{fill:#C91456;}
	.st7{opacity:0.2;fill:#3D3D3D;enable-background:new    ;}
	.st8{fill:#E62261;}
	.st9{opacity:0.84;fill:#161617;}
	.st10{opacity:0.2;}
	.st11{opacity:0.7;fill:#5F5F5F;enable-background:new    ;}
	.st12{fill:#D3D3D3;}
	.st13{opacity:0.8;fill:#B4B4B4;enable-background:new    ;}
	.st14{fill:#2B2C2C;}
	.st15{fill:#E32462;}
	.st16{opacity:0.7;fill:#CC2057;enable-background:new    ;}
</style>
<g id="XMLID_43607_">
	<g id="XMLID_43640_">
		<circle id="SVGID_274_" class="st0" cx="45" cy="45" r="45"/>
	</g>
	<g id="XMLID_43608_">
		<defs>
			<circle id="XMLID_43609_" cx="45" cy="45" r="45"/>
		</defs>
		<clipPath id="XMLID_2_">
			<use xlink:href="#XMLID_43609_"  style="overflow:visible;"/>
		</clipPath>
		<g id="XMLID_43610_" class="st1">
			<path id="XMLID_43639_" class="st2" d="M57.3,66.3L55,43c0-0.5-0.4-0.8-0.9-0.7l-0.3-0.1l-1.5-14.7l-7.2-5.9l-29.4,2.9
				c-0.5,0-0.8,0.5-0.7,0.9l2,20.2l-0.5,0.3c-0.5,0-0.8,0.4-0.7,0.9l0,0.4l0,0L18,70.1c0,0.5,0.4,0.8,0.9,0.7l21-2l16.6-1.6
				C57,67.2,57.3,66.8,57.3,66.3z"/>
			<g id="XMLID_43621_">
				<path id="XMLID_43638_" class="st3" d="M58.7,37.2l-20.3-8.1L19,41c-0.5,0-0.8,0.5-0.8,0.9l2.4,24.6c0,0.5,0.5,0.8,0.9,0.8
					l39.7-3.8c0.5,0,0.8-0.5,0.8-0.9L59.7,38C59.6,37.5,59.2,37.1,58.7,37.2z"/>
				<path id="XMLID_43637_" class="st4" d="M56.9,21.6l3.5,35.4c0,0.5-0.3,0.9-0.8,1l-37.1,3.7c-0.5,0-0.9-0.3-0.9-0.8l-4.1-41.4
					c0-0.5,0.3-0.9,0.8-1l31.1-3.1L56.9,21.6z"/>
				<path id="XMLID_43626_" class="st5" d="M36.3,53.7l22.4-16.5l0.3,3L41,53.3L36.3,53.7z"/>
				<path id="XMLID_43625_" class="st6" d="M20.6,66.6c0,0.5,0.5,0.8,0.9,0.8l39.7-3.8c0.5,0,0.8-0.5,0.8-0.9l-2.3-24.2L40.2,52.9
					L18.3,42.4L20.6,66.6z"/>
				<path id="XMLID_43624_" class="st7" d="M56.9,21.6L50,22.3l-0.7-6.9L56.9,21.6z"/>
				<path id="XMLID_43623_" class="st8" d="M18.3,42.4l2.3,23.3l19.7-12.8L18.3,42.4z"/>
				<polygon id="XMLID_43622_" class="st6" points="59.7,38.4 40.2,52.9 62,61.7 				"/>
				<path id="XMLID_43598_" class="st9" d="M36.4,39.2l-4.1-4.6l1.3-1.1l2.9,3.3l6.3-6.1l1.2,1.2L36.4,39.2z M38.2,25.8
					c-4.7,0-8.5,3.8-8.5,8.5c0,4.7,3.8,8.5,8.5,8.5s8.5-3.8,8.5-8.5C46.7,29.7,42.9,25.8,38.2,25.8z"/>
			</g>
			<g id="XMLID_43619_" class="st10">
				<path id="XMLID_43620_" class="st11" d="M60.5,62c0.6-3.2,2.2-6.1,4.6-8.1c-0.1-0.1-0.2-0.1-0.3-0.2c-0.7-0.4-1-1-1.1-1.8
					c-0.4-3.2-0.8-6.4-1.3-9.6c-0.1-0.5-0.4-1-0.8-1.4c-1.1-1-2.3-1.9-3.4-2.8c-1.1-0.9-2.2-1.9-3.4-2.4c-2.6-1.2-5.4-2.1-8.1-3.1
					c-0.5-0.2-0.9-0.3-1.6,0c-0.4,0.2-0.6,0.6-0.7,0.9c-0.7,1.3-0.2,3,1.3,4c2.6,1.7,5.2,3.5,7.8,5.2c0.6,0.4,0.8,0.9,0.8,1.6
					c-0.2,2.1-0.4,4.3-0.6,6.4c-0.4,4.7-0.8,8.8-1.3,13.6c0,0,0,0,0,0.1c1.6-0.2,2.2-0.2,3.6-0.3c1.4-0.1,2.8-0.3,4.3-0.4
					C60.4,63.1,60.4,62.5,60.5,62z"/>
			</g>
			<g id="XMLID_43611_">
				<path id="XMLID_43618_" class="st12" d="M48.8,30.9c0.4-0.2,0.9-0.2,1.4,0c2.7,1,5.4,1.9,8.1,3.1c1.3,0.6,2.3,1.6,3.4,2.4
					c1.2,0.9,2.3,1.8,3.4,2.8c0.4,0.3,0.7,0.9,0.8,1.4c0.5,3.2,0.9,6.4,1.3,9.6c0.1,0.8,0.4,1.4,1.1,1.8c0.7,0.4,1.3,1,2,1.4
					c0.5,0.3,0.6,0.7,0.3,1.2c-2.1,4-4.2,8-6.3,12c-0.1,0.2-0.7,0.4-1,0.4c-2.3-0.8-4.6-1.7-6.9-2.6c-0.7-0.2-0.7-0.7-0.6-1.3
					c0.4-4.7,0.9-9.4,1.3-14.1c0.2-2.1,0.4-4.3,0.6-6.4c0.1-0.7-0.1-1.2-0.8-1.6c-2.6-1.7-5.2-3.4-7.8-5.2c-1.4-1-1.9-2.7-1.3-4
					C48.1,31.4,48.3,31.1,48.8,30.9z"/>
				<path id="XMLID_43617_" class="st13" d="M64.2,66.6c1.6-3,3.2-6,4.8-9c-3.9,0.9-7.7-1.6-11-3.8c-0.4-0.3-0.8-0.6-1.3-0.9
					c-0.3,3.4-0.6,6.8-0.9,10.2c-0.1,0.6,0,1,0.6,1.3c2.3,0.8,4.6,1.7,6.9,2.6C63.5,67,64.1,66.8,64.2,66.6z"/>
				<path id="XMLID_43616_" class="st14" d="M62.9,67.6c-0.4-0.2-0.4-0.9,0-1.5l7.4-12.4c0.4-0.6,0.9-0.9,1.3-0.7l4.1,2.4
					c0.4,0.2,0.4,0.9,0,1.5l-7.4,12.4c-0.4,0.6-0.9,0.9-1.3,0.7L62.9,67.6z"/>
				<path id="XMLID_43615_" class="st15" d="M93.4,64.9c-0.1,0.3-0.1,0.7-0.3,1.1c-2.7,4.7-5.5,9.4-8.2,14.1
					c-0.4,0.7-0.9,0.8-1.6,0.4c-3.3-1.9-12.7-7.5-16-9.4c-0.8-0.4-0.9-1-0.4-1.7c2.7-4.6,5.4-9.3,8.1-14c0.4-0.7,0.9-0.9,1.7-0.5
					c3.3,1.9,12.7,7.5,16,9.4C92.9,64.4,93.1,64.6,93.4,64.9z"/>
				<path id="XMLID_43614_" class="st16" d="M84.9,80c2.2-3.8,4.4-7.5,6.5-11.3c-7.5,0.1-14.9-2.2-22.2-3.5c0,0,0,0,0,0
					c-0.8,1.3-1.6,2.7-2.4,4c-0.4,0.7-0.3,1.3,0.4,1.7c3.3,1.9,12.7,7.5,16,9.4C84,80.8,84.5,80.8,84.9,80z"/>
				<path id="XMLID_43613_" class="st4" d="M73.2,70.9c-0.6,0.4-1.4,0.2-1.8-0.4c-0.4-0.6-0.2-1.4,0.4-1.8c0.6-0.4,1.4-0.2,1.8,0.4
					C74,69.7,73.8,70.5,73.2,70.9z"/>
				<circle id="XMLID_43612_" class="st4" cx="76.8" cy="73" r="1.3"/>
			</g>
		</g>
	</g>
</g>
</svg>
