<?xml version="1.0" encoding="utf-8"?>
<!-- Generator: Adobe Illustrator 19.0.0, SVG Export Plug-In . SVG Version: 6.00 Build 0)  -->
<svg version="1.1" id="Calque_1" xmlns="http://www.w3.org/2000/svg" xmlns:xlink="http://www.w3.org/1999/xlink" x="0px" y="0px"
	 viewBox="0 0 90 90" style="enable-background:new 0 0 90 90;" xml:space="preserve">
<style type="text/css">
	.st0{fill:#EFEEEE;}
	.st1{clip-path:url(#XMLID_8_);}
	.st2{opacity:0.7;fill:#969596;enable-background:new    ;}
	.st3{fill:#F3F3F3;}
	.st4{fill:#DFDFDF;}
	.st5{opacity:0.4;fill:#DCDCDC;enable-background:new    ;}
	.st6{opacity:0.2;fill:#3D3D3C;enable-background:new    ;}
	.st7{fill:#E32462;}
	.st8{opacity:0.7;}
	.st9{fill:#969596;}
	.st10{opacity:0.1216;fill:#020304;enable-background:new    ;}
	.st11{opacity:1.960000e-02;fill:#020304;enable-background:new    ;}
	.st12{opacity:1.180000e-02;fill:#020304;enable-background:new    ;}
	.st13{fill:#E83B7C;}
	.st14{fill:#CC2057;}
	.st15{fill:#A5A4A3;}
	.st16{fill:#343435;}
	.st17{opacity:0.4;fill:#FFFFFF;enable-background:new    ;}
	.st18{fill:#858686;}
	.st19{fill:#3D3D3C;}
	.st20{opacity:0.2;fill:#DFDFDF;enable-background:new    ;}
	.st21{opacity:0.2;}
	.st22{opacity:0.7;fill:#3D3D3C;enable-background:new    ;}
	.st23{fill:#DCDCDC;}
	.st24{fill:#2B2C2C;}
	.st25{opacity:0.7;fill:#CC2057;enable-background:new    ;}
	.st26{fill:#FFFFFF;}
</style>
<g id="XMLID_6674_">
	<g id="XMLID_15291_">
		<path id="SVGID_88_" class="st0" d="M90,45c0,24.9-20.1,45-45,45C20.1,90,0,69.9,0,45C0,20.1,20.1,0,45,0C69.9,0,90,20.1,90,45z"
			/>
	</g>
	<g id="XMLID_6770_">
		<defs>
			<circle id="XMLID_12519_" cx="45" cy="45" r="45"/>
		</defs>
		<clipPath id="XMLID_8_">
			<use xlink:href="#XMLID_12519_"  style="overflow:visible;"/>
		</clipPath>
		<g id="XMLID_12667_" class="st1">
			<path id="XMLID_15290_" class="st2" d="M61.1,71.5c0,0.9-0.7,1.7-1.7,1.7H28.2c-0.9,0-1.7-0.8-1.7-1.7V30.1
				c0-0.9,0.7-1.7,1.7-1.7h31.2c0.9,0,1.7,0.8,1.7,1.7V71.5z"/>
			<g id="XMLID_15288_">
				<path id="XMLID_4_" class="st3" d="M62.8,68.3c0,0.9-0.7,1.7-1.6,1.7H31.5c-0.9,0-1.6-0.8-1.6-1.7V26.8c0-0.9,0.7-1.7,1.6-1.7
					h29.7c0.9,0,1.6,0.8,1.6,1.7V68.3z"/>
				<path id="XMLID_5_" class="st4" d="M61.2,71H31.5c-1.4,0-2.6-1.2-2.6-2.7V26.8c0-1.5,1.2-2.7,2.6-2.7h29.7
					c1.4,0,2.6,1.2,2.6,2.7v41.5C63.8,69.8,62.7,71,61.2,71z M31.5,26.1c-0.3,0-0.6,0.3-0.6,0.7v41.5c0,0.4,0.3,0.7,0.6,0.7h29.7
					c0.3,0,0.6-0.3,0.6-0.7V26.8c0-0.4-0.3-0.7-0.6-0.7H31.5z"/>
			</g>
			<path id="XMLID_15287_" class="st5" d="M58.8,39.9c-1.9,4.2-3.9,8.2-6.1,12.2c-1,1.9-2.2,3.7-3.2,5.5c-1,1.8-1.8,3.6-2.9,5.3
				c-1.5,2.5-3.2,4.9-5.2,7h19.8c0.9,0,1.6-0.8,1.6-1.7V30.2C61.6,33.5,60.3,36.7,58.8,39.9z"/>
			<path id="XMLID_15284_" class="st6" d="M33.6,40.1c-2.2-0.5-3.1,3.1-3.1,3.1s-0.1,0.8-0.1,0.4c0,0.8,0,0.9,0,1.1
				c-0.1,0.6-0.4,0.6-0.5,0.5c0,0-0.5-2.1-0.5-3.5c-0.7,0.1-0.2-3.2-1-2.4c-1,1.1-6.5,8-7,9.6c-0.6,1.5-0.5,6-0.6,11.2
				c-0.1,2.9-0.5,6.1-2.8,11.4l8,1.6c0.4-0.4,1.4-2.3,1.8-2.9c2.6-3.8,2.9-3.6,3.9-5.5c1-1.8,2.7-6.5,2.4-11
				c-0.4-4.5,0.1-3.2,0.8-8.6C35.7,39.9,33.6,40.1,33.6,40.1z"/>
			<g id="XMLID_15259_">
				<g id="XMLID_15263_">
					<path id="XMLID_15283_" class="st7" d="M41.8,36.9c-0.1-0.1-0.2-0.2-0.3-0.3c-0.3-0.1-0.6-0.3-0.9-0.4
						c-0.1-0.1-0.3-0.1-0.4-0.2C40,36,40,35.8,40,35.7c0-0.1,0-0.1,0.1-0.2c0.2-0.2,0.3-0.4,0.4-0.7c0,0,0-0.1,0.1-0.1
						c0.1,0,0.1-0.1,0.2-0.2c0,0,0-0.1,0-0.1c0.1-0.1,0.1-0.3,0-0.4c0,0,0-0.1-0.1-0.1c-0.1,0-0.1-0.1-0.1-0.1c0-0.3,0-0.6-0.1-0.9
						c-0.2-0.5-0.5-0.8-1-0.9c-0.1,0-0.2,0-0.3,0c-0.1,0-0.2,0-0.3,0c-0.5,0.1-0.8,0.4-1,0.9c-0.1,0.3-0.1,0.6-0.1,0.9
						c0,0.1,0,0.1-0.1,0.1c0,0-0.1,0.1-0.1,0.1c-0.1,0.1,0,0.3,0,0.4c0,0,0,0.1,0,0.1c0,0.1,0.1,0.2,0.2,0.2c0,0,0.1,0,0.1,0.1
						c0.1,0.3,0.2,0.5,0.4,0.7c0.1,0.1,0.1,0.1,0.1,0.2c0,0.2-0.1,0.3-0.2,0.4c-0.1,0.1-0.3,0.1-0.4,0.2c-0.3,0.1-0.6,0.3-0.9,0.4
						c-0.1,0.1-0.3,0.1-0.3,0.3c-0.1,0.2-0.2,0.4-0.2,0.6c0,0.1,0,0.1,0.1,0.1h2.7h2.7c0.1,0,0.1,0,0.1-0.1
						C42,37.3,42,37.1,41.8,36.9z"/>
					<g id="XMLID_15264_">
						<path id="XMLID_15265_" class="st7" d="M42.4,37.7h-6.5v-6.5h6.5V37.7z M36.1,37.5h6.1v-6.1h-6.1V37.5z"/>
					</g>
				</g>
				<rect id="XMLID_15262_" x="44" y="31.4" class="st2" width="14.2" height="0.8"/>
				<rect id="XMLID_15261_" x="44" y="33.8" class="st2" width="12.5" height="0.8"/>
				<rect id="XMLID_15260_" x="44" y="36.3" class="st2" width="10.9" height="0.8"/>
			</g>
			<g id="XMLID_15251_" class="st8">
				<rect id="XMLID_15258_" x="35.9" y="47.4" class="st9" width="21.4" height="0.7"/>
				<rect id="XMLID_15257_" x="35.9" y="44.6" class="st9" width="21.4" height="0.7"/>
				<rect id="XMLID_15256_" x="35.9" y="50.2" class="st9" width="21.4" height="0.7"/>
				<rect id="XMLID_15255_" x="35.9" y="53" class="st9" width="21.4" height="0.7"/>
				<rect id="XMLID_15254_" x="35.9" y="55.8" class="st9" width="21.4" height="0.7"/>
				<rect id="XMLID_15253_" x="35.9" y="58.6" class="st9" width="15" height="0.7"/>
				<rect id="XMLID_15252_" x="35.9" y="61.5" class="st9" width="11.6" height="0.7"/>
			</g>
			<g id="XMLID_15191_">
				<path id="XMLID_15250_" class="st10" d="M49.6,44.5l-0.8,0.4l8.3,16.7c0.2,0,0.3-0.1,0.5-0.2c0.1,0,0.2-0.1,0.3-0.1L49.6,44.5"
					/>
				<path id="XMLID_15249_" class="st10" d="M50.1,43.7l-0.5,0.8l8.3,16.8c0.2-0.2,0.4-0.4,0.6-0.6L50.1,43.7"/>
				<path id="XMLID_15246_" class="st10" d="M48.2,41.4L48.2,41.4L48.2,41.4 M48.2,41.4L48.2,41.4L48.2,41.4c0,0-0.1,0.2-0.2,0.3
					l0,0l0,0l1.7,2.8l-0.8,0.4l0.8-0.4l0.5-0.8L48.2,41.4"/>
				<path id="XMLID_15241_" class="st11" d="M46.8,39.8l0.4,2l0,0L46.8,39.8 M47.9,44.8L47.9,44.8l1,0.1L47.9,44.8 M47.9,44.8
					L47.9,44.8 M46.8,39.8l1.1,5l0,0l0,0l-0.6-2.9l0,0l0,0L46.8,39.8L46.8,39.8"/>
				<path id="XMLID_15233_" class="st10" d="M47.9,44.8L47.9,44.8l1,0.1L47.9,44.8 M47.9,44.8L47.9,44.8 M47.9,44.8L47.9,44.8l1,0.1
					L47.9,44.8"/>
				<path id="XMLID_15232_" class="st10" d="M59.1,61.9c-0.1,0.2-0.4,0.6-1,0.9c-0.3,0.2-0.7,0.3-1.2,0.2l0.6,1.2
					c0,0,0.1,0.3,0.6,0.3c0.2,0,0.5-0.1,0.8-0.2c0.3-0.1,0.5-0.3,0.6-0.5c0.2-0.4,0.1-0.7,0.1-0.7L59.1,61.9"/>
				<path id="XMLID_15231_" class="st10" d="M58.5,60.5C58.5,60.6,58.5,60.6,58.5,60.5c-0.2,0.4-0.4,0.6-0.6,0.7
					c-0.1,0.1-0.2,0.1-0.3,0.1c-0.2,0.1-0.3,0.1-0.5,0.2c-0.4,0.1-0.7,0.1-0.9,0.1c0,0-0.1,0-0.1,0l0.6,1.2c0,0,0.1,0,0.1,0
					c0.5,0.1,0.9,0,1.2-0.2c0.5-0.3,0.8-0.7,1-0.9c0-0.1,0-0.1,0-0.1L58.5,60.5"/>
				<polyline id="XMLID_15230_" class="st12" points="46.8,39.8 46.8,39.8 46.8,39.8 46.8,39.8 46.8,39.8 				"/>
				<g id="XMLID_15201_">
					<path id="XMLID_15229_" class="st10" d="M48.9,44.9l-1-0.1l8.4,16.9c0.1,0,0.5,0,0.9-0.1L48.9,44.9z"/>
					<path id="XMLID_15228_" class="st10" d="M46.8,39.8L46.8,39.8l1.1,1.9c0.1-0.1,0.2-0.3,0.2-0.3L46.8,39.8z"/>
					<path id="XMLID_15202_" class="st10" d="M48,41.7L48,41.7c0,0-0.1,0.1-0.1,0.1C47.9,41.8,47.9,41.7,48,41.7l-1.1-1.9l0,0
						l0.6,1.5l-0.6-1.5l0.4,2l0.6,2.9l1,0.1l0.8-0.4L48,41.7z"/>
				</g>
				<polygon id="XMLID_15200_" class="st13" points="48.4,44.3 56.9,61.4 58,61.7 49.4,44.3 				"/>
				<polygon id="XMLID_15199_" class="st7" points="49.4,44.3 58,61.7 58.7,61.3 50.1,44 				"/>
				<polygon id="XMLID_15198_" class="st14" points="50.1,44 58.7,61.3 59.1,60.3 50.6,43.1 				"/>
				<path id="XMLID_15197_" class="st15" d="M48.7,40.9c0,0-0.1,0.3-0.4,0.4c-0.2,0.1-0.6,0-0.6,0s0.3,0.1,0.6,0
					C48.6,41.2,48.7,40.9,48.7,40.9l-1.4-1.6l1.1,5l1,0.1l0.8-0.4l0.5-0.8L48.7,40.9z"/>
				<path id="XMLID_15196_" class="st16" d="M47.3,39.2l0.5,2.1c0,0,0.4,0.1,0.6,0c0.2-0.1,0.4-0.4,0.4-0.4L47.3,39.2z"/>
				<polygon id="XMLID_15195_" class="st17" points="47.3,39.2 48.4,44.3 49.4,44.3 				"/>
				<path id="XMLID_15194_" class="st18" d="M57.3,62.2l2.2-1.1l0.7,1.4c0,0,0.1,0.3-0.1,0.7c-0.3,0.4-1,0.8-1.4,0.7
					c-0.5,0-0.6-0.3-0.6-0.3L57.3,62.2z"/>
				<path id="XMLID_15193_" class="st19" d="M56.7,61.2c0,0,1.7,0.1,2.3-1.2l0.6,1.2c0,0-0.7,1.4-2.3,1.2L56.7,61.2z"/>
				<polygon id="XMLID_15192_" class="st20" points="47.3,39.2 49.4,44.3 50.1,44 				"/>
			</g>
			<g id="XMLID_15183_" class="st21">
				<g id="XMLID_15189_">
					<path id="XMLID_15190_" class="st19" d="M70,71.9l-2.1-3.6c0,0-0.7-1.2-0.8-4.7c-0.2-3.5,0.6-4.9,0-7.4
						c-0.6-2.5-1.7-1.3-2.8-2.4c-1.1-1.1-1.7-0.4-3.3-0.8c-1.6-0.4-1.1-1.4-2.5-2.4c-1.4-1-2.6,0.1-2.6,0.1s-0.3,0.4-1-1.3
						c-0.6-1.5-1.8-1-2.1,0.2c-0.2,0.7,0.4,3.4,0.7,5.5c0.3,2.1-0.5,4.1-0.5,4.1c-0.8-1.1-1.1-2-1.6-3.9c-0.5-1.9-2.8-3.3-4.2-2.5
						c-1.4,0.9,0.1,0.6,0.4,3c0.3,2.4,0.5,1.5,1.8,5.3c1.3,3.8,2.2,3.4,5.2,6.8c0.8,1,2.4,3,3.2,4L70,71.9L70,71.9z"/>
				</g>
				<polygon id="XMLID_15188_" class="st22" points="61.5,73.1 67.1,81.5 68,87.7 72.4,87.7 70.9,73.1 				"/>
				<path id="XMLID_15187_" class="st19" d="M60.7,76.3c0,0.4-0.4,0.8-0.8,0.8l0,0c-0.5,0-0.8-0.4-0.8-0.8l0,0
					c0-0.4,0.4-0.8,0.8-0.8l0,0C60.3,75.5,60.7,75.9,60.7,76.3L60.7,76.3z"/>
				<path id="XMLID_15186_" class="st19" d="M61.5,81c0,0.4-0.4,0.8-0.8,0.8l0,0c-0.5,0-0.8-0.4-0.8-0.8l0,0c0-0.4,0.4-0.8,0.8-0.8
					l0,0C61.1,80.2,61.5,80.6,61.5,81L61.5,81z"/>
			</g>
			<g id="XMLID_14909_">
				<path id="XMLID_14916_" class="st23" d="M70.8,69.5l-1.5-2.7c0,0-0.7-1.3-0.9-5.1c-0.2-3.8,0.6-5.3,0-8
					c-0.6-2.7-1.7-1.4-2.9-2.6c-1.2-1.2-1.8-0.4-3.5-0.8c-1.7-0.4-1.2-1.5-2.7-2.6c-1.5-1.1-2.7,0.2-2.7,0.2s-0.3,0.5-1.1-1.4
					c-0.6-1.6-2.5-1.2-2.9,0c-0.2,0.8,0.4,3.7,0.7,5.9c0.3,2.2,0.1,4.6,0.1,4.6c-0.8-1.2-1.1-2.2-1.7-4.2c-0.5-2.1-2.9-3.6-4.4-2.7
					c-1.5,0.9,0.2,0.6,0.5,3.2c0.3,2.6,0.5,1.6,1.8,5.7c1.3,4.1,2.3,3.7,5.5,7.4c0.9,1,1.8,2.2,2.6,3.2L70.8,69.5L70.8,69.5z"/>
			</g>
			<path id="XMLID_14878_" class="st24" d="M70.9,73H58.7c-0.5,0-0.9-0.5-1-1.2L57.6,71c-0.1-0.9,0.4-1.6,1-1.6h12.2
				c0.5,0,0.9,0.5,1,1.2l0.1,0.7C72,72.2,71.5,73,70.9,73z"/>
			<path id="XMLID_14875_" class="st23" d="M32.6,37.6c-2.2-0.5-3.1,3.1-3.1,3.1s-0.1,0.9-0.1,0.4c0,0.8,0,0.9,0,1.1
				c-0.1,0.6-0.4,0.6-0.5,0.5c0,0-0.1-2.2,0-3.7c-0.2-0.1-1,0-1.8,0.8c-1,1.1-6.2,5-6.8,6.6c-0.6,1.6-0.5,6-0.6,11.4
				c-0.1,3-0.5,6.2-2.8,11.6h9.2c0.4-0.4,0.3-0.7,0.7-1.3c2.7-3.8,2.9-3.7,3.9-5.5c1-1.9,2.8-6.5,2.4-11.1c-0.4-4.6,0.1-3.3,0.8-8.7
				C34.8,37.5,32.6,37.6,32.6,37.6z"/>
			<path id="XMLID_14874_" class="st24" d="M25.5,73L16,73c-0.7,0-1.1-0.9-1-1.8l0.1-0.8c0.1-0.7,0.5-1.2,1-1.2l9.4,0
				c0.6,0,1.1,0.8,1,1.8l-0.1,0.8C26.4,72.4,26,73,25.5,73z"/>
			<path id="XMLID_1_" class="st7" d="M14.5,72.6l-3,13.9c-0.1,0.6,0.3,1.2,1,1.2h11.1c0.5,0,1-0.4,1-0.9l0.4-5.3c0,0,0-0.1,0-0.1
				l1.4-8.4c0.1-0.6-0.4-1.2-1-1.2h-10C15,71.8,14.6,72.1,14.5,72.6z"/>
			<path id="XMLID_3_" class="st25" d="M26.4,73L25,81.4c0,0,0,0.1,0,0.1l-0.4,5.3c0,0.5-0.5,0.9-1,0.9H21c-0.5,0-0.9-0.4-1-0.9
				l-1.6-13.9c-0.1-0.6,0.4-1.1,1-1.1h6C26,71.8,26.5,72.3,26.4,73z"/>
			<path id="XMLID_13378_" class="st26" d="M24.4,82c0,0.5-0.4,0.9-0.9,0.9l0,0c-0.5,0-0.9-0.4-0.9-0.9l0,0c0-0.5,0.4-0.9,0.9-0.9
				l0,0C24.1,81.1,24.4,81.5,24.4,82L24.4,82z"/>
			<path id="XMLID_13270_" class="st26" d="M23.4,75.4c0,0.5-0.4,0.9-0.9,0.9l0,0c-0.5,0-0.9-0.4-0.9-0.9l0,0c0-0.5,0.4-0.9,0.9-0.9
				l0,0C23.1,74.5,23.4,74.9,23.4,75.4L23.4,75.4z"/>
			<path id="XMLID_14907_" class="st7" d="M57.7,71.9c-0.6,0-1.1,0.6-1,1.2L58,81l0.8,5.8c0.1,0.5,0.5,0.9,1,0.9h13.2
				c0.6,0,1.1-0.5,1-1.1l-1.4-13.8c-0.1-0.5-0.5-0.9-1-0.9H57.7z"/>
			<path id="XMLID_14885_" class="st25" d="M63.6,73.4l4.8,7.4c0.1,0.1,0.1,0.3,0.2,0.4l0.7,5.6c0.1,0.5,0.5,0.9,1,0.9h2.7
				c0.6,0,1.1-0.5,1-1.1l-1.4-13.8c-0.1-0.5-0.5-0.9-1-0.9h-7C63.7,71.9,63.2,72.8,63.6,73.4z"/>
			<path id="XMLID_14883_" class="st26" d="M61.8,75.4c0,0.5-0.4,0.9-0.9,0.9l0,0c-0.5,0-0.9-0.4-0.9-0.9l0,0c0-0.5,0.4-0.9,0.9-0.9
				l0,0C61.4,74.5,61.8,74.9,61.8,75.4L61.8,75.4z"/>
			<path id="XMLID_14879_" class="st26" d="M62.6,80.5c0,0.5-0.4,0.9-0.9,0.9l0,0c-0.5,0-0.9-0.4-0.9-0.9l0,0c0-0.5,0.4-0.9,0.9-0.9
				l0,0C62.2,79.6,62.6,80,62.6,80.5L62.6,80.5z"/>
		</g>
	</g>
</g>
</svg>
