<?xml version="1.0" encoding="utf-8"?>
<!-- Generator: Adobe Illustrator 19.0.0, SVG Export Plug-In . SVG Version: 6.00 Build 0)  -->
<svg version="1.1" id="Calque_1" xmlns="http://www.w3.org/2000/svg" xmlns:xlink="http://www.w3.org/1999/xlink" x="0px" y="0px"
	 viewBox="0 0 140 140" style="enable-background:new 0 0 140 140;" xml:space="preserve">
<style type="text/css">
	.st0{opacity:0.8;}
	.st1{clip-path:url(#XMLID_2_);}
	.st2{fill:#F5F5F5;}
	.st3{fill:#4F4D4D;}
	.st4{fill:#8C8C8C;}
	.st5{fill:#403F3E;}
	.st6{fill:#6A6A69;}
	.st7{opacity:0.5;fill:#403F3E;}
	.st8{fill:#6F6F6F;}
	.st9{fill:#262625;}
	.st10{fill:#545453;}
	.st11{fill:#424141;}
	.st12{fill:#5F5F5F;}
	.st13{fill:#FFFFFF;}
	.st14{fill:#CFCECE;enable-background:new    ;}
	.st15{clip-path:url(#XMLID_3_);fill:#B7B7B7;enable-background:new    ;}
	.st16{fill:#ADADAD;}
	.st17{fill:#F7F2F1;}
	.st18{fill:#575757;}
	.st19{fill:#888989;}
	.st20{fill:#828383;}
</style>
<g id="XMLID_29139_" class="st0">
	<defs>
		<circle id="XMLID_29138_" class="st0" cx="69.7" cy="70.2" r="70"/>
	</defs>
	<use xlink:href="#XMLID_29138_"  style="overflow:visible;fill:#FFFFFF;"/>
	<clipPath id="XMLID_2_">
		<use xlink:href="#XMLID_29138_"  style="overflow:visible;"/>
	</clipPath>
	<g id="XMLID_155_" class="st1">
		<polygon id="XMLID_29135_" class="st2" points="26.3,68 26.2,115.7 26.2,128.7 115.4,128.9 115.6,68 100.3,68 		"/>
		<path id="XMLID_29134_" class="st3" d="M71,117.2c8.5,3.2,16.6,6.8,25.7,9.3c5.2,1.4,10.5,2.7,15.7,4c1,0.3,2,0.5,3,0.8
			c0,1.5,0.6,3.1,0.6,4.6v0.1c-8,1.1-15.1,0.9-19.6,0.7c-10.4-0.5-13.6-1.5-14.7-2c-5.2-2.3-7.6-5.8-8.7-7.5
			C70.8,123.6,71,119.2,71,117.2z"/>
		<path id="XMLID_29133_" class="st4" d="M82.1,68.2"/>
		<path id="XMLID_29132_" class="st5" d="M71,122.1c8.5,3.5,16.6,7.3,25.7,10c5.2,1.5,10.5,2.9,15.7,4.3c1,0.3,2,0.6,3,0.8
			c0,1.6,0.6,3.3,0.6,4.9v0.1c-8,1.1-15.1,1-19.6,0.7c-10.4-0.5-13.6-1.7-14.7-2.2c-5.2-2.4-7.6-6.3-8.7-8.1
			C70.8,129,71,124.2,71,122.1z"/>
		<path id="XMLID_29131_" class="st6" d="M82.1,68l0.2,7.8l1,12.2l-0.9,1.8h-0.5l0.1,0.9l-10.9,21.6l0,8.8l0,0c0,0.4,0,0.9,0,1.4
			l0,1.3l0.1-0.1c0.2,2,0.9,4.5,2.5,7.1c1.1,1.8,3.4,5.6,8.7,8.1c1.1,0.5,4.3,1.7,14.7,2.2c4.5,0.2,11,0.2,19-0.9V68H82.1z"/>
		<path id="XMLID_29128_" class="st7" d="M88,69.3L88,69.3L87.2,68h-4.7v24.4c0,1.9-0.8,3.3-2,4.3c-0.1,1.3-0.7,2.4-1.6,3.2
			c-0.2,0.5-0.5,0.9-0.9,1.3c-2.2,4.3-4.6,8-6.9,11.2c3-2.8,6.2-6,9.5-9.6c4.6-5.2,8.5-10.2,11.7-14.9l-2.7-4.1l4-2.9
			C91.8,77,89.9,73.2,88,69.3z"/>
		<path id="XMLID_29127_" class="st5" d="M26.2,137.2c1-0.3,1.9-0.5,2.9-0.8c5.3-1.5,10.7-2.8,16.1-4.3c9.2-2.7,17.5-6.5,26.2-10
			c0,2.1,0.3,6.9-2.1,10.6c-1.1,1.8-3.5,5.6-8.8,8.1c-1.1,0.5-4.4,1.7-15,2.2c-4.4,0.2-11.4,0.4-19.2-0.6V137.2z"/>
		<path id="XMLID_29126_" class="st6" d="M71.3,121L71.3,121l0-8.8L60.4,90.6l0.1-0.9h-0.5L59,87.9l1-12.2l0.2-7.8h-34v72.2
			c7.9,1.1,14.5,1.1,19,0.9c10.5-0.5,13.7-1.7,14.8-2.2c5.3-2.4,7.6-6.3,8.7-8.1c1.6-2.6,2.3-5.1,2.5-7.1l0.1,0.1l0-1.3
			C71.3,121.9,71.3,121.4,71.3,121z"/>
		<path id="XMLID_29125_" class="st5" d="M71.2,125.6c0,0,0.1-0.8,0.1-2c0-0.6,0.1-1.3,0.1-2c0-0.7,0-1.5,0-2.3c0-0.8,0-1.6,0-2.3
			c0-0.7,0-1.4-0.1-2c0-1.2-0.1-2-0.1-2s-0.1,0.8-0.1,2c0,0.6-0.1,1.3-0.1,2c0,0.7,0,1.5,0,2.3c0,0.8,0,1.6,0,2.3c0,0.7,0,1.4,0.1,2
			C71.2,124.8,71.2,125.6,71.2,125.6z"/>
		<path id="XMLID_29124_" class="st8" d="M69,123.1c0,0-0.3-0.1-0.8-0.2c-0.5-0.1-1.1-0.2-1.7-0.2c-0.6,0-1.2,0.1-1.7,0.2
			c-0.5,0.1-0.8,0.2-0.8,0.2s0.3,0.1,0.8,0.2c0.5,0.1,1.1,0.2,1.7,0.2c0.6,0,1.2-0.1,1.7-0.2C68.7,123.2,69,123.1,69,123.1z"/>
		<path id="XMLID_29123_" class="st8" d="M69,114.6c0,0-0.3-0.1-0.8-0.2c-0.5-0.1-1.1-0.2-1.7-0.2c-0.6,0-1.2,0.1-1.7,0.2
			c-0.5,0.1-0.8,0.2-0.8,0.2s0.3,0.1,0.8,0.2c0.5,0.1,1.1,0.2,1.7,0.2c0.6,0,1.2-0.1,1.7-0.2C68.7,114.8,69,114.6,69,114.6z"/>
		<circle id="XMLID_29122_" class="st9" cx="71.2" cy="114.9" r="1.5"/>
		<circle id="XMLID_29121_" class="st9" cx="71.2" cy="123" r="1.5"/>
		<path id="XMLID_29120_" class="st4" d="M27.1,120.8C27.1,120.8,27.1,120.8,27.1,120.8l15.2-3.3c0.2,0,0.3-0.2,0.3-0.4
			c0-0.2-0.2-0.3-0.4-0.3L27,120.1c-0.2,0-0.3,0.2-0.3,0.4C26.8,120.7,26.9,120.8,27.1,120.8z"/>
		<path id="XMLID_29119_" class="st4" d="M115.4,120.5c0.2,0,0.3-0.1,0.4-0.3c0-0.2-0.1-0.4-0.3-0.4l-15.4-3.3
			c-0.2,0-0.4,0.1-0.4,0.3c0,0.2,0.1,0.4,0.3,0.4L115.4,120.5C115.3,120.5,115.3,120.5,115.4,120.5z"/>
		<path id="XMLID_29116_" class="st4" d="M82.5,68h-0.8c-3.8,1.9-7.6,3.9-11.4,5.8l0.7,0.3c6.9,3.5,9.6,4.8,10.6,5.2
			c-0.8,6.1-2.2,13-4.9,20.3c-1.8,4.9-3.6,8.8-5.4,12.6c2.7-3.2,5-6.4,7.8-10.4c4-5.7,7.2-11.2,9.8-16.2l-3.2-3.7l3.7-3.3
			C87.1,75,84.8,71.5,82.5,68z M81.8,77.8c0,0.2-0.1,0.5-0.1,0.7c-1.6-0.7-6.2-3-9.7-4.8l9.8-4.8C81.8,73.2,81.8,76.2,81.8,77.8z"/>
		<polygon id="XMLID_29115_" class="st10" points="72.9,79 74.4,75.8 71.3,74.1 67.8,75.9 69.3,79 		"/>
		<g id="XMLID_29035_">
			<path id="XMLID_29114_" class="st10" d="M75.4,99.7"/>
			<path id="XMLID_29103_" class="st10" d="M74.8,106.9c-1.2,1.7-2.4,3.5-3.5,5.2c-1.4-1.9-2.6-3.7-4-5.6c0.8-9.3,1.4-17.9,2.2-27.1
				l3.3,0C73.5,89,73.8,97.5,74.8,106.9z"/>
		</g>
		<rect id="XMLID_28983_" x="69.2" y="78.9" class="st11" width="3.8" height="0.8"/>
		<path id="XMLID_28346_" class="st11" d="M70.5,74.5v36.5c-1.1-1.5-2.1-2.9-3.2-4.4c0.8-9.2,1.4-17.7,2.2-26.9h-0.3v-0.8h0
			l-1.5-3.1L70.5,74.5z"/>
		<g id="XMLID_90_">
			<polygon id="XMLID_573_" class="st5" points="96.9,85.3 96.9,95.7 103.8,97.6 110.2,95.7 110.2,85.3 			"/>
			<polygon id="XMLID_620_" class="st12" points="96.1,85.3 96.1,94.3 103.1,96.2 109.5,94.3 109.5,85.3 			"/>
		</g>
		<path id="XMLID_28338_" class="st2" d="M108,85.3c-1.2-0.8-5.7-3.2-6.2-3.6c-1.6,1.2-2.7,2.4-4.3,3.6H108z"/>
		<path id="XMLID_28335_" class="st7" d="M63.7,99.9c-0.9-0.8-1.5-2-1.6-3.2c-1.2-1-2-2.4-2-4.3V68h-4.7l-0.8,1.4l0,0
			c-1.9,3.8-3.8,7.7-5.7,11.5l4,2.9l-2.7,4.1c3.2,4.7,7.1,9.7,11.7,14.9c3.2,3.6,6.4,6.8,9.5,9.6c-2.3-3.2-4.7-6.9-6.9-11.2
			C64.2,100.8,64,100.3,63.7,99.9z"/>
		<path id="XMLID_27246_" class="st4" d="M72,73.7c-3.8-1.9-7.6-3.8-11.4-5.8h-0.8c-2.3,3.5-4.6,7-6.9,10.6l3.7,3.3l-3.2,3.7
			c2.6,5,5.8,10.5,9.8,16.2c2.8,4,5.2,7.2,8.1,10.4c-2-3.7-4-7.7-5.8-12.6c-2.6-7.3-4.1-14.2-4.9-20.3c1.1-0.4,3.7-1.7,10.6-5.2
			L72,73.7z M60.6,78.5c0-0.2-0.1-0.5-0.1-0.7c0-1.6,0-4.5,0-8.8l9.8,4.8C66.8,75.5,62.2,77.8,60.6,78.5z"/>
		<path id="XMLID_27242_" class="st13" d="M57,42.5c0,3.2-2.4,5.8-5.4,5.8c-3,0-5.4-2.6-5.4-5.8c0-3.2,2.4-5.8,5.4-5.8
			C54.6,36.8,57,39.3,57,42.5z"/>
		<path id="XMLID_27219_" class="st13" d="M94.8,42.5c0,3.2-2.4,5.8-5.4,5.8c-3,0-5.4-2.6-5.4-5.8c0-3.2,2.4-5.8,5.4-5.8
			C92.4,36.8,94.8,39.3,94.8,42.5z"/>
		<path id="XMLID_26454_" class="st14" d="M27.5,61.5h87.1c-1.4-13.8-10.4-25.6-23.1-31.8l5.4-8.4c0.5-0.7,0.4-1.7-0.3-2.2
			c-0.6-0.4-1.5-0.2-2,0.5L89,28.6c-5.5-2.3-11.7-3.5-18.1-3.5c-6.5,0-12.6,1.4-18.1,3.7L47,20c-0.5-0.7-1.4-1-2-0.5
			c-0.6,0.5-0.7,1.4-0.2,2.2l5.5,8.3C37.7,36.3,29,47.9,27.5,61.5z M89.4,37.3c2.7,0,4.8,2.3,4.9,5.1c0,2.8-2.1,5.1-4.8,5.2
			c-2.7,0-4.8-2.3-4.9-5.1C84.6,39.6,86.7,37.3,89.4,37.3z M52,37.5c2.7,0,4.8,2.3,4.9,5.1c0,2.8-2.1,5.1-4.8,5.2
			c-2.7,0-4.8-2.3-4.9-5.1C47.1,39.8,49.3,37.5,52,37.5z"/>
		<g id="XMLID_23844_">
			<defs>
				<path id="XMLID_26452_" d="M58.8,52.8c0,0,3.2,6.1,11.7,6c8.5-0.1,11.7-6.2,11.7-6.2L58.8,52.8z"/>
			</defs>
			<use xlink:href="#XMLID_26452_"  style="overflow:visible;fill:#FFFFFF;"/>
			<clipPath id="XMLID_3_">
				<use xlink:href="#XMLID_26452_"  style="overflow:visible;"/>
			</clipPath>
			<path id="XMLID_26453_" class="st15" d="M62.6,60.5h16.9c0.3-0.4,0.5-0.9,0.6-1.3c0.1-2.2-4-4.2-9.1-4.4
				c-5.1-0.2-9.3,1.5-9.4,3.7C61.5,59.3,61.9,59.9,62.6,60.5z"/>
		</g>
		<path id="XMLID_23771_" class="st7" d="M58.8,36.4c0,0-6-5.4-14.1,0"/>
		<path id="XMLID_23769_" class="st7" d="M96.3,36.4c0,0-6-5.4-14.1,0"/>
		<g id="XMLID_3627_">
			<g id="XMLID_8424_">
				<g id="XMLID_23352_">
					<path id="XMLID_23353_" class="st16" d="M31.4,88.5l0.9,0.6l2.9,2l17,11.8c0,0,0,0,0,0c0,0,0,0,0,0c0,0,0,0,0,0l3.6,0.8
						c0,0,0,0,0,0c0,0,0,0,0.1,0l0,0l0,0l0,0l0,0c0,0,0,0,0.1,0l0,0c0,0,0,0,0,0c0,0,0,0,0,0c0,0,0,0,0,0c0,0,0,0,0-0.1l0,0
						c0,0,0-0.1,0-0.1c0,0,0-0.1,0-0.1l0,0l-0.7-1l0,0l-1.4-2.1l0,0l0,0c0,0,0,0-0.1-0.1l0,0L34.1,86.5l0,0l-0.9-0.6
						c-0.5-0.4-0.9-0.5-1.3-0.4c-0.1,0-0.1,0-0.2,0c-0.3,0.1-0.6,0.4-0.8,0.8C30.5,86.9,30,87.6,31.4,88.5z M35.2,90.7l-0.7-0.5
						l1.4-2l0.7,0.5L35.2,90.7z M34.4,90.1L34,89.8l1.4-2l0.4,0.3L34.4,90.1z M33.8,89.7l-0.4-0.3l1.4-2l0.4,0.3L33.8,89.7z
						 M33.2,89.3l-0.5-0.4l1.4-2l0.5,0.4L33.2,89.3z"/>
				</g>
				<path id="XMLID_23350_" class="st11" d="M37.3,88.7l-3.1-2.2l0,0l-0.9-0.6c-0.5-0.4-0.9-0.5-1.3-0.4c-0.1,0-0.1,0-0.2,0
					c-0.3,0.1-0.6,0.4-0.8,0.8c-0.4,0.6-0.9,1.3,0.4,2.2l0.9,0.6l2.9,2c0.1,0.1,0.2,0.1,0.3,0.2C35.7,90.9,37,89.1,37.3,88.7z"/>
				<path id="XMLID_23349_" class="st11" d="M54.4,103.5c0.2-0.3,0.4-0.6,0.6-0.9c0.1-0.1,0.2-0.2,0.2-0.3l0,0c0,0,0.8,1.3,0.8,1.3
					c0,0,0,0,0,0.1c0,0,0,0.1,0,0.1c0,0,0,0,0,0.1c0,0,0,0,0,0c0,0,0,0-0.1,0c0,0,0,0,0,0c0,0,0,0,0,0c0,0-0.1,0-0.1,0
					C55.7,103.8,55.4,103.7,54.4,103.5z"/>
				<path id="XMLID_23348_" class="st17" d="M54.6,103.1l0.4-0.5l-1.2-1.9l-0.7,0.1l0.1,0.7c0,0.1-0.1,0.2-0.2,0.2l-0.7,0.1l0.1,0.7
					L54.6,103.1z"/>
				
					<rect id="XMLID_23290_" x="32.4" y="87.8" transform="matrix(0.5709 -0.821 0.821 0.5709 -57.9094 65.4181)" class="st17" width="2.4" height="0.6"/>
				
					<rect id="XMLID_16546_" x="33.1" y="88.3" transform="matrix(0.5713 -0.8208 0.8208 0.5713 -57.9921 66.1108)" class="st17" width="2.4" height="0.4"/>
				
					<rect id="XMLID_16545_" x="33.7" y="88.7" transform="matrix(0.5715 -0.8206 0.8206 0.5715 -58.0679 66.7315)" class="st17" width="2.4" height="0.5"/>
				
					<rect id="XMLID_8442_" x="35.2" y="88.3" transform="matrix(-0.8209 -0.5711 0.5711 -0.8209 13.7016 183.2381)" class="st17" width="0.8" height="2.4"/>
				<g id="XMLID_8441_">
					
						<rect id="XMLID_3675_" x="35.4" y="95.8" transform="matrix(0.8204 0.5718 -0.5718 0.8204 62.8729 -8.3717)" class="st18" width="18.7" height="0.2"/>
				</g>
			</g>
			<path id="XMLID_8371_" class="st10" d="M2.3,98.8c1.1-3.5,4.5-6.2,8.6-6.4l10.3-0.7l0.3-1.9l-10.3,0.6c-4.2,0.2-7.7,3-8.6,6.7
				l-0.1,0.7C2.3,98.1,2.3,98.5,2.3,98.8z"/>
			<polygon id="XMLID_8266_" class="st13" points="37.5,108.5 35.4,90.7 32,90.9 34.1,108.7 			"/>
			<path id="XMLID_8262_" class="st6" d="M31.5,90.9l-4.3,0.3l0,0l-1.9,0.2c0,0-1.3,0.1-1.3,0.1l-0.8,0l-2,0.1l-10.3,0.6
				c-4.1,0.2-7.4,2.9-8.5,6.4c0,0.1-0.1,0.2-0.1,0.4c-0.2,0.8-0.3,1.7-0.3,2.7c0.3,4.9,4.6,8.7,9.8,8.4l0.7,0
				c-0.2,0,1.5-0.1,1.2-0.1l3.5-0.2l0,0l16.6-1.1L31.5,90.9z"/>
			<polygon id="XMLID_8256_" class="st19" points="34.1,108.7 32,90.9 31.5,90.9 33.7,108.8 			"/>
			<path id="XMLID_4148_" class="st6" d="M2.4,97.1c1-3.7,4.4-6.5,8.7-6.7l10.3-0.6L23,78.2c0.7-5.2-2.6-9.9-7.5-10.6
				c-4.7-0.7-9,2.7-10,7.5c-0.1,0.6-0.5,2.5-0.7,5.5L2.4,97.1z M5.5,74.9L5.5,74.9L5.5,74.9L5.5,74.9z"/>
			<circle id="XMLID_4147_" class="st11" cx="29.1" cy="105.8" r="1.3"/>
			<circle id="XMLID_3706_" class="st10" cx="29.5" cy="105.8" r="1.1"/>
			<circle id="XMLID_3704_" class="st13" cx="29.7" cy="105.6" r="0.5"/>
			<circle id="XMLID_3702_" class="st11" cx="22.2" cy="106.5" r="1.3"/>
			<circle id="XMLID_3688_" class="st10" cx="22.6" cy="106.6" r="1.1"/>
			<circle id="XMLID_3680_" class="st13" cx="22.8" cy="106.4" r="0.5"/>
			<path id="XMLID_3629_" class="st14" d="M52.2,98.5c-0.4-4.9-4.8-8.5-10-8.2c0,0,0,0-0.1,0l0,0c0,0,0,0,0,0l-6,0.4l-0.6,0
				l2.1,17.8l0.6,0l5.3-0.4c0.1,0,0.3,0,0.4-0.1c0.1,0,0.2,0,0.3,0C48.9,107.3,52.5,103.2,52.2,98.5z"/>
		</g>
		<path id="XMLID_3451_" class="st10" d="M139.5,98.8c-1.1-3.5-4.5-6.2-8.6-6.4l-10.3-0.7l-0.3-1.9l10.3,0.6c4.2,0.2,7.7,3,8.6,6.7
			l0.1,0.7C139.4,98.1,139.4,98.5,139.5,98.8z"/>
		<polygon id="XMLID_3406_" class="st2" points="104.2,108.5 106.3,90.7 109.7,90.9 107.6,108.7 		"/>
		<path id="XMLID_3157_" class="st6" d="M110.2,90.9l4.3,0.3l0,0l1.9,0.2c0,0,1.3,0.1,1.3,0.1l0.8,0l2,0.1l10.3,0.6
			c4.1,0.2,7.4,2.9,8.5,6.4c0,0.1,0.1,0.2,0.1,0.4c0.2,0.8,0.3,1.7,0.3,2.7c-0.3,4.9-4.6,8.7-9.8,8.4l-0.7,0c0.2,0-1.5-0.1-1.2-0.1
			l-3.5-0.2l0,0l-16.6-1.1L110.2,90.9z"/>
		<polygon id="XMLID_3132_" class="st19" points="107.6,108.7 109.7,90.9 110.2,90.9 108.1,108.8 		"/>
		<path id="XMLID_2686_" class="st6" d="M137,80.6c-0.2-3-0.6-4.9-0.7-5.5c-1-4.8-5.4-8.2-10-7.5c-4.9,0.7-8.3,5.4-7.5,10.6
			l1.6,11.6l10.3,0.6c4.2,0.2,7.6,3,8.7,6.7L137,80.6z M136.2,74.9L136.2,74.9L136.2,74.9L136.2,74.9z"/>
		<circle id="XMLID_1619_" class="st11" cx="112.6" cy="105.8" r="1.3"/>
		<circle id="XMLID_1615_" class="st10" cx="112.2" cy="105.8" r="1.1"/>
		<circle id="XMLID_895_" class="st13" cx="112" cy="105.6" r="0.5"/>
		<circle id="XMLID_789_" class="st11" cx="119.5" cy="106.5" r="1.3"/>
		<circle id="XMLID_749_" class="st10" cx="119.2" cy="106.6" r="1.1"/>
		<circle id="XMLID_666_" class="st13" cx="119" cy="106.4" r="0.5"/>
		<path id="XMLID_548_" class="st14" d="M89.6,98.5c0.4-4.9,4.8-8.5,10-8.2c0,0,0,0,0.1,0l0,0c0,0,0,0,0,0l6,0.4l0.6,0l-2.1,17.8
			l-0.6,0l-5.3-0.4c-0.1,0-0.3,0-0.4-0.1c-0.1,0-0.2,0-0.3,0C92.8,107.3,89.2,103.2,89.6,98.5z"/>
		<rect id="XMLID_464_" x="-13.6" y="113.3" class="st20" width="171.7" height="29.9"/>
		<rect id="XMLID_427_" x="-16.8" y="107" class="st11" width="178.1" height="6.4"/>
	</g>
</g>
</svg>
