<?xml version="1.0" encoding="utf-8"?>
<!-- Generator: Adobe Illustrator 19.0.0, SVG Export Plug-In . SVG Version: 6.00 Build 0)  -->
<svg version="1.1" id="Calque_1" xmlns="http://www.w3.org/2000/svg" xmlns:xlink="http://www.w3.org/1999/xlink" x="0px" y="0px"
	 viewBox="0 0 180 180" style="enable-background:new 0 0 180 180;" xml:space="preserve">
<style type="text/css">
	.st0{fill:#F0EFEE;}
	.st1{opacity:0.2;fill:#FFFFFF;enable-background:new    ;}
	.st2{opacity:0.9;fill:#FFFFFF;enable-background:new    ;}
	.st3{opacity:0.4;}
	.st4{fill:#B2B2B2;}
	.st5{fill:#8F1442;}
	.st6{fill:#FFFFFF;}
	.st7{opacity:0.5;fill:#B2B2B2;enable-background:new    ;}
	.st8{fill:#C91456;}
	.st9{opacity:0.2;fill:#3D3D3D;enable-background:new    ;}
	.st10{fill:#E72261;}
	.st11{opacity:0.3;fill:#010202;enable-background:new    ;}
	.st12{fill:#161616;}
	.st13{fill:none;}
</style>
<g id="XMLID_36488_">
	<g id="XMLID_39177_">
		<circle id="SVGID_162_" class="st0" cx="90.1" cy="90" r="89"/>
	</g>
	<g id="XMLID_39174_">
		<path id="XMLID_39176_" class="st1" d="M94,27.3c-0.7-0.2-1.5-0.3-2.3-0.3l-0.3,0c-1.7-3.6-5.4-6.1-9.6-6.1
			c-3.5,0-6.6,1.7-8.6,4.3c-0.7-0.8-1.7-1.3-2.8-1.3c-1.9,0-3.4,1.3-3.7,3.1c-0.3,0-0.6,0-0.8,0c-1.3,0-2.5,0.3-3.6,0.8
			c-2.8,1.3-4.8,4.2-4.8,7.6c0,4.6,3.7,8.4,8.4,8.4h25.9c4.6,0,8.4-3.8,8.4-8.4C100.1,31.5,97.5,28.3,94,27.3z"/>
		<path id="XMLID_39175_" class="st2" d="M74.6,39.3c-0.7-0.2-1.5-0.3-2.3-0.3l-0.3,0c-1.7-3.6-5.4-6.1-9.6-6.1
			c-3.5,0-6.6,1.7-8.6,4.3C53.2,36.5,52.2,36,51,36c-1.9,0-3.4,1.3-3.7,3.1c-0.3,0-0.6,0-0.8,0c-1.3,0-2.5,0.3-3.6,0.8
			c-2.8,1.3-4.8,4.2-4.8,7.6c0,4.6,3.7,8.4,8.4,8.4h25.9c4.6,0,8.4-3.7,8.4-8.4C80.7,43.5,78.1,40.3,74.6,39.3z"/>
	</g>
	<g id="XMLID_39171_">
		<path id="XMLID_39173_" class="st1" d="M77.8,130.5c0.7-0.2,1.5-0.3,2.3-0.3l0.3,0c1.7-3.6,5.4-6.1,9.6-6.1c3.5,0,6.6,1.7,8.6,4.3
			c0.7-0.8,1.7-1.3,2.8-1.3c1.9,0,3.4,1.3,3.7,3.1c0.3,0,0.6,0,0.8,0c1.3,0,2.5,0.3,3.6,0.8c2.8,1.3,4.8,4.2,4.8,7.6
			c0,4.6-3.7,8.4-8.4,8.4H80.1c-4.6,0-8.4-3.8-8.4-8.4C71.7,134.7,74.3,131.5,77.8,130.5z"/>
		<path id="XMLID_39172_" class="st2" d="M97.2,142.5c0.7-0.2,1.5-0.3,2.3-0.3l0.3,0c1.7-3.6,5.4-6.1,9.6-6.1c3.5,0,6.6,1.7,8.6,4.3
			c0.7-0.8,1.7-1.3,2.8-1.3c1.9,0,3.4,1.3,3.7,3.1c0.3,0,0.6,0,0.8,0c1.3,0,2.5,0.3,3.6,0.8c2.8,1.3,4.8,4.2,4.8,7.6
			c0,4.6-3.7,8.4-8.4,8.4H99.5c-4.6,0-8.4-3.7-8.4-8.4C91.1,146.7,93.7,143.5,97.2,142.5z"/>
	</g>
	<g id="XMLID_36520_" class="st3">
		<polygon id="XMLID_39168_" class="st4" points="114.7,58.2 14.7,56.5 114.7,54.8 		"/>
		<polygon id="XMLID_39165_" class="st4" points="115,66.3 15,64.6 115,62.9 		"/>
		<polygon id="XMLID_6_" class="st4" points="126.4,71.8 23.3,73.5 126.4,75.2 		"/>
		<polygon id="XMLID_7_" class="st4" points="126.4,79.6 23.3,81.3 126.4,83 		"/>
		<polygon id="XMLID_8_" class="st4" points="126.4,88.9 33.7,90.5 126.4,92.1 		"/>
		<polygon id="XMLID_9_" class="st4" points="126.4,97.5 32.8,99.2 126.4,100.8 		"/>
		<polygon id="XMLID_10_" class="st4" points="126.4,113.7 49.3,115.4 126.4,117 		"/>
		<polygon id="XMLID_11_" class="st4" points="126.4,131.3 71.8,132.7 126.4,134.1 		"/>
		<polygon id="XMLID_12_" class="st4" points="126.4,105.9 39.5,107.5 126.4,109.1 		"/>
		<polygon id="XMLID_13_" class="st4" points="126.4,123 59.9,124.5 126.4,126.1 		"/>
		<polygon id="XMLID_14_" class="st4" points="126.4,140.3 79.6,141.5 126.4,142.8 		"/>
	</g>
	<g id="XMLID_36491_">
		<g id="XMLID_36510_">
			<path id="XMLID_36519_" class="st5" d="M148.4,102.6L85.8,70.9c-0.7-0.4-1.7-0.1-2.1,0.7l-19.7,38.8c-0.4,0.8-0.1,1.7,0.7,2.1
				l62.6,31.7c0.8,0.4,1.7,0.1,2.1-0.7l19.7-38.8C149.5,103.9,149.2,103,148.4,102.6z"/>
			<path id="XMLID_36518_" class="st6" d="M94.5,55.5l-28.3,55.8c-0.4,0.8-0.1,1.7,0.7,2.1l58.5,29.7c0.8,0.4,1.7,0.1,2.1-0.7
				l33.1-65.3c0.4-0.8,0.1-1.7-0.7-2.1l-49-24.8L94.5,55.5z"/>
			<path id="XMLID_36517_" class="st7" d="M98.9,105.8l48.8-3.5l-2.4,4.8l-38.9,2.5L98.9,105.8z"/>
			<path id="XMLID_36516_" class="st8" d="M64.1,110.3c-0.4,0.8-0.1,1.7,0.7,2.1l62.6,31.7c0.7,0.4,1.7,0.1,2.1-0.7l19.3-38.1
				l-42.7,3.2L83.4,72.2L64.1,110.3z"/>
			<path id="XMLID_36515_" class="st9" d="M94.4,55.5l10.9,5.5l5.5-10.9L94.4,55.5z"/>
			<path id="XMLID_36514_" class="st10" d="M83.4,72.2L64.8,109l41.3-0.5L83.4,72.2z"/>
			<polygon id="XMLID_36513_" class="st8" points="148.7,105.3 106.1,108.5 130.1,142.1 			"/>
			<path id="XMLID_36512_" class="st11" d="M129.4,143.4l0.7-1.4l-24-33.6l22.4,35.7C128.8,144.1,129.2,143.9,129.4,143.4
				L129.4,143.4z"/>
			<path id="XMLID_36511_" class="st11" d="M64.1,110.3l0.7-1.4l41.3-0.5l-42,3.1C63.9,111.2,63.9,110.7,64.1,110.3L64.1,110.3z"/>
		</g>
		<g id="XMLID_36508_" class="st3">
			<path id="XMLID_36509_" class="st12" d="M137.9,88.9c-0.2,0-0.3,0-0.5-0.1l-14-6.5c-0.6-0.3-0.8-0.9-0.5-1.5
				c0.3-0.5,0.9-0.8,1.5-0.5l14,6.5c0.6,0.3,0.8,0.9,0.5,1.5C138.7,88.7,138.3,88.9,137.9,88.9z"/>
		</g>
		<g id="XMLID_36506_" class="st3">
			<path id="XMLID_36507_" class="st12" d="M136,94.3c-0.2,0-0.3,0-0.5-0.1l-14-6.5c-0.6-0.3-0.8-0.9-0.5-1.5
				c0.3-0.5,0.9-0.8,1.5-0.5l14,6.5c0.6,0.3,0.8,0.9,0.5,1.5C136.8,94.1,136.4,94.3,136,94.3z"/>
		</g>
		<g id="XMLID_36504_" class="st3">
			<path id="XMLID_36505_" class="st12" d="M133.6,99.6c-0.2,0-0.3,0-0.5-0.1l-14-6.5c-0.6-0.3-0.8-0.9-0.5-1.5
				c0.3-0.5,0.9-0.8,1.5-0.5l14,6.5c0.6,0.3,0.8,0.9,0.5,1.5C134.5,99.4,134.1,99.6,133.6,99.6z"/>
		</g>
		<g id="XMLID_36497_" class="st3">
			<g id="XMLID_36498_">
				<path id="XMLID_36499_" class="st12" d="M107.5,72.8c0.2-0.1,0.4-0.1,0.6-0.1c0.2,0,0.4,0,0.7,0c0.2,0,0.5,0,0.7,0.1
					c0.3,0.1,0.5,0.2,0.8,0.3c0.4,0.2,0.7,0.4,0.9,0.6c0.2,0.2,0.4,0.5,0.6,0.8c0.1,0.3,0.2,0.6,0.2,0.9c0,0.3-0.1,0.6-0.2,1
					c-0.2,0.3-0.3,0.6-0.5,0.8c-0.2,0.2-0.4,0.3-0.6,0.4c-0.2,0.1-0.4,0.2-0.7,0.2c-0.2,0-0.4,0.1-0.6,0.1c-0.2,0-0.4,0.1-0.5,0.1
					c-0.2,0.1-0.3,0.1-0.4,0.3l-0.6,0.8l-1-0.5l0.4-1.1c0,0,0,0,0-0.1c0,0,0,0,0-0.1c0.1-0.2,0.2-0.3,0.4-0.4
					c0.2-0.1,0.3-0.2,0.5-0.2c0.2-0.1,0.4-0.1,0.6-0.1c0.2,0,0.4-0.1,0.6-0.2c0.2-0.1,0.4-0.2,0.6-0.3c0.2-0.1,0.3-0.3,0.4-0.5
					c0.1-0.1,0.1-0.3,0.1-0.4c0-0.1,0-0.3-0.1-0.4c-0.1-0.1-0.1-0.3-0.3-0.4c-0.1-0.1-0.3-0.2-0.4-0.3c-0.2-0.1-0.4-0.2-0.6-0.2
					c-0.2,0-0.4,0-0.5,0c-0.1,0-0.3,0-0.4,0c-0.1,0-0.2,0-0.2,0c-0.1-0.1-0.2-0.2-0.2-0.3L107.5,72.8z M105.1,80.6
					c0.1-0.1,0.1-0.2,0.2-0.3c0.1-0.1,0.2-0.2,0.3-0.2c0.1,0,0.3-0.1,0.4-0.1c0.1,0,0.3,0,0.4,0.1c0.1,0.1,0.2,0.1,0.3,0.2
					c0.1,0.1,0.2,0.2,0.2,0.3c0,0.1,0.1,0.3,0.1,0.4c0,0.1,0,0.3-0.1,0.4c-0.1,0.1-0.1,0.2-0.3,0.3c-0.1,0.1-0.2,0.2-0.3,0.2
					c-0.1,0-0.3,0.1-0.4,0.1c-0.1,0-0.3,0-0.4-0.1c-0.1-0.1-0.2-0.1-0.3-0.2c-0.1-0.1-0.2-0.2-0.2-0.3c0-0.1-0.1-0.3-0.1-0.4
					C105,80.9,105.1,80.8,105.1,80.6z"/>
			</g>
		</g>
		<g id="XMLID_36493_" class="st3">
			<path id="XMLID_36494_" class="st12" d="M111.5,91.3l-16.2-7.8l9.1-18.8l16.2,7.8L111.5,91.3z M97,82.9l13.9,6.7l8-16.5L105,66.3
				L97,82.9z"/>
		</g>
	</g>
	<circle id="XMLID_36489_" class="st13" cx="90.1" cy="90" r="89"/>
</g>
</svg>
