<?xml version="1.0" encoding="utf-8"?>
<!-- Generator: Adobe Illustrator 19.0.0, SVG Export Plug-In . SVG Version: 6.00 Build 0)  -->
<svg version="1.1" id="Calque_1" xmlns="http://www.w3.org/2000/svg" xmlns:xlink="http://www.w3.org/1999/xlink" x="0px" y="0px"
	 viewBox="0 0 90 90" style="enable-background:new 0 0 90 90;" xml:space="preserve">
<style type="text/css">
	.st0{fill:#EFEEED;}
	.st1{clip-path:url(#XMLID_2_);}
	.st2{opacity:0.2;}
	.st3{fill:#3D3D3C;}
	.st4{fill:none;}
	.st5{opacity:0.8;fill:#AEAEAF;enable-background:new    ;}
	.st6{fill:#5F5F5F;}
	.st7{fill:#DCDCDC;}
	.st8{opacity:0.6;fill:#C1C0C0;enable-background:new    ;}
	.st9{opacity:0.8;}
	.st10{fill:#C1C0C0;}
	.st11{fill:#2B2C2C;}
	.st12{fill:#E32462;}
	.st13{clip-path:url(#XMLID_3_);fill:#F7F6F5;}
</style>
<g id="XMLID_47213_">
	<g id="XMLID_57389_">
		<path id="SVGID_182_" class="st0" d="M90,45c0,24.9-20.1,45-45,45C20.1,90,0,69.9,0,45C0,20.1,20.1,0,45,0C69.9,0,90,20.1,90,45z"
			/>
	</g>
	<g id="XMLID_47217_">
		<defs>
			<circle id="XMLID_47218_" cx="45" cy="45" r="45"/>
		</defs>
		<clipPath id="XMLID_2_">
			<use xlink:href="#XMLID_47218_"  style="overflow:visible;"/>
		</clipPath>
		<g id="XMLID_47219_" class="st1">
			<g id="XMLID_57385_" class="st2">
				<path id="XMLID_57386_" class="st3" d="M65.8,56.8c0.3-0.1,0.7-0.1,1.1-0.2c0.4,0,0.8,0,1.2,0c0.4,0,0.8,0.1,1.2,0.3
					c0.4,0.1,0.8,0.3,1.3,0.6c0.6,0.3,1.1,0.7,1.5,1.1c0.4,0.4,0.7,0.9,0.9,1.4c0.2,0.5,0.2,1,0.2,1.5c0,0.5-0.2,1.1-0.5,1.6
					c-0.3,0.5-0.6,0.9-1,1.2c-0.4,0.3-0.7,0.5-1.1,0.7c-0.4,0.2-0.8,0.3-1.1,0.3c-0.4,0.1-0.7,0.1-1.1,0.2c-0.3,0-0.6,0.1-0.9,0.2
					c-0.3,0.1-0.5,0.2-0.6,0.4l-1.1,1.4l-1.7-1l0.7-1.8c0,0,0-0.1,0-0.1c0,0,0-0.1,0-0.1c0.2-0.3,0.4-0.5,0.7-0.7
					c0.3-0.1,0.6-0.2,0.9-0.3c0.3-0.1,0.7-0.1,1-0.2c0.4,0,0.7-0.1,1.1-0.2c0.3-0.1,0.7-0.2,1-0.4c0.3-0.2,0.6-0.5,0.8-0.8
					c0.1-0.2,0.2-0.5,0.2-0.7c0-0.2,0-0.5-0.1-0.7c-0.1-0.2-0.2-0.4-0.4-0.6c-0.2-0.2-0.4-0.4-0.7-0.5c-0.4-0.2-0.7-0.4-1.1-0.4
					c-0.3-0.1-0.6-0.1-0.8-0.1c-0.2,0-0.5,0-0.6,0c-0.2,0-0.3,0-0.4-0.1c-0.2-0.1-0.4-0.3-0.4-0.6L65.8,56.8z M61.1,69.9
					c0.1-0.2,0.3-0.4,0.4-0.5c0.2-0.1,0.4-0.3,0.6-0.3c0.2-0.1,0.4-0.1,0.7-0.1c0.2,0,0.5,0.1,0.7,0.2c0.2,0.1,0.4,0.3,0.5,0.5
					c0.1,0.2,0.2,0.4,0.3,0.6c0.1,0.2,0.1,0.4,0.1,0.7c0,0.2-0.1,0.5-0.2,0.7c-0.1,0.2-0.3,0.4-0.5,0.5c-0.2,0.1-0.4,0.2-0.6,0.3
					c-0.2,0.1-0.4,0.1-0.7,0c-0.2,0-0.5-0.1-0.7-0.2c-0.2-0.1-0.4-0.3-0.5-0.5c-0.1-0.2-0.3-0.4-0.3-0.6c-0.1-0.2-0.1-0.4-0.1-0.7
					C60.9,70.3,61,70.1,61.1,69.9z"/>
			</g>
			<g id="XMLID_57381_" class="st2">
				<path id="XMLID_57382_" class="st3" d="M16.1,51.4c0.1-0.3,0.2-0.5,0.4-0.8c0.1-0.3,0.3-0.5,0.5-0.7c0.2-0.2,0.4-0.5,0.7-0.7
					c0.3-0.2,0.6-0.4,0.9-0.6c0.5-0.2,0.9-0.4,1.4-0.5c0.4-0.1,0.9-0.1,1.3,0c0.4,0.1,0.8,0.3,1.1,0.5c0.3,0.3,0.6,0.6,0.8,1
					c0.2,0.4,0.3,0.8,0.4,1.1c0,0.4,0,0.7,0,1c-0.1,0.3-0.2,0.6-0.3,0.9c-0.1,0.3-0.2,0.5-0.4,0.8c-0.1,0.2-0.2,0.5-0.3,0.7
					c-0.1,0.2-0.1,0.4,0,0.6l0.4,1.3l-1.3,0.7l-0.8-1.2c0,0,0,0,0-0.1c0,0,0,0,0-0.1c-0.1-0.2-0.2-0.5-0.1-0.7
					c0-0.2,0.1-0.5,0.2-0.7c0.1-0.2,0.2-0.5,0.3-0.7c0.1-0.2,0.2-0.5,0.3-0.8c0.1-0.3,0.1-0.5,0.1-0.8c0-0.3-0.1-0.6-0.2-0.8
					c-0.1-0.2-0.2-0.3-0.4-0.5c-0.2-0.1-0.3-0.2-0.5-0.2c-0.2,0-0.4,0-0.6,0c-0.2,0-0.4,0.1-0.6,0.2c-0.3,0.2-0.5,0.3-0.7,0.5
					c-0.2,0.2-0.3,0.3-0.4,0.5c-0.1,0.2-0.2,0.3-0.3,0.4c-0.1,0.1-0.1,0.2-0.2,0.2c-0.2,0.1-0.4,0.1-0.5,0L16.1,51.4z M22.5,60
					c-0.1-0.2-0.1-0.3-0.2-0.5c0-0.2,0-0.4,0.1-0.5c0.1-0.2,0.1-0.3,0.3-0.5c0.1-0.1,0.3-0.3,0.4-0.3c0.2-0.1,0.3-0.1,0.5-0.2
					c0.2,0,0.4,0,0.5,0.1c0.2,0.1,0.3,0.1,0.5,0.2c0.1,0.1,0.3,0.3,0.3,0.4c0.1,0.2,0.1,0.3,0.2,0.5c0,0.2,0,0.4-0.1,0.5
					c0,0.2-0.1,0.3-0.2,0.5c-0.1,0.1-0.3,0.3-0.4,0.3c-0.2,0.1-0.3,0.1-0.5,0.2c-0.2,0-0.4,0-0.5,0c-0.2,0-0.3-0.1-0.5-0.2
					C22.7,60.4,22.6,60.2,22.5,60z"/>
			</g>
			<path id="XMLID_57380_" class="st4" d="M48.6,36.4c2.7-0.6,4.5-2.8,4.5-5.5c0-2.6-1.7-4.9-4.3-5.5c-2.5-0.6-5,0.4-6.3,2.7
				c-1.2,2.2-0.9,4.9,0.9,6.7c0.7,0.7,1.5,1.4,1.5,2.5c0,0.4,0,0.7-0.1,1c0.1,0,0.2,0,0.3,0.1C45.6,37.2,47,36.8,48.6,36.4z"/>
			<path id="XMLID_55793_" class="st5" d="M50.1,59.1c-0.1-0.2-0.1-0.4,0.1-0.6c0.7-0.9,1-1.9,1.1-3c0.1-1.7-0.4-3.2-1.5-4.5
				c-0.1,0.1-0.1,0.2-0.2,0.2c-1.4,1.6-3.1,2.7-5.2,3.1c-1,0.2-1.9-0.4-2.1-1.4c-0.2-1,0.4-1.9,1.4-2.1c0.3-0.1,0.5-0.1,0.8-0.2
				c0.9-0.3,1.6-0.8,2.2-1.5c-0.1,0-0.2-0.1-0.3-0.1c-2.7-0.6-5.6,0.9-6.7,3.4c-1.6,3.5,0.3,7.5,4.1,8.5c0.1,0,0.3,0.2,0.4,0.3
				c0.4,1.1,0.8,2.2,1.3,3.4c0.1,0.2,0.2,0.3,0.4,0.4c0.6,0.3,1.3,0.6,1.9,0.9c-0.3,0.8-0.7,1.5-1,2.2c0.8,0.4,1.5,0.7,2.2,1
				c-0.3,0.8-0.7,1.5-1,2.2c0.8,0.4,1.5,0.7,2.2,1c-0.3,0.7-0.6,1.3-0.9,2c1.3,0.6,2.6,1.2,3.8,1.8c0.1-0.1,0.1-0.1,0.1-0.2
				c0.6-1.2,1.1-2.4,1.7-3.6c0.1-0.1,0-0.4,0-0.5C53.2,67.6,51.7,63.4,50.1,59.1z"/>
			<path id="XMLID_55792_" class="st5" d="M41,61c-0.7-0.5-1.3-1.1-1.8-1.8c-1.9-2.8-1.7-6.6,0.6-9c0.4-0.4,0.8-0.7,1.2-1.1
				c-0.2,0-0.3-0.1-0.5-0.1c-2.3-0.3-4.5,0.8-5.6,2.7c-1.1,2.2-0.8,4.6,0.9,6.3c0.2,0.2,0.2,0.4,0.2,0.6c-0.2,1-0.4,2-0.5,3
				c0,0.2,0,0.4,0.1,0.5c0.3,0.5,0.7,1,1,1.5c-0.6,0.4-1.2,0.8-1.8,1.2c0.4,0.6,0.8,1.2,1.2,1.8c-0.6,0.4-1.2,0.8-1.8,1.2
				c0.4,0.6,0.8,1.2,1.2,1.8c-0.5,0.4-1.1,0.7-1.6,1.1c0.7,1,1.4,2,2.1,3.1c1.1-0.7,2.1-1.4,3.1-2.2c0.1-0.1,0.1-0.2,0.2-0.3
				c0.6-3.3,1.2-6.6,1.8-9.9C41.3,61.2,41.2,61.1,41,61z"/>
			<path id="XMLID_55789_" class="st6" d="M39.3,38.9c-2.4,1.2-4.1,3.7-4.2,6.7c0,1.1,0.2,2.2,0.7,3.2c0.3-0.2,0.7-0.4,1-0.6
				c-0.1-0.1-0.1-0.3-0.1-0.4c-0.9-2.3-0.3-5.1,1.5-6.8c0.6-0.6,1.3-1,2-1.3c0,0,0,0,0,0C39.9,39.5,39.6,39.2,39.3,38.9z"/>
			<path id="XMLID_47231_" class="st6" d="M48.3,42.4c1.2,2,1.2,4.7-0.2,6.7c-1,1.5-2.3,2.4-4.1,2.8c-0.5,0.1-0.7,0.4-0.7,0.8
				c0.1,0.4,0.4,0.5,0.9,0.4c2.2-0.5,4-1.8,5.1-3.8c1.3-2.3,1.2-5,0.1-7.2c0,0-0.1,0-0.1,0C49.2,42.2,48.8,42.3,48.3,42.4z"/>
			<path id="XMLID_47230_" class="st6" d="M45.1,38.4c-0.1,0-0.2-0.1-0.3-0.1c-0.1,0.4-0.3,0.8-0.6,1.1c0.2,0.1,0.4,0.1,0.6,0.2
				c0-0.1,0-0.2,0-0.4C45,38.9,45,38.7,45.1,38.4z"/>
			<g id="XMLID_47220_">
				<path id="XMLID_47229_" class="st7" d="M37.2,26.2c-1.4,2.8-1.6,4.1-0.8,7.3c0.5,2.1,1.5,3.9,3,5.4c1.7-0.9,3.6-1.1,5.5-0.6
					c0.1-0.3,0.1-0.6,0.1-1c0-1.1-0.8-1.8-1.5-2.5c-1.8-1.8-2.1-4.5-0.9-6.7c1.3-2.2,3.8-3.3,6.3-2.7c2.6,0.7,4.3,2.9,4.3,5.5
					c0,2.7-1.9,4.9-4.5,5.5c-1.6,0.4-3,0.8-3.5,2c0.3,0.1,0.7,0.2,1,0.4c1.5,0.8,2.7,1.9,3.4,3.3c2.6-0.5,5-1.7,6.6-3.9
					c3.1-4,6.1-8.1,9.2-12.1c0.4-0.5,0.7-0.6,1.3-0.6c2.1,0,2.9,0,5,0V10.2c-5.1,0-9,0-14.2,0c-9.3,0-18.7,0-28,0
					c-1.7,0-2.8,1-2.8,2.6c0,1.5,1.1,2.5,2.8,2.5c0.5,0,1,0,1.5,0c-0.3,0.2-0.5,0.4-0.8,0.5c-3.4,1.2-6.9,2.4-10.3,3.6
					c-0.5,0.2-1.1,0.5-1.5,0.9c-0.9,0.8-1,2.2-0.4,3.2c0.6,1,1.9,1.6,3.1,1.2c2.6-0.9,5.1-1.8,7.6-2.7c1.6-0.5,3.1-1.1,4.7-1.6
					c-0.2,0.3-0.4,0.4-0.6,0.6c-4.4,2.9-8.8,5.7-13.2,8.6c-0.4,0.3-0.9,0.6-1.2,0.9c-1,1.1-1,2.7-0.1,3.8c1,1.2,2.6,1.4,3.9,0.6
					c2.7-1.7,7.6-5.1,10.3-6.7"/>
				<path id="XMLID_47228_" class="st8" d="M57.4,19.3c-5.8,1.6-11.8,2.9-17.2,5.5c-1,0.5-2,0.9-3,1.4c-1,2.3-1.8,3.4-0.8,7.3
					c0.6,2.1,1.5,3.9,3,5.4c1.7-0.9,3.6-1.1,5.5-0.6c0.1-0.3,0.1-0.6,0.1-1c0-1.1-0.8-1.8-1.5-2.5c-1.8-1.8-2.1-4.5-0.9-6.7
					c1.3-2.2,3.8-3.3,6.3-2.7c2.6,0.7,4.3,2.9,4.3,5.5c0,2.7-1.9,4.9-4.5,5.5c-1.6,0.4-3,0.8-3.5,2c0.3,0.1,0.7,0.2,1,0.4
					c1.5,0.8,2.7,1.9,3.4,3.3c2.6-0.5,5-1.7,6.6-3.9c3.1-4,6.1-8.1,9.2-12.1c0.4-0.5,0.7-0.6,1.3-0.6c2.1,0,2.9,0,5,0V15.2
					C66.9,16.5,62.2,18,57.4,19.3z"/>
				<g id="XMLID_47224_" class="st9">
					<path id="XMLID_47227_" class="st10" d="M44.9,39.6c0,1.9,1.4,2.6,1.4,2.6c0.6,0.3,1.4,0.3,2,0.2c-0.3-0.4-0.6-0.9-0.9-1.2
						C46.7,40.5,45.8,40,44.9,39.6z"/>
					<path id="XMLID_47226_" class="st10" d="M40.3,39.8c0.9,0.8,2,0.9,3.1,0.3c0.4-0.2,0.6-0.4,0.9-0.7
						C43,39.1,41.6,39.2,40.3,39.8z"/>
					<path id="XMLID_47225_" class="st10" d="M46.1,38.8c-0.3-0.2-0.7-0.3-1-0.4c-0.1,0.2-0.2,0.5-0.2,0.9c0,0.1,0,0.2,0,0.4
						c0.9,0.3,1.7,0.8,2.4,1.5c0.4,0.4,0.7,0.8,0.9,1.2c0.5-0.1,0.9-0.2,1.1-0.2c0,0,0.1,0,0.1,0C48.8,40.8,47.7,39.6,46.1,38.8z"/>
				</g>
				<path id="XMLID_47223_" class="st6" d="M39.3,38.9c0.3,0.3,0.6,0.6,0.9,0.8c0,0,0,0,0,0c1.3-0.5,2.7-0.7,4-0.3
					c0.3-0.3,0.5-0.7,0.6-1.1C43,37.8,41,38,39.3,38.9z"/>
				<path id="XMLID_47222_" class="st11" d="M74.6,9.8c-1.4,0-2.7,0-3.9,0v16.1c1.2,0,2.4,0,3.9,0V9.8z"/>
				<path id="XMLID_47221_" class="st12" d="M91.3,9c-0.4,0-0.7,0-1.1,0c-5.6,0-10.9,0-16.1,0v17.8c4.1,0,11,0,17.2,0L91.3,9L91.3,9
					z"/>
			</g>
		</g>
	</g>
	<g id="XMLID_47214_">
		<defs>
			<circle id="XMLID_47215_" cx="45" cy="45" r="45"/>
		</defs>
		<clipPath id="XMLID_3_">
			<use xlink:href="#XMLID_47215_"  style="overflow:visible;"/>
		</clipPath>
		<path id="XMLID_47216_" class="st13" d="M80.5,23.4c0,0.8-0.7,1.5-1.5,1.5c-0.8,0-1.5-0.7-1.5-1.5c0-0.8,0.7-1.5,1.5-1.5
			C79.8,21.9,80.5,22.5,80.5,23.4z"/>
	</g>
</g>
</svg>
