<?xml version="1.0" encoding="utf-8"?>
<!-- Generator: Adobe Illustrator 19.0.0, SVG Export Plug-In . SVG Version: 6.00 Build 0)  -->
<svg version="1.1" id="Calque_1" xmlns="http://www.w3.org/2000/svg" xmlns:xlink="http://www.w3.org/1999/xlink" x="0px" y="0px"
	 viewBox="0 0 250 250" style="enable-background:new 0 0 250 250;" xml:space="preserve">
<style type="text/css">
	.st0{fill:#FFFFFF;}
	.st1{opacity:0.5;fill-rule:evenodd;clip-rule:evenodd;fill:#D9D9D9;}
	.st2{opacity:0.6;fill-rule:evenodd;clip-rule:evenodd;fill:#D9D9D9;}
	.st3{opacity:0.2;fill:#C5C5C4;}
	.st4{opacity:0.5;fill:#C5C5C4;}
	.st5{opacity:0.5;fill:#5C5C5C;enable-background:new    ;}
	.st6{fill:#E62461;}
	.st7{fill:#413F3E;}
	.st8{fill:none;}
	.st9{fill:#7C7E7E;}
	.st10{opacity:0.1;fill:#767676;enable-background:new    ;}
	.st11{fill:#E52463;}
	.st12{opacity:0.4;fill:#B2B2B2;}
	.st13{opacity:0.4;fill:#FFFFFF;}
	.st14{opacity:0.6;fill:#E52463;}
	.st15{opacity:0.4;fill:#E52463;}
	.st16{opacity:0.5;fill:#848685;}
	.st17{fill:#B9B9B9;}
	.st18{opacity:0.7;fill:#8F8C8D;enable-background:new    ;}
	.st19{opacity:0.4;}
	.st20{fill:#333333;}
	.st21{fill:#5F5F5E;}
	.st22{fill:#808080;}
	.st23{fill:#1D1D1D;}
	.st24{fill:#EFEFEF;}
	.st25{fill:#6B6B6B;}
	.st26{fill:#CDCBCB;}
</style>
<g id="XMLID_20380_">
	<circle id="XMLID_28742_" class="st0" cx="124" cy="125.6" r="107.5"/>
	<g id="XMLID_5339_">
		<path id="XMLID_20378_" class="st1" d="M170,58.2h-8.8c0.2-0.4,0.3-0.8,0.3-1.3c0-1.7-1.3-3-3-3h-31.3c-1.7,0-3,1.3-3,3
			c0,1.6,1.2,2.9,2.8,3c-0.4,0.5-0.6,1.1-0.6,1.8c0,0.4,0.1,0.9,0.3,1.3h-1.5c-1.7,0-3,1.3-3,3c0,0.2,0,0.3,0,0.5h-3.8
			c-1.7,0-3,1.3-3,3c0,1.7,1.3,3,3,3h31.3c1.7,0,3-1.3,3-3c0-0.2,0-0.3,0-0.5h3.8c1.7,0,3-1.3,3-3c0-0.4-0.1-0.9-0.3-1.2h1.5
			c0.6,0,1.2-0.2,1.7-0.5h7.6c1.7,0,3-1.3,3-3C173,59.5,171.6,58.2,170,58.2z"/>
		<path id="XMLID_20377_" class="st2" d="M47.2,117.8h8.8c-0.2-0.4-0.3-0.8-0.3-1.3c0-1.7,1.3-3,3-3h31.3c1.7,0,3,1.3,3,3
			c0,1.6-1.2,2.9-2.8,3c0.4,0.5,0.6,1.1,0.6,1.8c0,0.4-0.1,0.9-0.3,1.3h1.5c1.7,0,3,1.3,3,3c0,0.2,0,0.3,0,0.5h3.8c1.7,0,3,1.3,3,3
			c0,1.7-1.3,3-3,3H67.4c-1.7,0-3-1.3-3-3c0-0.2,0-0.3,0-0.5h-3.8c-1.7,0-3-1.3-3-3c0-0.4,0.1-0.9,0.3-1.2h-1.5
			c-0.6,0-1.2-0.2-1.7-0.5h-7.6c-1.7,0-3-1.3-3-3C44.2,119.1,45.5,117.8,47.2,117.8z"/>
		<path id="XMLID_20367_" class="st3" d="M96.4,71.4c-0.7-0.2-1.4-0.3-2.2-0.3l-0.3,0c-1.7-3.5-5.2-5.9-9.4-5.9
			c-3.4,0-6.5,1.7-8.3,4.2c-0.7-0.8-1.7-1.3-2.8-1.3c-1.8,0-3.3,1.3-3.6,3c-0.3,0-0.5,0-0.8,0c-1.3,0-2.4,0.3-3.5,0.8
			c-2.7,1.3-4.6,4.1-4.6,7.3c0,4.5,3.6,8.2,8.2,8.2h25.2c4.5,0,8.1-3.7,8.1-8.2C102.3,75.5,99.8,72.4,96.4,71.4z"/>
		<path id="XMLID_20366_" class="st4" d="M171.7,87.8c-0.7-0.2-1.5-0.3-2.2-0.3l-0.3,0c-1.7-3.6-5.3-6-9.5-6c-3.5,0-6.6,1.7-8.5,4.3
			c-0.7-0.8-1.7-1.3-2.8-1.3c-1.8,0-3.4,1.3-3.7,3.1c-0.3,0-0.5,0-0.8,0c-1.3,0-2.5,0.3-3.6,0.8c-2.8,1.3-4.7,4.2-4.7,7.5
			c0,4.6,3.7,8.3,8.3,8.3h25.6c4.6,0,8.3-3.7,8.3-8.3C177.8,92,175.2,88.8,171.7,87.8z"/>
		<g id="XMLID_18972_">
			<path id="XMLID_20342_" class="st5" d="M123.5,52c-7.7,0-14,6.5-14,14.5c0,8,6.3,14.5,14,14.5c7.7,0,14-6.5,14-14.5
				C137.6,58.5,131.3,52,123.5,52z"/>
			<g id="XMLID_18974_">
				<path id="XMLID_20341_" class="st0" d="M135.6,65.1c0,7.2-5.9,13.1-13.1,13.1c-7.2,0-13.1-5.9-13.1-13.1
					c0-7.2,5.9-13.1,13.1-13.1C129.7,52,135.6,57.8,135.6,65.1z"/>
				<g id="XMLID_20339_">
					<path id="XMLID_20340_" class="st6" d="M122.7,64.1c-0.1,0-0.2,0-0.2-0.1c-0.2-0.1-0.3-0.4-0.2-0.7l3.1-5.4
						c0.1-0.2,0.4-0.3,0.7-0.2c0.2,0.1,0.3,0.4,0.2,0.7l-1.7,3.1l-1.3,2.3C123,64,122.8,64.1,122.7,64.1z"/>
				</g>
				<g id="XMLID_20337_">
					<path id="XMLID_20338_" class="st6" d="M128.5,72.4c-0.1,0-0.3,0-0.3-0.1l-5.8-6.1c-0.2-0.2-0.2-0.5,0-0.7
						c0.2-0.2,0.5-0.2,0.7,0l5.8,6.1c0.2,0.2,0.2,0.5,0,0.7C128.7,72.4,128.6,72.4,128.5,72.4z"/>
				</g>
				<g id="XMLID_20280_">
					<path id="XMLID_20335_" class="st7" d="M124.6,65.1c0,1.1-0.9,2.1-2.1,2.1c-1.1,0-2.1-0.9-2.1-2.1c0-1.1,0.9-2.1,2.1-2.1
						C123.6,63,124.6,63.9,124.6,65.1z"/>
					<path id="XMLID_20281_" class="st0" d="M122.5,67.3c-1.2,0-2.3-1-2.3-2.3c0-1.2,1-2.3,2.3-2.3c1.2,0,2.3,1,2.3,2.3
						C124.8,66.3,123.7,67.3,122.5,67.3z M122.5,63.2c-1,0-1.9,0.8-1.9,1.9c0,1,0.8,1.9,1.9,1.9c1,0,1.9-0.8,1.9-1.9
						C124.4,64,123.5,63.2,122.5,63.2z"/>
				</g>
				<path id="XMLID_20278_" class="st0" d="M123.2,65.1c0,0.4-0.3,0.7-0.7,0.7c-0.4,0-0.7-0.3-0.7-0.7c0-0.4,0.3-0.7,0.7-0.7
					C122.9,64.4,123.2,64.7,123.2,65.1z"/>
				<path id="XMLID_20277_" class="st8" d="M110.4,64.5h1.4c0.2,0,0.4,0.2,0.4,0.4c0,0.2-0.2,0.4-0.4,0.4h-1.4
					c0.1,6.5,5.4,11.8,11.9,11.9v-1.4c0-0.2,0.2-0.4,0.4-0.4c0.2,0,0.4,0.2,0.4,0.4v1.4c0.8,0,1.5-0.1,2.2-0.3
					c1.3-2.9,2.1-6,2.1-9.3c0-4.9-1.7-9.5-4.4-13.3c-0.1,0.1-0.2,0.1-0.3,0.1c-0.2,0-0.4-0.2-0.4-0.4v-0.6c-0.1-0.2-0.3-0.3-0.4-0.5
					C115.7,53.3,110.7,58.3,110.4,64.5z"/>
				<path id="XMLID_20275_" class="st6" d="M135.5,70.3c-0.1,0.2-0.2,0.4-0.3,0.6C135.4,70.7,135.4,70.5,135.5,70.3z"/>
				<path id="XMLID_20273_" class="st6" d="M129.9,77c-0.3,0.2-0.6,0.4-0.9,0.5C129.3,77.3,129.6,77.2,129.9,77z"/>
				<path id="XMLID_20272_" class="st6" d="M134.3,72.6c-0.1,0.2-0.3,0.4-0.4,0.6C134.1,73,134.2,72.8,134.3,72.6z"/>
				<path id="XMLID_20271_" class="st6" d="M135,71.5c-0.1,0.2-0.2,0.4-0.3,0.6C134.8,71.9,134.9,71.7,135,71.5z"/>
				<path id="XMLID_20265_" class="st6" d="M136.5,66.4c0,0.2,0,0.3-0.1,0.5C136.4,66.8,136.5,66.6,136.5,66.4z"/>
				<path id="XMLID_20264_" class="st6" d="M136,69.1c-0.1,0.2-0.1,0.4-0.2,0.6C135.8,69.5,135.9,69.3,136,69.1z"/>
				<path id="XMLID_20263_" class="st6" d="M136.3,67.8c0,0.2-0.1,0.4-0.1,0.5C136.2,68.2,136.3,68,136.3,67.8z"/>
				<path id="XMLID_20261_" class="st9" d="M122.7,54.4c0.1,0,0.2-0.1,0.3-0.1c-0.2-0.3-0.4-0.5-0.6-0.8V54
					C122.3,54.2,122.5,54.4,122.7,54.4z"/>
				<path id="XMLID_20260_" class="st9" d="M123,77.2v-1.4c0-0.2-0.2-0.4-0.4-0.4c-0.2,0-0.4,0.2-0.4,0.4v1.4
					c-6.5-0.1-11.8-5.4-11.9-11.9h1.4c0.2,0,0.4-0.2,0.4-0.4c0-0.2-0.2-0.4-0.4-0.4h-1.4c0.3-6.3,5.3-11.3,11.5-11.6
					c-0.5-0.6-1.1-1.2-1.7-1.8c0.4-0.1,0.7-0.1,1.1-0.1c-7.2,0.6-12.9,6.6-12.9,14c0,7.8,6.3,14.1,14.1,14.1c0.6,0,1.1,0,1.6-0.1
					c0.4-0.7,0.8-1.4,1.1-2.2C124.6,77,123.8,77.1,123,77.2z"/>
				<path id="XMLID_20259_" class="st6" d="M132.8,74.7c-0.2,0.2-0.3,0.4-0.5,0.5C132.4,75,132.6,74.8,132.8,74.7z"/>
				<path id="XMLID_20258_" class="st6" d="M131.9,75.5c-0.2,0.2-0.4,0.4-0.6,0.5C131.4,75.9,131.6,75.7,131.9,75.5z"/>
				<path id="XMLID_20257_" class="st6" d="M130.9,76.3c-0.2,0.2-0.5,0.4-0.7,0.5C130.4,76.7,130.7,76.5,130.9,76.3z"/>
				<path id="XMLID_20253_" class="st6" d="M133.6,73.7c-0.1,0.2-0.3,0.4-0.5,0.6C133.3,74.1,133.4,73.9,133.6,73.7z"/>
				<path id="XMLID_19192_" class="st10" d="M121.3,51.1c0.4,0,0.8-0.1,1.2-0.1C122.1,51,121.7,51,121.3,51.1z"/>
				<path id="XMLID_19191_" class="st10" d="M130.2,76.8c-0.1,0.1-0.2,0.1-0.3,0.2C130,76.9,130.1,76.9,130.2,76.8z"/>
				<path id="XMLID_19182_" class="st10" d="M136.6,65.1c0,0.5,0,0.9-0.1,1.4C136.5,66,136.6,65.5,136.6,65.1z"/>
				<path id="XMLID_19181_" class="st10" d="M131.2,76.1c-0.1,0.1-0.2,0.2-0.3,0.3C131,76.2,131.1,76.2,131.2,76.1z"/>
				<path id="XMLID_19169_" class="st10" d="M132.2,75.2c-0.1,0.1-0.2,0.2-0.4,0.3C132,75.4,132.1,75.3,132.2,75.2z"/>
				<path id="XMLID_19114_" class="st10" d="M136.4,66.9c0,0.3-0.1,0.6-0.1,0.9C136.3,67.5,136.4,67.2,136.4,66.9z"/>
				<path id="XMLID_19113_" class="st10" d="M133.9,73.2c-0.1,0.2-0.2,0.3-0.4,0.5C133.7,73.5,133.8,73.4,133.9,73.2z"/>
				<path id="XMLID_19112_" class="st10" d="M133.1,74.2c-0.1,0.1-0.2,0.3-0.4,0.4C132.9,74.5,133,74.4,133.1,74.2z"/>
				<path id="XMLID_19096_" class="st10" d="M125.3,76.9c5.3-1.2,9.3-6,9.3-11.6h-1.1c-0.2,0-0.4-0.2-0.4-0.4c0-0.2,0.2-0.4,0.4-0.4
					h1c-0.3-6.3-5.3-11.3-11.6-11.6V54c0,0.1,0,0.2-0.1,0.2c2.8,3.7,4.4,8.3,4.4,13.3C127.4,70.8,126.6,74,125.3,76.9z"/>
				<path id="XMLID_19095_" class="st10" d="M122.3,52.9c-0.1,0-0.3,0-0.4,0c0.1,0.2,0.3,0.3,0.4,0.5V52.9z"/>
				<path id="XMLID_19075_" class="st10" d="M136.2,68.3c-0.1,0.3-0.1,0.5-0.2,0.8C136,68.8,136.1,68.6,136.2,68.3z"/>
				<path id="XMLID_19072_" class="st10" d="M134.7,72.1c-0.1,0.2-0.2,0.4-0.3,0.5C134.4,72.5,134.5,72.3,134.7,72.1z"/>
				<path id="XMLID_19041_" class="st10" d="M135.8,69.7c-0.1,0.2-0.2,0.5-0.2,0.7C135.6,70.1,135.7,69.9,135.8,69.7z"/>
				<path id="XMLID_19040_" class="st10" d="M135.3,70.9c-0.1,0.2-0.2,0.4-0.3,0.6C135.1,71.3,135.2,71.1,135.3,70.9z"/>
				<path id="XMLID_18975_" class="st7" d="M133.1,74.2c0.2-0.2,0.3-0.4,0.5-0.6c0.1-0.2,0.2-0.3,0.4-0.5c0.1-0.2,0.3-0.4,0.4-0.6
					c0.1-0.2,0.2-0.4,0.3-0.5c0.1-0.2,0.2-0.4,0.3-0.6c0.1-0.2,0.2-0.4,0.3-0.6c0.1-0.2,0.2-0.4,0.3-0.6c0.1-0.2,0.2-0.5,0.2-0.7
					c0.1-0.2,0.1-0.4,0.2-0.6c0.1-0.3,0.1-0.5,0.2-0.8c0-0.2,0.1-0.4,0.1-0.5c0.1-0.3,0.1-0.6,0.1-0.9c0-0.2,0-0.3,0.1-0.5
					c0-0.5,0.1-0.9,0.1-1.4c0-7.8-6.3-14.1-14.1-14.1c-0.4,0-0.8,0-1.2,0.1c-0.4,0-0.7,0.1-1.1,0.1c0.6,0.6,1.1,1.1,1.7,1.8
					c0.1,0,0.3,0,0.4,0v0.5c0.2,0.3,0.4,0.5,0.6,0.8c0.1-0.1,0.1-0.1,0.1-0.2V53c6.3,0.3,11.3,5.3,11.6,11.6h-1
					c-0.2,0-0.4,0.2-0.4,0.4s0.2,0.4,0.4,0.4h1.1c-0.1,5.6-4.1,10.4-9.3,11.6c-0.3,0.7-0.7,1.5-1.1,2.2c0,0,0,0,0.1,0
					c1.7-0.2,3.3-0.7,4.8-1.5c0,0,0,0,0,0c0.3-0.2,0.6-0.3,0.9-0.5c0.1-0.1,0.2-0.1,0.3-0.2c0.2-0.2,0.5-0.3,0.7-0.5
					c0.1-0.1,0.2-0.2,0.3-0.3c0.2-0.2,0.4-0.3,0.6-0.5c0.1-0.1,0.2-0.2,0.4-0.3c0.2-0.2,0.4-0.4,0.5-0.5
					C132.9,74.5,133,74.4,133.1,74.2z"/>
			</g>
		</g>
		<g id="XMLID_18040_">
			<polygon id="XMLID_18041_" class="st11" points="182.3,85.5 182.4,85.8 182.7,85.8 182.4,86 182.5,86.3 182.3,86.1 182,86.3 
				182.1,86 181.8,85.8 182.2,85.8 			"/>
		</g>
		<g id="XMLID_18025_">
			<polygon id="XMLID_18039_" class="st11" points="162.9,34.9 163.3,36 164.4,36 163.5,36.7 163.8,37.7 162.9,37.1 162,37.7 
				162.4,36.7 161.4,36 162.6,36 			"/>
		</g>
		<g id="XMLID_18022_">
			<polygon id="XMLID_18023_" class="st11" points="98.4,102.3 98.7,103.1 99.5,103.1 98.8,103.6 99.1,104.4 98.4,103.9 97.7,104.4 
				98,103.6 97.3,103.1 98.1,103.1 			"/>
		</g>
		<g id="XMLID_17960_">
			<polygon id="XMLID_17969_" class="st11" points="62,92.4 62.3,93.4 63.3,93.4 62.5,93.9 62.8,94.9 62,94.3 61.2,94.9 61.5,93.9 
				60.7,93.4 61.7,93.4 			"/>
		</g>
		<circle id="XMLID_17959_" class="st12" cx="128.9" cy="27.1" r="1.3"/>
		<circle id="XMLID_17937_" class="st12" cx="84.5" cy="92.4" r="1.3"/>
		<circle id="XMLID_17934_" class="st12" cx="130.6" cy="111.8" r="1.3"/>
		<circle id="XMLID_17933_" class="st13" cx="97.9" cy="90.7" r="0.6"/>
		<circle id="XMLID_17932_" class="st13" cx="160.1" cy="79.7" r="0.6"/>
		<circle id="XMLID_17928_" class="st13" cx="155.3" cy="90.6" r="0.6"/>
		<circle id="XMLID_17927_" class="st13" cx="85.5" cy="80.6" r="0.6"/>
		<circle id="XMLID_17924_" class="st13" cx="82.7" cy="56" r="0.6"/>
		<circle id="XMLID_17801_" class="st13" cx="75.3" cy="65.1" r="0.6"/>
		<circle id="XMLID_17800_" class="st13" cx="158.5" cy="50.1" r="0.6"/>
		<circle id="XMLID_17796_" class="st13" cx="160" cy="61.2" r="0.6"/>
		<circle id="XMLID_17278_" class="st13" cx="131.7" cy="99.5" r="0.6"/>
		<circle id="XMLID_17277_" class="st13" cx="139.1" cy="107.8" r="0.6"/>
		<circle id="XMLID_17276_" class="st13" cx="166.8" cy="106.8" r="0.6"/>
		<circle id="XMLID_17275_" class="st13" cx="116.2" cy="32.8" r="0.6"/>
		<circle id="XMLID_17274_" class="st13" cx="138.3" cy="32.6" r="0.6"/>
		<circle id="XMLID_17273_" class="st13" cx="75.5" cy="51.9" r="0.6"/>
		<circle id="XMLID_17272_" class="st13" cx="85.3" cy="51.1" r="0.6"/>
		<circle id="XMLID_17261_" class="st13" cx="89.9" cy="56.1" r="0.6"/>
		<circle id="XMLID_17247_" class="st13" cx="112.8" cy="38" r="0.6"/>
		<circle id="XMLID_17246_" class="st13" cx="55" cy="69.1" r="0.6"/>
		<circle id="XMLID_17245_" class="st13" cx="166.6" cy="36.3" r="0.6"/>
		<circle id="XMLID_17244_" class="st13" cx="181.6" cy="44.5" r="0.6"/>
		<circle id="XMLID_17243_" class="st13" cx="127.8" cy="106.5" r="0.6"/>
		<circle id="XMLID_17242_" class="st13" cx="113.9" cy="108.1" r="0.6"/>
		<circle id="XMLID_17241_" class="st13" cx="90.8" cy="72.3" r="0.6"/>
		<circle id="XMLID_17240_" class="st13" cx="95.1" cy="54" r="0.6"/>
		<circle id="XMLID_17239_" class="st13" cx="101.2" cy="43.5" r="0.6"/>
		<circle id="XMLID_17238_" class="st13" cx="150.3" cy="44.4" r="0.6"/>
		<circle id="XMLID_17236_" class="st13" cx="169.3" cy="59.8" r="0.6"/>
		<circle id="XMLID_17235_" class="st13" cx="179.6" cy="54.5" r="0.6"/>
		<circle id="XMLID_17220_" class="st13" cx="177.9" cy="76.8" r="0.6"/>
		<circle id="XMLID_17219_" class="st13" cx="98.6" cy="97.2" r="0.6"/>
		<circle id="XMLID_17218_" class="st13" cx="69.4" cy="115.3" r="0.6"/>
		<circle id="XMLID_17217_" class="st13" cx="88.4" cy="104.2" r="0.6"/>
		<circle id="XMLID_17216_" class="st13" cx="68.5" cy="87.5" r="0.6"/>
		<circle id="XMLID_17215_" class="st13" cx="184.7" cy="64.6" r="0.6"/>
		<circle id="XMLID_17214_" class="st13" cx="185" cy="77.7" r="0.6"/>
		<circle id="XMLID_17213_" class="st12" cx="190.5" cy="84.6" r="1.3"/>
		<g id="XMLID_14732_">
			<path id="XMLID_17211_" class="st11" d="M44.5,46l0.7,1.2c0.2,0.4,0.3,0.8,0.3,1.2L44,67.2l9.4-5.6l1.6,2.7l-13.8,8.1l-0.8-1.3
				c-0.1-0.2-0.2-0.3-0.2-0.5c0-0.2,0-0.4,0-0.6l1.5-18.7l-9.1,5.4L31.1,54L44.5,46z"/>
			<path id="XMLID_17209_" class="st11" d="M60.3,47.6c0.2,0.2,0.3,0.3,0.4,0.5c0.1,0.2,0.2,0.4,0.2,0.6l1.8,10.4l4.5-4.9l1.8,1.7
				L62,63.6l-1-0.9c-0.1-0.1-0.2-0.2-0.3-0.4c-0.1-0.2-0.2-0.4-0.2-0.6l-1.9-10.6l-4.4,4.8l-1.8-1.7l7-7.5L60.3,47.6z"/>
			<path id="XMLID_16635_" class="st14" d="M78.6,43.6c0.1,0.2,0.1,0.4,0.1,0.7c0,0.2-0.1,0.4-0.1,0.6l-3.8,9.9l6.4-1.8l0.7,2.4
				l-10,2.9l-0.4-1.3c0-0.1-0.1-0.3,0-0.5c0-0.2,0.1-0.4,0.2-0.7l3.9-10l-6.3,1.8l-0.7-2.4l9.8-2.8L78.6,43.6z"/>
			<path id="XMLID_14738_" class="st15" d="M89.3,43.2c0.1,0.1,0.1,0.2,0.1,0.4c0,0.1,0,0.3,0,0.4l-0.7,6.4l3.5-2.1l0.8,1.3
				l-5.5,3.3l-0.4-0.7c0-0.1-0.1-0.2-0.1-0.3c0-0.1,0-0.3,0-0.4l0.7-6.5L84.3,47l-0.8-1.3l5.4-3.2L89.3,43.2z"/>
			<path id="XMLID_14733_" class="st15" d="M98.2,40.3c0.1,0.1,0.1,0.2,0.1,0.4c0,0.1,0,0.3,0,0.4l-0.6,6.5l3.5-2.1l0.8,1.3L96.6,50
				l-0.4-0.7c0-0.1-0.1-0.2-0.1-0.3c0-0.1,0-0.3,0-0.4l0.6-6.5l-3.4,2.1l-0.8-1.3l5.3-3.3L98.2,40.3z"/>
		</g>
		<g id="XMLID_5340_">
			<ellipse id="XMLID_14731_" class="st16" cx="128.5" cy="191.5" rx="34.2" ry="3.5"/>
			<g id="XMLID_13911_">
				<path id="XMLID_14729_" class="st17" d="M144.2,182.7c-1.2-3.1-0.9-8.7-1-11.9h-27.9c-0.1,3.2,0.2,8.8-1,11.9
					c-0.8,2-6.3,6.6-7.2,7.4h44.4C150.5,189.3,145,184.7,144.2,182.7z"/>
				<path id="XMLID_14727_" class="st18" d="M135.1,179.8c3.1,0.8,6.1,1.7,9.1,2.8c-1.1-3.1-0.9-8.6-1-11.8h-27.9c0,1.4,0,4.5-0.1,6
					C121.9,177.3,128.7,178.2,135.1,179.8z"/>
				<rect id="XMLID_13912_" x="107" y="190.1" class="st0" width="44.5" height="1.5"/>
			</g>
			<g id="XMLID_6810_" class="st19">
				<polygon id="XMLID_12666_" class="st20" points="162.7,208.2 90.5,208.1 95.5,198.4 159.1,198.4 				"/>
				<polygon id="XMLID_12665_" class="st21" points="162.8,207.8 90.4,207.9 95.5,198.1 159.1,198.1 				"/>
				<g id="XMLID_8728_">
					<g id="XMLID_9763_">
						<rect id="XMLID_12664_" x="103.3" y="200" class="st20" width="4.1" height="1.6"/>
						<rect id="XMLID_12650_" x="108.9" y="200" class="st20" width="4.1" height="1.6"/>
						<rect id="XMLID_12649_" x="114.6" y="200" class="st20" width="4.1" height="1.6"/>
						<rect id="XMLID_12648_" x="120.2" y="200" class="st20" width="4.1" height="1.6"/>
						<rect id="XMLID_12480_" x="125.8" y="200" class="st20" width="4.1" height="1.6"/>
						<rect id="XMLID_12479_" x="131.4" y="200" class="st20" width="4.1" height="1.6"/>
						<rect id="XMLID_12478_" x="137" y="200" class="st20" width="4.1" height="1.6"/>
						<rect id="XMLID_12477_" x="142.6" y="200" class="st20" width="4.1" height="1.6"/>
						<rect id="XMLID_10045_" x="148.2" y="200" class="st20" width="4.1" height="1.6"/>
					</g>
					<g id="XMLID_9193_">
						<rect id="XMLID_9694_" x="103.3" y="202.2" class="st20" width="4.1" height="1.6"/>
						<rect id="XMLID_9693_" x="108.9" y="202.2" class="st20" width="4.1" height="1.6"/>
						<rect id="XMLID_9449_" x="114.6" y="202.2" class="st20" width="4.1" height="1.6"/>
						<rect id="XMLID_9444_" x="120.2" y="202.2" class="st20" width="4.1" height="1.6"/>
						<rect id="XMLID_9442_" x="125.8" y="202.2" class="st20" width="4.1" height="1.6"/>
						<rect id="XMLID_9440_" x="131.4" y="202.2" class="st20" width="4.1" height="1.6"/>
						<rect id="XMLID_9436_" x="137" y="202.2" class="st20" width="4.1" height="1.6"/>
						<rect id="XMLID_9364_" x="142.6" y="202.2" class="st20" width="4.1" height="1.6"/>
						<rect id="XMLID_9363_" x="148.2" y="202.2" class="st20" width="4.1" height="1.6"/>
					</g>
					<g id="XMLID_8731_">
						<rect id="XMLID_8866_" x="103.3" y="204.3" class="st20" width="4.1" height="1.6"/>
						<polygon id="XMLID_8847_" class="st20" points="133.8,204.3 131.4,204.3 108.9,204.3 108.9,205.9 131.4,205.9 133.8,205.9 
							135.4,205.9 135.4,204.3 						"/>
						<rect id="XMLID_8760_" x="137" y="204.3" class="st20" width="4.1" height="1.6"/>
						<rect id="XMLID_8749_" x="142.6" y="204.3" class="st20" width="4.1" height="1.6"/>
						<rect id="XMLID_8746_" x="148.2" y="204.3" class="st20" width="4.1" height="1.6"/>
					</g>
				</g>
				<g id="XMLID_6812_">
					<rect id="XMLID_8726_" x="103.3" y="200.1" class="st22" width="4.1" height="1.6"/>
					<rect id="XMLID_8725_" x="108.9" y="200.1" class="st22" width="4.1" height="1.6"/>
					<rect id="XMLID_8696_" x="114.6" y="200.1" class="st22" width="4.1" height="1.6"/>
					<rect id="XMLID_8589_" x="120.2" y="200.1" class="st22" width="4.1" height="1.6"/>
					<rect id="XMLID_8560_" x="125.8" y="200.1" class="st22" width="4.1" height="1.6"/>
					<rect id="XMLID_8555_" x="131.4" y="200.1" class="st22" width="4.1" height="1.6"/>
					<rect id="XMLID_8403_" x="137" y="200.1" class="st22" width="4.1" height="1.6"/>
					<rect id="XMLID_8400_" x="142.6" y="200.1" class="st22" width="4.1" height="1.6"/>
					<rect id="XMLID_7880_" x="148.2" y="200.1" class="st22" width="4.1" height="1.6"/>
					<rect id="XMLID_7879_" x="103.4" y="202.2" class="st22" width="4.1" height="1.6"/>
					<rect id="XMLID_7489_" x="108.9" y="202.2" class="st22" width="4.1" height="1.6"/>
					<rect id="XMLID_7478_" x="114.6" y="202.2" class="st22" width="4.1" height="1.6"/>
					<rect id="XMLID_7471_" x="120.2" y="202.2" class="st22" width="4.1" height="1.6"/>
					<rect id="XMLID_7465_" x="125.8" y="202.2" class="st22" width="4.1" height="1.6"/>
					<rect id="XMLID_7464_" x="131.4" y="202.2" class="st22" width="4.1" height="1.6"/>
					<rect id="XMLID_7252_" x="137" y="202.2" class="st22" width="4.1" height="1.6"/>
					<rect id="XMLID_7195_" x="142.6" y="202.2" class="st22" width="4.1" height="1.6"/>
					<rect id="XMLID_7194_" x="148.2" y="202.2" class="st22" width="4.1" height="1.6"/>
					<rect id="XMLID_7193_" x="103.3" y="204.4" class="st22" width="4.1" height="1.6"/>
					<polygon id="XMLID_7192_" class="st22" points="133.8,204.4 131.4,204.4 108.9,204.4 108.9,205.9 131.4,205.9 133.8,205.9 
						135.4,205.9 135.4,204.4 					"/>
					<rect id="XMLID_6821_" x="137" y="204.4" class="st22" width="4.1" height="1.6"/>
					<rect id="XMLID_6816_" x="142.6" y="204.4" class="st22" width="4.1" height="1.6"/>
					<rect id="XMLID_6813_" x="148.2" y="204.4" class="st22" width="4.1" height="1.6"/>
				</g>
				<rect id="XMLID_6811_" x="90.4" y="207.8" class="st23" width="72.3" height="1.6"/>
			</g>
			<g id="XMLID_6807_">
				<path id="XMLID_6808_" class="st7" d="M166.8,203.1c-2.8,0-5.3-0.2-5.9-0.3l-0.4-1.1c3.2,0.3,12.2,0.7,14.1-1
					c0.2-0.2,0.3-0.4,0.3-0.5c0-2.8-11.5-5.6-14.1-5.7c-3.3-0.1-5.9-1.4-5.9-2.9c0-0.9,1-2.1,5.7-2.1c3.8,0,6.4,0.3,8.2,0.5
					c1.3,0.2,2.3,0.3,2.6,0.1c0.1-0.1,0.3-0.4,0.2-0.9c-0.4-1.4-2.9-2.8-8.8-2.7c-3.1,0.1-5.2-0.6-6.3-2c-1.6-2-0.8-5-0.1-7.7
					c0.2-1,0.5-1.9,0.6-2.7l1,0.1c-0.1,0.9-0.4,1.8-0.6,2.8c-0.6,2.5-1.3,5.2-0.1,6.8c0.9,1.1,2.7,1.6,5.4,1.6
					c7.9-0.2,9.5,2.3,9.8,3.4c0.3,1-0.1,1.8-0.6,2.1c-0.6,0.4-1.6,0.2-3.3,0c-1.7-0.2-4.4-0.5-8.1-0.5c-3.8,0-4.7,0.8-4.7,1.1
					c0,0.6,1.9,1.8,4.9,1.9c2.3,0.1,15,2.8,15,6.7c0,0.5-0.2,0.9-0.6,1.3C173.9,202.8,170.1,203.1,166.8,203.1z"/>
			</g>
			<rect id="XMLID_6673_" x="75.5" y="90.6" class="st24" width="106.7" height="66.8"/>
			<path id="XMLID_6653_" class="st24" d="M70,170.4c0,2.2,1.9,4.1,4.1,4.1h110.1c2.2,0,4-1.9,4-4.1v-9.3H70V170.4z"/>
			<path id="XMLID_6570_" class="st7" d="M184.1,88.4H74.1c-2.2,0-4.1,1.7-4.1,3.9v68.8h118.1V92.3
				C188.1,90.1,186.4,88.4,184.1,88.4z M131.3,90.9c0.3,0,0.5,0.2,0.5,0.5c0,0.3-0.2,0.5-0.5,0.5s-0.5-0.2-0.5-0.5
				C130.8,91.1,131,90.9,131.3,90.9z M182.3,155.4H75.5V94.2h106.7V155.4L182.3,155.4z"/>
			<rect id="XMLID_6569_" x="75.5" y="94.2" class="st25" width="106.7" height="6.4"/>
			<g id="XMLID_5494_">
				<path id="XMLID_6516_" class="st0" d="M80.3,97.9c-0.1,0.1-0.2,0.2-0.3,0.3c-0.1,0.1-0.3,0.1-0.6,0.1c-0.3,0-0.5-0.1-0.7-0.3
					s-0.3-0.4-0.3-0.7v-0.5c0-0.3,0.1-0.5,0.3-0.7c0.2-0.2,0.4-0.3,0.7-0.3c0.3,0,0.5,0.1,0.7,0.2c0.2,0.1,0.2,0.3,0.2,0.5l0,0H80
					c0-0.1-0.1-0.3-0.2-0.4S79.6,96,79.4,96c-0.2,0-0.3,0.1-0.5,0.2c-0.1,0.1-0.2,0.3-0.2,0.5v0.5c0,0.2,0.1,0.4,0.2,0.5
					c0.1,0.1,0.3,0.2,0.5,0.2c0.1,0,0.3,0,0.3-0.1s0.2-0.1,0.2-0.1v-0.6h-0.5V97h0.9V97.9z"/>
				<path id="XMLID_6425_" class="st0" d="M81.6,98.3c-0.3,0-0.5-0.1-0.6-0.3s-0.2-0.4-0.2-0.7v-0.1c0-0.3,0.1-0.5,0.2-0.7
					c0.2-0.2,0.3-0.3,0.6-0.3c0.2,0,0.4,0.1,0.6,0.2c0.1,0.2,0.2,0.4,0.2,0.6v0.2h-1.2l0,0c0,0.2,0,0.3,0.1,0.4
					c0.1,0.1,0.2,0.2,0.4,0.2c0.1,0,0.2,0,0.3,0c0.1,0,0.2-0.1,0.2-0.1l0.1,0.2c-0.1,0.1-0.2,0.1-0.3,0.2
					C81.9,98.3,81.8,98.3,81.6,98.3z M81.6,96.7c-0.1,0-0.2,0-0.3,0.1c-0.1,0.1-0.1,0.2-0.1,0.4l0,0H82v0c0-0.1,0-0.2-0.1-0.3
					C81.8,96.7,81.7,96.7,81.6,96.7z"/>
				<path id="XMLID_6343_" class="st0" d="M83,96.4l0,0.3c0.1-0.1,0.1-0.2,0.2-0.2c0.1-0.1,0.2-0.1,0.3-0.1c0.2,0,0.4,0.1,0.5,0.2
					s0.2,0.3,0.2,0.5v1.2h-0.3v-1.2c0-0.2,0-0.3-0.1-0.3c-0.1-0.1-0.2-0.1-0.3-0.1c-0.1,0-0.2,0-0.3,0.1c-0.1,0-0.1,0.1-0.2,0.2v1.4
					h-0.3v-1.9H83z"/>
				<path id="XMLID_6308_" class="st0" d="M85.3,97.6l0.1,0.2h0l0.5-1.4h0.4l-0.8,2.1c0,0.1-0.1,0.2-0.2,0.3C85.1,99,85,99,84.8,99
					c0,0-0.1,0-0.1,0c0,0-0.1,0-0.1,0l0-0.3c0,0,0,0,0.1,0s0.1,0,0.1,0c0.1,0,0.1,0,0.2-0.1c0-0.1,0.1-0.1,0.1-0.2l0.1-0.2l-0.7-1.8
					h0.4L85.3,97.6z"/>
				<path id="XMLID_6129_" class="st0" d="M86.8,96.4l0,0.2c0.1-0.1,0.1-0.2,0.2-0.2c0.1,0,0.2-0.1,0.3-0.1s0.2,0,0.3,0.1
					s0.2,0.1,0.2,0.3c0.1-0.1,0.1-0.2,0.2-0.2c0.1-0.1,0.2-0.1,0.3-0.1c0.2,0,0.3,0.1,0.4,0.2s0.2,0.3,0.2,0.6v1.1h-0.3v-1.1
					c0-0.2,0-0.3-0.1-0.4c-0.1-0.1-0.2-0.1-0.3-0.1c-0.1,0-0.2,0-0.3,0.1c-0.1,0.1-0.1,0.2-0.1,0.3v0v1.2h-0.3v-1.1
					c0-0.2,0-0.3-0.1-0.4s-0.2-0.1-0.3-0.1c-0.1,0-0.2,0-0.3,0.1c-0.1,0-0.1,0.1-0.2,0.2v1.4h-0.3v-1.9H86.8z"/>
				<path id="XMLID_6098_" class="st0" d="M89.4,97.3c0-0.3,0.1-0.5,0.2-0.7c0.1-0.2,0.3-0.3,0.6-0.3c0.3,0,0.5,0.1,0.6,0.3
					c0.1,0.2,0.2,0.4,0.2,0.7v0c0,0.3-0.1,0.5-0.2,0.7c-0.1,0.2-0.4,0.3-0.6,0.3s-0.5-0.1-0.6-0.3C89.5,97.9,89.4,97.6,89.4,97.3
					L89.4,97.3z M89.8,97.4c0,0.2,0,0.4,0.1,0.5C90,98,90.1,98,90.3,98c0.2,0,0.3-0.1,0.4-0.2c0.1-0.1,0.1-0.3,0.1-0.5v0
					c0-0.2,0-0.4-0.1-0.5c-0.1-0.1-0.2-0.2-0.4-0.2c-0.2,0-0.3,0.1-0.4,0.2C89.8,97,89.8,97.1,89.8,97.4L89.8,97.4z"/>
				<path id="XMLID_6077_" class="st0" d="M92,96v0.4h0.4v0.2H92v1.1c0,0.1,0,0.1,0.1,0.2c0,0,0.1,0.1,0.1,0.1c0,0,0,0,0.1,0
					c0,0,0,0,0.1,0l0,0.2c0,0-0.1,0-0.1,0.1c0,0-0.1,0-0.1,0c-0.1,0-0.2,0-0.3-0.1c-0.1-0.1-0.1-0.2-0.1-0.4v-1.1h-0.3v-0.2h0.3V96
					H92z"/>
				<path id="XMLID_5785_" class="st0" d="M93.1,95.9h-0.3v-0.3h0.3V95.9z M93.1,98.3h-0.3v-1.9h0.3V98.3z"/>
				<path id="XMLID_5587_" class="st0" d="M93.5,97.3c0-0.3,0.1-0.5,0.2-0.7c0.1-0.2,0.3-0.3,0.6-0.3c0.3,0,0.5,0.1,0.6,0.3
					c0.1,0.2,0.2,0.4,0.2,0.7v0c0,0.3-0.1,0.5-0.2,0.7c-0.1,0.2-0.4,0.3-0.6,0.3s-0.5-0.1-0.6-0.3C93.6,97.9,93.5,97.6,93.5,97.3
					L93.5,97.3z M93.9,97.4c0,0.2,0,0.4,0.1,0.5c0.1,0.1,0.2,0.2,0.4,0.2c0.2,0,0.3-0.1,0.4-0.2c0.1-0.1,0.1-0.3,0.1-0.5v0
					c0-0.2,0-0.4-0.1-0.5c-0.1-0.1-0.2-0.2-0.4-0.2c-0.2,0-0.3,0.1-0.4,0.2C93.9,97,93.9,97.1,93.9,97.4L93.9,97.4z"/>
				<path id="XMLID_5548_" class="st0" d="M95.9,96.4l0,0.3c0.1-0.1,0.1-0.2,0.2-0.2c0.1-0.1,0.2-0.1,0.3-0.1c0.2,0,0.4,0.1,0.5,0.2
					s0.2,0.3,0.2,0.5v1.2h-0.3v-1.2c0-0.2,0-0.3-0.1-0.3c-0.1-0.1-0.2-0.1-0.3-0.1c-0.1,0-0.2,0-0.3,0.1c-0.1,0-0.1,0.1-0.2,0.2v1.4
					h-0.3v-1.9H95.9z"/>
				<path id="XMLID_5545_" class="st0" d="M100.3,97.5L100.3,97.5c0,0.2-0.1,0.4-0.2,0.6c-0.2,0.2-0.4,0.2-0.7,0.2
					c-0.3,0-0.5-0.1-0.7-0.3c-0.2-0.2-0.3-0.5-0.3-0.8v-0.4c0-0.3,0.1-0.6,0.3-0.8c0.2-0.2,0.4-0.3,0.7-0.3c0.3,0,0.5,0.1,0.7,0.2
					c0.2,0.2,0.2,0.3,0.2,0.6l0,0H100c0-0.2-0.1-0.3-0.2-0.4c-0.1-0.1-0.2-0.2-0.4-0.2c-0.2,0-0.3,0.1-0.5,0.2
					c-0.1,0.2-0.2,0.3-0.2,0.6v0.4c0,0.2,0.1,0.4,0.2,0.6C99,98,99.2,98,99.4,98c0.2,0,0.3-0.1,0.4-0.2s0.2-0.2,0.2-0.4H100.3z"/>
				<path id="XMLID_5520_" class="st0" d="M101.1,98.3h-0.3v-2.7h0.3V98.3z"/>
				<path id="XMLID_5516_" class="st0" d="M101.5,97.3c0-0.3,0.1-0.5,0.2-0.7c0.1-0.2,0.3-0.3,0.6-0.3c0.3,0,0.5,0.1,0.6,0.3
					c0.1,0.2,0.2,0.4,0.2,0.7v0c0,0.3-0.1,0.5-0.2,0.7c-0.1,0.2-0.4,0.3-0.6,0.3c-0.3,0-0.5-0.1-0.6-0.3
					C101.6,97.9,101.5,97.6,101.5,97.3L101.5,97.3z M101.8,97.4c0,0.2,0,0.4,0.1,0.5c0.1,0.1,0.2,0.2,0.4,0.2c0.2,0,0.3-0.1,0.4-0.2
					c0.1-0.1,0.1-0.3,0.1-0.5v0c0-0.2,0-0.4-0.1-0.5c-0.1-0.1-0.2-0.2-0.4-0.2c-0.2,0-0.3,0.1-0.4,0.2
					C101.9,97,101.8,97.1,101.8,97.4L101.8,97.4z"/>
				<path id="XMLID_5504_" class="st0" d="M104.7,98c-0.1,0.1-0.1,0.2-0.2,0.2c-0.1,0.1-0.2,0.1-0.3,0.1c-0.2,0-0.4-0.1-0.5-0.2
					c-0.1-0.1-0.2-0.3-0.2-0.6v-1.1h0.3v1.1c0,0.2,0,0.3,0.1,0.4s0.1,0.1,0.3,0.1c0.1,0,0.2,0,0.3-0.1c0.1,0,0.1-0.1,0.2-0.2v-1.3
					h0.3v1.9h-0.3L104.7,98z"/>
				<path id="XMLID_5497_" class="st0" d="M105.5,97.4c0-0.3,0.1-0.5,0.2-0.7c0.1-0.2,0.3-0.3,0.5-0.3c0.1,0,0.2,0,0.3,0.1
					c0.1,0,0.2,0.1,0.2,0.2v-1h0.3v2.7h-0.3l0-0.2c-0.1,0.1-0.1,0.2-0.2,0.2s-0.2,0.1-0.3,0.1c-0.2,0-0.4-0.1-0.5-0.2
					S105.5,97.7,105.5,97.4L105.5,97.4z M105.8,97.4c0,0.2,0,0.3,0.1,0.4s0.2,0.2,0.4,0.2c0.1,0,0.2,0,0.3-0.1
					c0.1,0,0.1-0.1,0.2-0.2v-0.9c0-0.1-0.1-0.1-0.2-0.2c-0.1,0-0.2-0.1-0.2-0.1c-0.2,0-0.3,0.1-0.4,0.2
					C105.9,97,105.8,97.2,105.8,97.4L105.8,97.4z"/>
			</g>
			<path id="XMLID_5341_" class="st26" d="M147.2,118.3l-8,8v-7c0-1.1-0.9-2-2-2h-12.4l22.5,22.5V118.3z M111.5,109.3l-2.6,2.6
				l5.5,5.5H113c-1.1,0-2,0.9-2,2v20.1c0,1.1,0.9,2,2,2h24.1c0.4,0,0.8-0.2,1.1-0.4l6.4,6.4l2.6-2.6L111.5,109.3z"/>
		</g>
	</g>
</g>
</svg>
