<?xml version="1.0" encoding="utf-8"?>
<!-- Generator: Adobe Illustrator 19.0.0, SVG Export Plug-In . SVG Version: 6.00 Build 0)  -->
<svg version="1.1" id="Calque_1" xmlns="http://www.w3.org/2000/svg" xmlns:xlink="http://www.w3.org/1999/xlink" x="0px" y="0px"
	 viewBox="0 0 90 90" style="enable-background:new 0 0 90 90;" xml:space="preserve">
<style type="text/css">
	.st0{fill:#EFEEED;}
	.st1{opacity:0.9;fill:#FFFFFF;enable-background:new    ;}
	.st2{opacity:0.2;}
	.st3{fill:#343434;}
	.st4{fill:#8D1343;}
	.st5{fill:#FFFFFF;}
	.st6{fill:#E62261;}
	.st7{opacity:0.5;fill:#B0B0B0;enable-background:new    ;}
	.st8{fill:#C81457;}
	.st9{opacity:0.2;fill:#3D3D3D;enable-background:new    ;}
	.st10{fill:#E62463;}
	.st11{opacity:0.3;fill:#020303;enable-background:new    ;}
</style>
<g id="XMLID_8795_">
	<g id="XMLID_15523_">
		<circle id="SVGID_89_" class="st0" cx="45" cy="45" r="45"/>
	</g>
	<circle id="XMLID_15522_" class="st0" cx="45" cy="45" r="45"/>
	<g id="XMLID_15494_">
		<path id="XMLID_15496_" class="st1" d="M43.4,14.5c-0.4-0.1-0.7-0.2-1.1-0.2l-0.1,0c-0.9-1.8-2.7-3.1-4.9-3.1
			c-1.8,0-3.4,0.9-4.3,2.2c-0.4-0.4-0.9-0.7-1.4-0.7c-0.9,0-1.7,0.7-1.9,1.6c-0.1,0-0.3,0-0.4,0c-0.7,0-1.3,0.2-1.8,0.4
			c-1.4,0.7-2.4,2.1-2.4,3.8c0,2.3,1.9,4.2,4.2,4.2h13.1c2.3,0,4.2-1.9,4.2-4.2C46.5,16.6,45.2,15,43.4,14.5z"/>
	</g>
	<g id="XMLID_15487_">
		<path id="XMLID_15490_" class="st1" d="M48.6,71.5c0.4-0.1,0.7-0.2,1.1-0.2l0.1,0c0.9-1.8,2.7-3.1,4.9-3.1c1.8,0,3.4,0.9,4.3,2.2
			c0.4-0.4,0.9-0.7,1.4-0.7c0.9,0,1.7,0.7,1.9,1.6c0.1,0,0.3,0,0.4,0c0.7,0,1.3,0.2,1.8,0.4c1.4,0.7,2.4,2.1,2.4,3.8
			c0,2.3-1.9,4.2-4.2,4.2H49.7c-2.3,0-4.2-1.9-4.2-4.2C45.5,73.7,46.8,72,48.6,71.5z"/>
	</g>
	<g id="XMLID_15216_" class="st2">
		<polygon id="XMLID_15484_" class="st3" points="57.4,29.2 6.9,28.1 57.4,26.9 		"/>
		<polygon id="XMLID_15226_" class="st3" points="57.6,33.3 7,32.1 57.6,31 		"/>
		<polygon id="XMLID_15225_" class="st3" points="64.4,37.8 11.3,36.7 64.4,35.5 		"/>
		<polygon id="XMLID_15224_" class="st3" points="64.4,41.7 11.3,40.6 64.4,39.4 		"/>
		<polygon id="XMLID_15223_" class="st3" points="64.4,46.4 16.5,45.3 64.4,44.2 		"/>
		<polygon id="XMLID_15222_" class="st3" points="63.9,50.7 16,49.6 63.9,48.5 		"/>
		<polygon id="XMLID_15221_" class="st3" points="64.5,58.9 24.4,57.8 64.5,56.7 		"/>
		<polygon id="XMLID_15220_" class="st3" points="65.1,67.6 35.7,66.6 65.1,65.6 		"/>
		<polygon id="XMLID_15219_" class="st3" points="64.4,54.9 19.4,53.9 64.4,52.8 		"/>
		<polygon id="XMLID_15218_" class="st3" points="64.4,63.5 29.7,62.5 64.4,61.4 		"/>
		<polygon id="XMLID_15217_" class="st3" points="64.4,71.9 39.7,71.1 64.4,70.2 		"/>
	</g>
	<g id="XMLID_8796_">
		<g id="XMLID_15203_">
			<path id="XMLID_15215_" class="st4" d="M74.5,51.4l-31.7-16c-0.4-0.2-0.8,0-1,0.3l-9.9,19.6c-0.2,0.4,0,0.8,0.3,1l31.7,16
				c0.4,0.2,0.8,0,1-0.3l9.9-19.6C75,52,74.9,51.6,74.5,51.4z"/>
			<path id="XMLID_15214_" class="st5" d="M47.2,27.6L32.9,55.8c-0.2,0.4,0,0.9,0.3,1l29.6,15c0.4,0.2,0.8,0,1-0.3l16.7-33
				c0.2-0.4,0-0.9-0.3-1L55.5,24.9L47.2,27.6z"/>
			<g id="XMLID_15211_">
				<path id="XMLID_15213_" class="st6" d="M65.9,41.7c0.2,2.1-0.6,4.4-2.1,6.5c-1.2,1.6-2.8,2.7-4.8,3.3c-1.1,0.3-2.1,0.4-3.2,0.3
					c-0.4-0.1-0.7-0.3-0.6-0.7c0-0.4,0.4-0.7,0.8-0.7c1.3,0.1,2.6,0,3.8-0.6c2.6-1.3,4.1-3.3,4.6-6.2c0.3-1.6,0.1-3.2-0.7-4.6
					c-1-1.7-2.5-2.6-4.5-2.6c-1.9,0-3.5,0.8-4.7,2.3c-1.2,1.5-1.8,3.2-1.6,5.1c0.1,1.2,0.6,2.2,1.5,3c0.9,0.8,2,1.1,3.2,0.9
					c2.5-0.3,4.3-2.7,4.3-5.1c0-0.9-0.2-1.7-0.7-2.4c-0.9-1.2-2.5-1.4-3.9-0.6c-1.4,0.8-2.1,2.3-1.8,3.9c0.2,1.1,1,1.7,2,1.6
					c1-0.2,1.8-1.2,1.8-2.2c0-0.2,0-0.4-0.1-0.6c-0.1-0.2-0.2-0.4-0.5-0.4c-0.2,0-0.5,0.1-0.6,0.3c-0.1,0.2-0.1,0.4-0.1,0.6
					c0.1,0.5-0.3,1.1-0.9,1c-0.2,0-0.4-0.2-0.5-0.4c-0.4-1.1,0.4-2.5,1.5-2.8c1.2-0.3,2.1,0.3,2.3,1.5c0.4,1.9-0.8,3.8-2.6,4.4
					c-1.7,0.5-3.4-0.5-3.9-2.2c-0.6-2.6,0.9-5.4,3.4-6.2c1.9-0.6,3.9,0,4.9,1.6c0.5,0.8,0.8,1.7,0.8,2.6c0,2.6-1.1,4.7-3.3,6.1
					c-1.8,1.1-3.7,1.3-5.6,0.4c-1.4-0.7-2.2-1.8-2.7-3.3c-1.2-4,1.3-8.6,5.3-9.9c2.8-1,5.8,0,7.6,2.4C65.4,38.7,65.8,39.9,65.9,41.7
					z"/>
				<path id="XMLID_15212_" class="st6" d="M58.9,32.2c2.5-0.2,4.6,0.4,6.4,1.8c1.4,1.1,2.3,2.5,2.8,4.2c0.2,0.5-0.3,1-0.8,1
					c-0.3,0-0.5-0.2-0.6-0.6c-0.3-0.8-0.7-1.6-1.2-2.3c-1.3-1.7-3.1-2.6-5.2-2.7c-1.3-0.1-2.5,0.1-3.7,0.6c-0.3,0.1-0.5,0.1-0.7-0.1
					c-0.2-0.2-0.3-0.4-0.2-0.6c0.1-0.3,0.2-0.5,0.5-0.6c0.5-0.2,1.1-0.4,1.6-0.5C58.2,32.3,58.7,32.3,58.9,32.2z"/>
			</g>
			<path id="XMLID_15210_" class="st7" d="M49.5,53l24.7-1.8l-1.2,2.4l-19.7,1.3L49.5,53z"/>
			<path id="XMLID_15209_" class="st8" d="M31.8,55.3c-0.2,0.4,0,0.8,0.3,1l31.7,16c0.4,0.2,0.8,0,1-0.3l9.8-19.3l-21.6,1.6L41.6,36
				L31.8,55.3z"/>
			<path id="XMLID_15208_" class="st9" d="M47.2,27.6l5.5,2.8l2.8-5.5L47.2,27.6z"/>
			<path id="XMLID_15207_" class="st10" d="M41.6,36l-9.4,18.6l20.9-0.2L41.6,36z"/>
			<polygon id="XMLID_15206_" class="st8" points="74.6,52.8 53.1,54.4 65.2,71.3 			"/>
			<path id="XMLID_15205_" class="st11" d="M64.9,72l0.3-0.7l-12.2-17l11.3,18.1C64.6,72.4,64.8,72.2,64.9,72L64.9,72z"/>
			<path id="XMLID_15204_" class="st11" d="M31.8,55.3l0.3-0.7l20.9-0.2l-21.3,1.5C31.7,55.7,31.7,55.5,31.8,55.3L31.8,55.3z"/>
		</g>
	</g>
</g>
</svg>
