<?xml version="1.0" encoding="utf-8"?>
<!-- Generator: Adobe Illustrator 19.0.0, SVG Export Plug-In . SVG Version: 6.00 Build 0)  -->
<svg version="1.1" id="Calque_1" xmlns="http://www.w3.org/2000/svg" xmlns:xlink="http://www.w3.org/1999/xlink" x="0px" y="0px"
	 viewBox="0 0 250 250" style="enable-background:new 0 0 250 250;" xml:space="preserve">
<style type="text/css">
	.st0{fill:#FFFFFF;}
	.st1{opacity:0.9;fill:#FFFFFF;}
	.st2{opacity:0.7;fill:#FFFFFF;}
	.st3{opacity:0.5;fill:#FFFFFF;}
	.st4{opacity:0.6;}
	.st5{opacity:0.3;}
	.st6{clip-path:url(#XMLID_2_);}
	.st7{fill:#B4B4B4;}
	.st8{fill:#3D3D3D;}
	.st9{fill:#3B3A3A;}
	.st10{fill:#2E2E2E;}
	.st11{fill:#989899;}
	.st12{fill:url(#XMLID_3_);}
	.st13{fill:#262626;}
	.st14{opacity:0.3;fill:#454545;}
	.st15{fill:url(#XMLID_4_);}
	.st16{fill:#A5A6A5;}
	.st17{fill:url(#XMLID_5_);}
	.st18{opacity:0.3;fill:#6A6A6A;}
	.st19{fill:#6A6A6A;}
	.st20{fill:#212121;}
</style>
<g id="XMLID_10049_">
	<g id="XMLID_11534_">
		<path id="XMLID_14654_" class="st0" d="M105.7,62.9l-1.6,0.2l-0.6-5.3l-5.8,0.7l0.6,5.3l-1.6,0.2l-1.3-12l1.6-0.2l0.6,5.4l5.8-0.7
			l-0.6-5.4l1.6-0.2L105.7,62.9z"/>
		<path id="XMLID_14652_" class="st1" d="M110,54.9c0.3-0.4,0.7-0.7,1.2-1c0.5-0.2,1-0.3,1.5-0.3c1,0,1.7,0.4,2.2,1
			c0.5,0.6,0.7,1.5,0.7,2.7l-0.2,5.6l-1.6-0.1l0.2-5.6c0-0.7-0.1-1.3-0.4-1.7s-0.8-0.6-1.4-0.6c-0.5,0-0.9,0.1-1.2,0.3
			s-0.7,0.5-0.9,0.8l-0.3,6.6l-1.6-0.1l0.8-13.8l1.6,0.1L110,54.9z"/>
		<path id="XMLID_14650_" class="st2" d="M120.4,55l0,1.1c0.3-0.4,0.7-0.6,1.1-0.8c0.4-0.2,0.9-0.2,1.4-0.2c0.5,0,1,0.2,1.4,0.5
			c0.4,0.3,0.6,0.7,0.8,1.2c0.3-0.4,0.7-0.8,1.1-1c0.4-0.2,0.9-0.3,1.5-0.3c0.8,0.1,1.5,0.4,1.9,1c0.4,0.6,0.6,1.5,0.5,2.6l-0.4,4.8
			l-1.5-0.1l0.4-4.9c0.1-0.8,0-1.4-0.3-1.7c-0.2-0.4-0.6-0.6-1.2-0.6c-0.5,0-0.9,0.1-1.3,0.4c-0.3,0.3-0.6,0.7-0.7,1.3l0,0.1
			l-0.4,5.1l-1.5-0.1l0.4-4.9c0.1-0.8,0-1.3-0.3-1.7c-0.3-0.4-0.6-0.6-1.2-0.6c-0.4,0-0.8,0-1.1,0.2c-0.3,0.2-0.6,0.4-0.7,0.7
			l-0.5,6l-1.5-0.1l0.7-8.1L120.4,55z"/>
		<path id="XMLID_14648_" class="st2" d="M133.4,57.4l0.2,0.9c0.2-0.4,0.4-0.7,0.7-0.9c0.3-0.2,0.7-0.4,1.1-0.5s0.8,0,1.2,0.1
			c0.4,0.1,0.7,0.4,0.9,0.8c0.1-0.4,0.4-0.8,0.7-1.1c0.3-0.3,0.7-0.5,1.2-0.6c0.7-0.1,1.3,0,1.7,0.4c0.5,0.4,0.8,1.1,1,2l0.7,4
			l-1.2,0.2l-0.7-4c-0.1-0.7-0.3-1.1-0.6-1.3s-0.6-0.3-1.1-0.2c-0.4,0.1-0.7,0.3-0.9,0.6S138,58.6,138,59l0,0l0.8,4.2l-1.2,0.2
			l-0.7-4c-0.1-0.6-0.3-1.1-0.6-1.3c-0.3-0.2-0.6-0.3-1.1-0.3c-0.4,0.1-0.7,0.2-0.9,0.4c-0.2,0.2-0.4,0.4-0.4,0.7l0.9,5l-1.2,0.2
			l-1.2-6.7L133.4,57.4z"/>
		<path id="XMLID_11539_" class="st3" d="M150.3,63.3l-1.4,0.4l-0.4-1.5l1.4-0.4L150.3,63.3z"/>
		<path id="XMLID_11537_" class="st3" d="M154.2,63.5h-1.5V62h1.5V63.5z"/>
		<path id="XMLID_11535_" class="st3" d="M158.4,64.4h-1.5v-1.5h1.5V64.4z"/>
	</g>
	<g id="XMLID_11530_" class="st4">
		<path id="XMLID_11531_" class="st0" d="M184.6,70.7c1.2-1.2,2.2-1.9,2.8-2.1c0.7-0.3,1.8-0.3,3.4-0.2c1.8-0.1,3.1-0.3,4-0.4
			c0.9-0.2,1.7-0.6,2.4-1.3c0.9-0.9,1.3-1.8,1.3-2.7s-0.4-1.8-1.3-2.7c-0.7-0.8-1.6-1.2-2.5-1.3c-0.9-0.1-1.8,0.2-2.6,1l-2.3-2.3
			l0-0.1c1.3-1.3,2.9-1.9,4.6-1.7c1.8,0.2,3.4,1,4.8,2.5c1.6,1.6,2.4,3.3,2.5,5c0.1,1.7-0.7,3.3-2.2,4.8c-1.1,1.1-2.3,1.7-3.8,2
			c-1.5,0.3-3.1,0.4-5,0.3c-0.9,0-1.6,0.1-2,0.4c-0.5,0.3-1.1,0.8-1.8,1.5L184.6,70.7z M182,78.2l-2.5-2.6l2.6-2.5l2.5,2.6L182,78.2
			z"/>
	</g>
	<g id="XMLID_10956_" class="st5">
		<path id="XMLID_11527_" class="st0" d="M57.3,74.6c-0.9-1.3-1.4-2.2-1.5-2.9c-0.1-0.6,0-1.7,0.3-3.1c0.1-1.6,0.2-2.9,0.2-3.7
			s-0.3-1.6-0.9-2.4c-0.7-0.9-1.4-1.5-2.2-1.6c-0.8-0.1-1.7,0.1-2.6,0.7c-0.8,0.6-1.3,1.3-1.6,2.1c-0.3,0.8-0.1,1.7,0.5,2.5L47,68.1
			L46.9,68c-1-1.4-1.3-2.9-0.9-4.4c0.4-1.6,1.4-2.9,3-4c1.7-1.2,3.4-1.7,4.9-1.5c1.6,0.2,2.9,1.1,4,2.7c0.8,1.1,1.2,2.4,1.3,3.7
			c0,1.4-0.1,2.9-0.4,4.6c-0.1,0.8-0.1,1.4,0,1.9c0.2,0.4,0.5,1.1,1.1,1.9L57.3,74.6z M63.8,78.1L61.1,80l-1.9-2.7l2.7-1.9
			L63.8,78.1z"/>
	</g>
	<g id="XMLID_10952_">
		<path id="XMLID_10953_" class="st0" d="M123.8,28.3c0.7-2.1,1.3-3.5,1.9-4.1s1.8-1.5,3.7-2.3c1.9-1.2,3.3-2.2,4.2-2.9
			c0.9-0.7,1.5-1.7,1.9-3c0.5-1.5,0.4-2.8-0.1-3.9c-0.6-1.1-1.6-1.8-3.1-2.3c-1.3-0.4-2.5-0.4-3.7,0c-1.1,0.4-1.9,1.3-2.3,2.7
			l-4-1.2l0-0.1c0.7-2.3,2.1-3.9,4.1-4.8s4.4-0.9,7-0.1c2.8,0.9,4.8,2.3,5.9,4.2c1.1,1.9,1.3,4.2,0.5,6.7c-0.6,1.8-1.6,3.4-3.1,4.6
			s-3.3,2.4-5.5,3.5c-1,0.5-1.7,1.1-2,1.6s-0.7,1.5-1.1,2.8L123.8,28.3z M125.4,38.4l-4.4-1.4l1.4-4.5l4.4,1.4L125.4,38.4z"/>
	</g>
	<g id="XMLID_10947_">
		<path id="XMLID_10948_" class="st0" d="M78.4,31.6c0.1-0.8,0.2-1.3,0.4-1.6c0.2-0.3,0.5-0.6,1.1-1.1c0.6-0.6,1-1,1.3-1.3
			s0.4-0.7,0.5-1.2c0.1-0.6,0-1-0.3-1.4c-0.3-0.3-0.7-0.5-1.2-0.6c-0.5-0.1-0.9,0-1.3,0.3c-0.4,0.2-0.6,0.6-0.6,1.1l-1.5-0.2l0-0.1
			c0.1-0.9,0.4-1.5,1.1-2c0.7-0.5,1.5-0.6,2.5-0.5c1.1,0.1,1.8,0.5,2.4,1.1s0.7,1.4,0.6,2.3c-0.1,0.7-0.3,1.3-0.8,1.8
			c-0.4,0.5-1,1.1-1.7,1.6c-0.3,0.3-0.5,0.5-0.6,0.7c-0.1,0.2-0.2,0.6-0.2,1.1L78.4,31.6z M79.6,35L78,34.8l0.2-1.7l1.7,0.2L79.6,35
			z"/>
	</g>
	<g id="XMLID_10943_" class="st5">
		<path id="XMLID_10944_" class="st0" d="M165.4,46.9c0.3-0.7,0.6-1.2,0.9-1.4s0.7-0.4,1.4-0.7c0.7-0.4,1.3-0.6,1.6-0.9
			c0.3-0.2,0.6-0.5,0.8-1c0.2-0.5,0.3-1,0.1-1.4c-0.1-0.4-0.5-0.7-1-1c-0.4-0.2-0.9-0.3-1.3-0.2s-0.7,0.4-1,0.9l-1.4-0.6l0-0.1
			c0.3-0.8,0.9-1.3,1.7-1.5c0.8-0.2,1.6-0.1,2.5,0.3c1,0.4,1.6,1,1.9,1.8c0.3,0.7,0.3,1.5-0.1,2.4c-0.3,0.6-0.7,1.1-1.3,1.5
			s-1.3,0.7-2.1,1c-0.4,0.1-0.7,0.3-0.8,0.5s-0.3,0.5-0.5,0.9L165.4,46.9z M165.5,50.6l-1.5-0.7l0.7-1.5l1.5,0.7L165.5,50.6z"/>
	</g>
	<g id="XMLID_10050_">
		<defs>
			<circle id="XMLID_10051_" cx="125.1" cy="157.7" r="82.9"/>
		</defs>
		<use xlink:href="#XMLID_10051_"  style="overflow:visible;fill:#5E5E5E;"/>
		<clipPath id="XMLID_2_">
			<use xlink:href="#XMLID_10051_"  style="overflow:visible;"/>
		</clipPath>
		<g id="XMLID_10052_" class="st6">
			<path id="XMLID_10753_" class="st7" d="M178.9,168.3c-2.1-1.3-3.7-3.4-5-6c-8.9,30.6,5.3,32,5.3,32c10.3,3.2,13.2-9.7,13.2-9.7
				s1.8-7.4,3.8-15.5C194.4,170.7,188.5,174.3,178.9,168.3z"/>
			<path id="XMLID_10342_" class="st8" d="M191.4,137.9c-6.7-1-10.1,4.8-10.1,4.8c-3.4,7.6-5.7,14.1-7.4,19.7c1.2,2.6,2.9,4.7,5,6
				c9.6,6,15.5,2.4,17.4,0.9c2.1-8.6,4.3-18.1,4.7-20C201.7,145.3,198.1,138.8,191.4,137.9z"/>
			<path id="XMLID_10341_" class="st8" d="M180.2,152.2c-1.6-1.6-96.6-6.7-104.2,1.3c0,0-0.8,0.5-0.8,3.7c0,0.7,0.4,5.2,1,12
				l6.2,4.1c0,0,6.7,6.4,5.3,13.3c0.5,2.8,0.1,5.8-2.5,8.7c-2,2.3-4.2,3.6-6.2,4.3c2.3,24.5,4.8,50.6,4.8,50.6s4.8,8.1,53.5,2.7
				c28-3.8,35.4-21.5,35.4-21.5s3.8-5.7,3.3-13.5l5.1-57.6C181.2,160.3,181.8,153.7,180.2,152.2z"/>
			<path id="XMLID_10340_" class="st9" d="M85.2,195.2c2.5-2.9,3-5.9,2.5-8.7c-0.3,1.6-1.1,3.2-2.5,4.8c-2.2,2.5-4.4,3.8-6.6,4.4
				c0.1,1.3,0.2,2.5,0.4,3.8C81,198.9,83.2,197.6,85.2,195.2z"/>
			<path id="XMLID_10307_" class="st10" d="M76.2,150.3c0,0-9.2,33.3,59,32.2c0,0,47.1-3.1,45-29.8L76.2,150.3z"/>
			<path id="XMLID_10306_" class="st11" d="M78.3,155.6c0,0,11.2,24.8,52.2,22.9s49.2-23.3,50.1-27.9
				C181.4,146,78.3,155.6,78.3,155.6z"/>
			<path id="XMLID_10076_" class="st7" d="M125.5,98.1c0,0-38.8-0.8-49.1,31.7s22.4,39.3,22.4,39.3s60.5,17.3,81.8-18.5
				c6.4-18.4-6.4-32.7-6.4-32.7S159.5,96.7,125.5,98.1z"/>
			<path id="XMLID_10075_" class="st7" d="M174.1,118c0,0-9.3-13.4-30.1-18.2c-57.6-1-48.8,55.6-45.8,69.3c0.4,0.1,0.6,0.1,0.6,0.1
				s60.5,17.3,81.8-18.5C187,132.3,174.1,118,174.1,118z"/>
			<linearGradient id="XMLID_3_" gradientUnits="userSpaceOnUse" x1="112.1564" y1="119.3361" x2="93.293" y2="180.5235">
				<stop  offset="0" style="stop-color:#FFFFFF;stop-opacity:0"/>
				<stop  offset="1" style="stop-color:#676767"/>
			</linearGradient>
			<path id="XMLID_10074_" class="st12" d="M150.2,101.5c-5.4-1.3-17.8-3.7-24.8-3.4c0,0-38.7-0.8-49.1,31.7
				c-8.4,26.4,12.5,35.5,15.1,36.8C88.5,152.9,92.7,100.5,150.2,101.5z"/>
			
				<ellipse id="XMLID_10073_" transform="matrix(0.8038 0.5949 -0.5949 0.8038 88.4954 -26.9903)" class="st13" cx="85.2" cy="120.7" rx="2.7" ry="7"/>
			<path id="XMLID_10072_" class="st14" d="M178.5,169.6c0,0.4-6.6,63.2-6.6,63.2s-2.6,3.5-3.7,4.8
				C167.2,238.9,178.5,169.6,178.5,169.6z"/>
			<path id="XMLID_10071_" class="st14" d="M93.2,187.5c0,0,2.9,42,16.5,49.3"/>
			<path id="XMLID_10070_" class="st14" d="M89.7,200.5c0,0,2.2,35.1-3.8,25.3"/>
			<path id="XMLID_10069_" class="st14" d="M169,180.2c0,0-2.9,55.2-27.3,65.2"/>
			
				<ellipse id="XMLID_10068_" transform="matrix(0.8038 0.5949 -0.5949 0.8038 88.1539 -26.8362)" class="st0" cx="84.8" cy="120.2" rx="2.5" ry="7"/>
			
				<linearGradient id="XMLID_4_" gradientUnits="userSpaceOnUse" x1="1297.3385" y1="-70.5182" x2="1305.248" y2="-73.4531" gradientTransform="matrix(-0.9545 0.2982 0.2982 0.9545 1418.2183 -209.5283)">
				<stop  offset="0" style="stop-color:#FFFFFF;stop-opacity:0"/>
				<stop  offset="1" style="stop-color:#3D3D3B"/>
			</linearGradient>
			<path id="XMLID_10067_" class="st15" d="M161.3,112.4c-1.5,0.7-4.5,0.6-7-1.2c-2.5-1.8-3.4-3.4-2.8-4.1s3.3-0.4,5.9,1.4
				C159.8,110.4,162.1,112.1,161.3,112.4z"/>
			<path id="XMLID_10066_" class="st16" d="M157.3,97c0,0,2.5-4.8,5.2-2.7c2.7,2,0.1,5,0.1,5l-6.8,10.6c0,0-3.7,1.3-4.6-2.6l0.7-1.1
				L157.3,97z"/>
			
				<linearGradient id="XMLID_5_" gradientUnits="userSpaceOnUse" x1="357.0538" y1="309.3123" x2="365.0734" y2="306.3366" gradientTransform="matrix(1.1191 8.880042e-02 8.880042e-02 1.0662 -322.6374 -240.4968)">
				<stop  offset="0" style="stop-color:#FFFFFF;stop-opacity:0"/>
				<stop  offset="1" style="stop-color:#3D3D3B"/>
			</linearGradient>
			<path id="XMLID_10065_" class="st17" d="M102.9,124.2c1.9,0.4,5.8-1,7.7-3.5c1.9-2.5,1.2-3.7,0.4-4.3s-3.7,0.3-5.5,2.8
				S101.9,124,102.9,124.2z"/>
			<path id="XMLID_10064_" class="st16" d="M103.7,104.2c0,0-2.5-4.8-5.2-2.7c-2.7,2-0.1,5-0.1,5l8.8,13.5c0,0,3.7,1.3,4.6-2.6
				l-0.7-1.1L103.7,104.2z"/>
			<path id="XMLID_10062_" class="st18" d="M100.1,130c-3.3-5.3-10.3-7-15.6-3.7l-11.9,8.3c4.8,19.8,5.9,40.1,5.9,60.4
				c0.3,1.6,0.5,3.3,0.6,4.9c0.9,0,2.3-0.1,3.3-0.3c2.4-0.4,4.2-1.5,5.7-2.7l0.1,0c6.3-5.3,4.8-16.2,4.8-16.2L89.6,167l-0.6-1.8
				l-3.3-10.3c0,0-0.2-0.5-0.5-1.3l0.2-0.2l0.3-0.2l10.8-7.7C101.8,142.3,103.4,135.3,100.1,130z"/>
			<path id="XMLID_10061_" class="st18" d="M63.1,169c-0.1,0.1-0.3,0.3-0.4,0.4C62.8,169.3,62.9,169.1,63.1,169z"/>
			<g id="XMLID_10054_">
				<path id="XMLID_10060_" class="st19" d="M55.2,147.9"/>
				<path id="XMLID_10058_" class="st8" d="M83.9,194.8c6.3-5.3,4.8-16.2,4.8-16.2l-3.3-13.7l-0.6-1.8c-3.1-1.7-7.9-2.5-15.5-1
					c-8.1,1.6-11,4.4-12,6.2l0.1,0.7l3.2,19.8c0,0,1.6,5,7.5,7.4c0,0,1.2,0.7,1.2,0.6c2.4,1,5.2,1.4,8.9,0.8
					C80.5,197.2,82.3,196,83.9,194.8"/>
				<path id="XMLID_10057_" class="st7" d="M69.2,162c7.6-1.5,12.4-0.7,15.5,1l-3.3-10.3c0,0-4.9-16-17.1-14.9
					C52.2,139,54.2,151,54.2,151l3,17.2C58.3,166.4,61.1,163.6,69.2,162z"/>
				<path id="XMLID_10056_" class="st7" d="M81.6,151.1l10.7-7.6c5.3-3.3,6.9-10.3,3.6-15.6c-3.3-5.3-10.3-7-15.6-3.7L67.6,133l0,0
					l-8.3,5.2c-2.4,2.2-7.4,8-4.1,13.3c3.3,5.3,10.8,9.3,16.1,6l9.9-6.2L81.6,151.1z"/>
				<path id="XMLID_10055_" class="st11" d="M80.5,151c0,0-13.2-7.6-19.9-2.3c0,0,4.5-7.8,21.4,1.8l0.2,0.1l-1.2,0.9L80.5,151z"/>
			</g>
			<path id="XMLID_10053_" class="st20" d="M90.8,110.5c0,0,6-0.1,4.6,7.8"/>
		</g>
		<use xlink:href="#XMLID_10051_"  style="overflow:visible;fill:none;stroke:#5D5D5D;stroke-width:4;stroke-miterlimit:10;"/>
	</g>
</g>
</svg>
