<?xml version="1.0" encoding="utf-8"?>
<!-- Generator: Adobe Illustrator 19.0.0, SVG Export Plug-In . SVG Version: 6.00 Build 0)  -->
<svg version="1.1" id="Calque_1" xmlns="http://www.w3.org/2000/svg" xmlns:xlink="http://www.w3.org/1999/xlink" x="0px" y="0px"
	 viewBox="0 0 200 200" style="enable-background:new 0 0 200 200;" xml:space="preserve">
<style type="text/css">
	.st0{opacity:0.5;}
	.st1{fill:#CECDCE;}
	.st2{clip-path:url(#XMLID_2_);}
	.st3{opacity:0.3;fill:#6A6A6A;}
	.st4{fill:#E0E0E0;}
	.st5{fill:#B7B7B7;}
	.st6{fill:#6A6A6A;}
	.st7{fill:#777778;}
	.st8{fill:#DDDDDC;}
	.st9{opacity:0.1;fill:#3D3D3C;enable-background:new    ;}
	.st10{fill:#5F5F5F;}
	.st11{fill:url(#XMLID_3_);}
	.st12{fill:#9F9D9C;}
	.st13{opacity:0.4;}
	.st14{fill:#C7C6C7;}
</style>
<g id="XMLID_16582_">
	<g id="XMLID_17120_" class="st0">
		<path id="XMLID_17162_" class="st1" d="M105.6,127.2c0,0,12.7,2.6,17.8,1.4c4.7-1.2,11.5,14.1,11.5,14.1l2,8.6l-5.6,5.9l-5.7-0.8
			L105.6,127.2z"/>
		<g id="XMLID_17146_">
			<defs>
				<circle id="XMLID_17161_" cx="58.7" cy="77.3" r="42.8"/>
			</defs>
			<use xlink:href="#XMLID_17161_"  style="overflow:visible;fill:#EFEFEF;"/>
			<clipPath id="XMLID_2_">
				<use xlink:href="#XMLID_17161_"  style="overflow:visible;"/>
			</clipPath>
			<g id="XMLID_17147_" class="st2">
				<path id="XMLID_17160_" class="st3" d="M79.9,51.5l-36.8,5l0,0.1l0,0L36,65.8l0,0l5.6,41.9c0.1,0.6,0.6,1,1.2,0.9l44-5.9
					c0.6-0.1,1-0.6,0.9-1.2l-6.6-49.1C81,51.8,80.5,51.4,79.9,51.5z"/>
				<g id="XMLID_17157_">
					<path id="XMLID_17159_" class="st4" d="M32.3,62.5l5.8,43.2c0.1,0.6,0.6,1,1.2,0.9l45.3-6.1c0.6-0.1,1-0.6,0.9-1.2l-6.8-50.6
						c-0.1-0.6-0.6-1-1.2-0.9l-38,5.1L32.3,62.5z"/>
					<path id="XMLID_17158_" class="st5" d="M32.3,62.5l8.4-1.1l-1.1-8.4L32.3,62.5z"/>
				</g>
				<g id="XMLID_17148_">
					<path id="XMLID_17154_" class="st6" d="M53.7,85.1l-1.4,0.2c-0.2,0-0.3,0-0.4-0.1c-0.1-0.1-0.2-0.2-0.3-0.3L50,82l-5.8,0.8
						l-0.8,3.3c0,0.1-0.1,0.2-0.2,0.3c-0.1,0.1-0.2,0.2-0.4,0.2l-1.4,0.2L44.9,73l1.8-0.2L53.7,85.1z M44.5,81.4l4.9-0.7l-2.8-5
						c-0.2-0.3-0.4-0.7-0.6-1.2c0,0.3-0.1,0.5-0.1,0.7c0,0.2-0.1,0.4-0.1,0.6L44.5,81.4z"/>
					<path id="XMLID_17151_" class="st6" d="M57,79.6l0.7,4.9l-1.8,0.2l-1.8-13l3.8-0.5c0.8-0.1,1.6-0.1,2.2,0
						c0.6,0.1,1.2,0.3,1.6,0.6c0.4,0.3,0.8,0.7,1.1,1.1c0.3,0.5,0.4,1,0.5,1.6c0.1,0.6,0.1,1.2-0.1,1.7c-0.1,0.5-0.4,1-0.7,1.4
						c-0.4,0.4-0.8,0.8-1.4,1.1c-0.6,0.3-1.3,0.5-2,0.6L57,79.6z M56.8,78.2l2.1-0.3c0.5-0.1,0.9-0.2,1.3-0.4
						c0.4-0.2,0.7-0.4,0.9-0.7c0.2-0.3,0.4-0.6,0.5-0.9c0.1-0.4,0.1-0.7,0-1.1c-0.1-0.8-0.5-1.4-1-1.8c-0.6-0.4-1.4-0.5-2.4-0.4
						l-2.1,0.3L56.8,78.2z"/>
					<path id="XMLID_17149_" class="st6" d="M68.2,75.6l0.7-0.1c0.2,0,0.4-0.1,0.5-0.2c0.1-0.1,0.2-0.2,0.3-0.3l3.6-5.5
						c0.1-0.2,0.2-0.3,0.3-0.4c0.1-0.1,0.3-0.1,0.5-0.2l1.5-0.2L71.5,75c-0.1,0.2-0.2,0.3-0.3,0.4c-0.1,0.1-0.2,0.2-0.3,0.3
						c0.2,0,0.3,0.1,0.5,0.2c0.1,0.1,0.3,0.2,0.5,0.4l6,5.4l-1.5,0.2c-0.1,0-0.2,0-0.3,0c-0.1,0-0.2,0-0.2,0c-0.1,0-0.1-0.1-0.2-0.1
						c-0.1,0-0.1-0.1-0.2-0.1l-5.2-4.5c-0.1-0.1-0.1-0.1-0.2-0.2c-0.1,0-0.1-0.1-0.2-0.1c-0.1,0-0.2,0-0.3,0s-0.2,0-0.4,0l-0.8,0.1
						l0.8,6l-1.8,0.2l-1.8-13l1.8-0.2L68.2,75.6z"/>
				</g>
			</g>
		</g>
		<g id="XMLID_17142_">
			<path id="XMLID_17143_" class="st7" d="M58.7,127c-27.3,0-49.5-22.2-49.5-49.5s22.2-49.5,49.5-49.5s49.5,22.2,49.5,49.5
				S86,127,58.7,127z M58.7,35.2c-23.3,0-42.3,19-42.3,42.3s19,42.3,42.3,42.3s42.3-19,42.3-42.3S82,35.2,58.7,35.2z"/>
		</g>
		<path id="XMLID_17141_" class="st8" d="M89.8,135.2c0.4-0.7,1.2-1.7,2.1-2.2c1.1-0.6,2.2-1,3.3-1.4c0.4-0.2,1.8-0.7,2.2-0.9
			l0.5-0.2l2.9,3.3c0.1,0.1,0.2,0.2,0.3,0.3l3.5,4.1l-3.2,1.1l-0.9,0.3l-1.8,0.6c-0.6,0.2-1.4,0.5-2.2,0.7c-1.7,0.5-3.2,0.5-4.7-0.1
			c-1.2-0.5-2.1-1.3-2.5-2.4C89.1,137.5,89.2,136.3,89.8,135.2z"/>
		<path id="XMLID_17140_" class="st9" d="M96.1,132.8c-0.1-0.4-0.3-0.8-0.6-1.2c0.3-0.1,1.6-0.6,1.9-0.8l0.5-0.2l2.9,3.3
			c0.1,0.1,0.2,0.2,0.3,0.3l4.5,3.7l-3.2,1.1l-2,0.7l-1.8,0.6c0,0,0,0,0,0L96.1,132.8z"/>
		<path id="XMLID_17139_" class="st8" d="M120.9,162c0.2-0.1,0.4-0.2,0.5-0.3c0.3-0.1,0.5-0.3,0.7-0.4c0.6-0.4,1.4-0.7,2.1-1
			c2.1-0.9,3.3-1.6,3.3-2.9c0-0.9,0.8-1.4,1.4-1.8c0.1-0.1,0.3-0.2,0.4-0.2c1.5-1.2,4.9,0.3,6.6-1.1c1.8-1.4-1.5-2.3,0.1-3.6
			c0.1-0.1,0.1-0.1,0.2-0.2c-3.4-3.6-5.3-8.1-5.4-13c0-0.1-0.1-0.4-0.4-0.7c-1.9-2.2-3.8-4.5-5.6-6.7c-2.8-3.3-5.5-6.6-8.3-9.9
			c-0.7-0.8-1.2-1.7-1.5-2.6c-0.7-2.3-0.1-4.4,0.9-6.2c0.4-0.6,1.3-1.8,2.8-0.7c0.2,0.2,0.4,0.3,0.5,0.4c2,1.7,3.9,3.4,5.9,5.1
			c4.9,4.2,10,8.6,15.1,12.9c4.6,3.9,7.6,8.2,9,12.9c0,0.1,0.2,0.4,0.4,0.4l0.1,0.1c2.3,1.1,6.6,3.7,8.9,4.7c1,0.4,4.5,1.6,6.9,2.4
			c-0.1,0.2-0.2,0.5-0.3,0.7c-3.4,7.6-3.6,10.8-4.7,19.1c0,0.3-0.1,0.7-0.1,1c-0.7-0.3-1.4-0.5-1.9-0.7c-0.6-0.2-1.1-0.4-1.2-0.4
			c-0.8-0.3-1.5-0.6-2.3-0.9c-1.8-0.7-3.6-1.4-5.4-1.9c-3.1-0.9-6.7-1.7-10.6-1c-3.9,0.7-7.8,0.5-11.7-0.7c-0.3-0.1-1.2-0.3-2.2-0.5
			c-2.1-0.4-3.6-0.8-4.2-1l-1.5-0.6L120.9,162z"/>
		<path id="XMLID_17138_" class="st1" d="M145.7,157c5.8-0.3,10.3,4.9,15.9,5.7c-0.4,2.2-0.8,4.4-1.1,6.6c0,0.3-0.1,0.7-0.1,1
			c-0.7-0.3-1.4-0.5-1.9-0.7c-0.6-0.2-1.1-0.4-1.2-0.4c-0.8-0.3-1.5-0.6-2.3-0.9c-1.8-0.7-3.6-1.4-5.4-1.9c-3.1-0.9-6.7-1.7-10.6-1
			c-3.9,0.7-7.8,0.5-11.7-0.7c-0.3-0.1-1.2-0.3-2.2-0.5c-2.1-0.4-3.6-0.8-4.2-1l-1.5-0.6l1.4-0.8c0.2-0.1,0.4-0.2,0.5-0.3
			c0.3-0.1,0.5-0.3,0.7-0.4c0.6-0.4,1.4-0.7,2.1-1c2.1-0.9,3.2-1.8,3.1-3.2c0-0.9,8.8-6.6,8.9-6.7c-3.4-3.6-5.3-8.1-5.4-13
			c0-0.1-0.1-0.4-0.4-0.7c-1.9-2.2-3.8-4.5-5.6-6.7c-2.8-3.3-5.5-6.6-8.3-9.9c-0.7-0.8-1.2-1.7-1.5-2.6c-0.2-0.6-0.3-1.2-0.3-1.8
			c1.9,1.4,3.6,3,5.4,4.5c3.6,3,7.3,6.1,10.1,9.8c3,3.9,5.6,7.8,7.1,12.3c0.4,1.3,0.7,2.6,0.9,3.9c-0.1,2.1-0.1,3.8-0.6,5.8
			c-0.4,1.6,0.5,3,1.9,3.7C139.7,155.8,141.6,157.2,145.7,157z"/>
		<path id="XMLID_17137_" class="st9" d="M120.9,162.2c0.2-0.1,0.4-0.2,0.5-0.3c0.3-0.1,0.5-0.3,0.7-0.4c0.6-0.4,1.4-0.7,2.1-1
			c2.1-0.9,3.3-1.6,3.3-2.9c0-0.9,0.8-1.4,1.4-1.8c0.1-0.1,0.1-0.6,0.2-0.7c0.7-0.6,1.7-0.7,2.5-1.4c0.1,0.8,0.1,1.6,0,2.4
			c-0.2,1.8-0.5,3.6-1,5.4c-0.2,0.7-1.1,2.8-1.4,3.2c-0.1,0.2-0.3,0.4-0.4,0.6c-0.5-0.1-1-0.2-1.4-0.4c-0.3-0.1-1.2-0.3-2.2-0.5
			c-2.1-0.4-3.6-0.8-4.2-1l-1.5-0.6L120.9,162.2z"/>
		<polygon id="XMLID_17136_" class="st10" points="164,147.8 157,170.2 161.6,172 168.8,149.4 		"/>
		<linearGradient id="XMLID_3_" gradientUnits="userSpaceOnUse" x1="185.3593" y1="167.2684" x2="160.8039" y2="159.1509">
			<stop  offset="0" style="stop-color:#FFFFFF;stop-opacity:0"/>
			<stop  offset="0.306" style="stop-color:#CECECF;stop-opacity:0.306"/>
			<stop  offset="0.6143" style="stop-color:#A4A4A5;stop-opacity:0.6143"/>
			<stop  offset="0.8563" style="stop-color:#8A8A8B;stop-opacity:0.8563"/>
			<stop  offset="1" style="stop-color:#808081"/>
		</linearGradient>
		<polygon id="XMLID_17135_" class="st11" points="168.8,149.4 161.6,172 183.2,179.2 190.4,156.3 		"/>
		<g id="XMLID_17133_">
			<path id="XMLID_17134_" class="st6" d="M133.9,170.4c-1.1,0-2.2-0.5-3-1.4l-44.1-51.4c-1.4-1.7-1.2-4.2,0.4-5.6
				c1.7-1.4,4.2-1.2,5.6,0.4l44.1,51.4c1.4,1.7,1.2,4.2-0.4,5.6C135.7,170.1,134.8,170.4,133.9,170.4z"/>
		</g>
		
			<rect id="XMLID_17132_" x="83.6" y="113.8" transform="matrix(0.7603 -0.6496 0.6496 0.7603 -54.2837 87.912)" class="st7" width="16.8" height="7.3"/>
		
			<rect id="XMLID_17131_" x="90.4" y="119.6" transform="matrix(0.7603 -0.6496 0.6496 0.7603 -56.4226 91.7227)" class="st12" width="11.3" height="5.5"/>
		<path id="XMLID_17130_" class="st8" d="M97.9,145.2c-0.6-2.3,0.3-4.2,2.4-5c1.4-0.5,2.6-0.9,3.9-1.4c1.5-0.5,2.9-1,4.2-1.4
			c1.7-0.5,3.5-0.4,5,0.5c1.8,1,2.4,3,1.5,4.9c-0.7,1.6-1.9,2.7-3.6,3.3c-0.5,0.2-0.9,0.4-1.5,0.6c-0.4,0.1-0.8,0.3-1.2,0.4
			c-0.2,0.1-0.3,0.1-0.5,0.2l-0.7,0.3c-0.3,0.1-0.6,0.2-0.8,0.3c-0.6,0.2-1.2,0.4-1.8,0.6c-0.2,0.1-0.5,0.2-0.7,0.3
			c-1.6,0.5-2.8,0.5-3.8,0C99.2,148.3,98.4,147.1,97.9,145.2z"/>
		<path id="XMLID_17129_" class="st8" d="M106.7,149.5c0.5-1,1.3-1.8,2.5-2.1l0.8-0.3c0.5-0.2,0.9-0.3,1.4-0.5
			c1.1-0.4,2.3-0.8,3.4-1.2c2-0.6,3.8-0.5,5.4,0.3c1.8,1,2.5,2.9,1.7,4.8c-0.6,1.4-1.5,2.4-2.8,3.1c-0.9,0.4-1.9,0.8-2.8,1.2
			c-0.4,0.2-0.8,0.3-1.2,0.5l-0.7,0.3l0-0.1l-1.1,0.4c-3.8,1.3-5.2,0.6-6.7-3.2C106.2,151.5,106.2,150.4,106.7,149.5z"/>
		<path id="XMLID_17128_" class="st8" d="M115.2,159.6c-0.7-2.1,0.2-4.1,2.3-4.9c0.5-0.2,1-0.4,1.5-0.5c0.2-0.1,0.4-0.1,0.7-0.2
			c0.2-0.1,0.4-0.1,0.6-0.2c0.5-0.2,1-0.4,1.5-0.5c1.9-0.6,3.6-0.4,5.1,0.3c1,0.5,1.7,1.3,2,2.3c0.3,0.9,0.2,1.9-0.3,2.8
			c-0.4,0.8-1.2,2-2.2,2.5c-1.4,0.7-2.9,1.3-4.4,1.8c-0.7,0.2-1.4,0.5-2.1,0.7c-1.7,0.5-3.4-0.6-4.1-2.4c-0.1-0.4-0.3-0.8-0.4-1.2
			L115.2,159.6z"/>
		<path id="XMLID_17127_" class="st9" d="M123.5,128.5c0,0,6.3,9.7,6.9,14.1c0,0-5.6-12.3-11.3-13.7
			C119.1,129,122.4,128.9,123.5,128.5z"/>
		<g id="XMLID_17121_">
			<path id="XMLID_17122_" class="st6" d="M58.7,27.9c-12.5,0-23.9,4.7-32.6,12.3c2,1.5,4,3,6,4.4c7.3-5.9,16.5-9.5,26.6-9.5
				c23.3,0,42.3,19,42.3,42.3c0,14.6-7.5,27.5-18.8,35.1c1,2.3,1.9,4.6,2.7,6.9c14-8.8,23.4-24.3,23.4-42.1
				C108.3,50.1,86,27.9,58.7,27.9z"/>
		</g>
		<g id="XMLID_17125_" class="st13">
			<path id="XMLID_17126_" class="st14" d="M104,86.6C103.9,86.6,103.9,86.6,104,86.6c-0.2,0-0.3-0.2-0.3-0.3
				c0-0.3,4-28.6-14.2-43.4c-17.8-14.4-30.6-12.5-44.3-8.8c-0.2,0-0.3-0.1-0.4-0.2c0-0.2,0.1-0.3,0.2-0.4
				c13.3-3.6,26.8-5.7,44.8,8.9c18.4,14.9,14.5,43.6,14.4,43.9C104.2,86.5,104.1,86.6,104,86.6z"/>
		</g>
		<g id="XMLID_17123_" class="st13">
			<circle id="XMLID_17124_" class="st14" cx="102.8" cy="90.2" r="1"/>
		</g>
	</g>
	<g id="XMLID_16631_" class="st0">
		<g id="XMLID_17116_">
			<path id="XMLID_17117_" class="st7" d="M118.9,67.3c0.9-0.4,1.5-0.6,1.9-0.7c0.4,0,1,0.1,1.9,0.5c1,0.2,1.7,0.4,2.2,0.4
				c0.5,0.1,1,0,1.5-0.3c0.6-0.3,1-0.7,1.2-1.2c0.2-0.5,0.1-1.1-0.2-1.7c-0.3-0.5-0.6-0.9-1.1-1.1c-0.5-0.2-1-0.2-1.6,0.1l-0.8-1.7
				l0-0.1c0.9-0.5,1.9-0.5,2.8-0.1c0.9,0.4,1.6,1.1,2.2,2.2c0.6,1.2,0.7,2.2,0.5,3.1c-0.3,0.9-0.9,1.7-2,2.2
				c-0.8,0.4-1.6,0.5-2.4,0.4c-0.8-0.1-1.8-0.3-2.8-0.7c-0.5-0.2-0.9-0.2-1.1-0.1c-0.3,0.1-0.7,0.2-1.2,0.5L118.9,67.3z M116.2,70.9
				l-0.9-1.8l1.8-0.9L118,70L116.2,70.9z"/>
		</g>
		<g id="XMLID_17112_">
			<path id="XMLID_17113_" class="st7" d="M123.4,49c0.7-0.7,1.2-1,1.6-1.2c0.4-0.1,1-0.2,1.9-0.1c1-0.1,1.8-0.1,2.2-0.2
				c0.5-0.1,0.9-0.3,1.4-0.7c0.5-0.5,0.8-1,0.8-1.5c0-0.5-0.2-1-0.7-1.5c-0.4-0.4-0.9-0.7-1.4-0.8s-1,0.1-1.5,0.5l-1.3-1.3l0-0.1
				c0.8-0.7,1.6-1.1,2.6-0.9c1,0.1,1.9,0.6,2.7,1.5c0.9,0.9,1.3,1.9,1.4,2.9c0,1-0.4,1.9-1.3,2.7c-0.6,0.6-1.3,1-2.2,1.1
				c-0.8,0.2-1.8,0.2-2.8,0.2c-0.5,0-0.9,0.1-1.1,0.2s-0.6,0.4-1,0.8L123.4,49z M121.9,53.3l-1.4-1.5l1.5-1.4l1.4,1.5L121.9,53.3z"
				/>
		</g>
		<g id="XMLID_17106_">
			<path id="XMLID_17109_" class="st7" d="M119.1,34.8c0.1-0.6,0.1-1,0.3-1.2c0.1-0.2,0.4-0.5,0.8-0.8c0.4-0.4,0.7-0.7,0.9-1
				c0.2-0.2,0.3-0.5,0.3-0.9c0-0.4,0-0.7-0.2-1c-0.2-0.2-0.5-0.4-0.9-0.4c-0.4,0-0.7,0-0.9,0.2c-0.3,0.2-0.4,0.4-0.5,0.8l-1.1-0.1
				l0,0c0-0.6,0.3-1.1,0.8-1.4c0.5-0.3,1.1-0.5,1.8-0.4c0.8,0.1,1.3,0.3,1.7,0.7c0.4,0.4,0.6,1,0.5,1.7c0,0.5-0.2,1-0.5,1.3
				c-0.3,0.4-0.7,0.8-1.2,1.2c-0.2,0.2-0.4,0.4-0.4,0.5s-0.1,0.4-0.1,0.8L119.1,34.8z M120.1,37.3l-1.2-0.1l0.1-1.2l1.2,0.1
				L120.1,37.3z"/>
		</g>
		<g id="XMLID_16632_">
			<path id="XMLID_16633_" class="st7" d="M108.1,52.7c0-0.6,0.1-1.1,0.2-1.3c0.1-0.2,0.4-0.6,0.9-1c0.5-0.5,0.8-0.9,1-1.2
				c0.2-0.3,0.3-0.6,0.3-1c0-0.5-0.1-0.8-0.3-1.1c-0.2-0.3-0.6-0.4-1.1-0.4c-0.4,0-0.7,0.1-1,0.3c-0.3,0.2-0.4,0.5-0.4,1l-1.2,0l0,0
				c0-0.7,0.3-1.3,0.8-1.7c0.5-0.4,1.2-0.6,2-0.6c0.9,0,1.5,0.3,2,0.7c0.5,0.5,0.7,1.1,0.7,1.9c0,0.6-0.2,1.1-0.5,1.5
				c-0.3,0.5-0.7,0.9-1.3,1.4c-0.2,0.2-0.4,0.4-0.5,0.6s-0.1,0.5-0.1,0.9L108.1,52.7z M109.4,55.5l-1.4,0l0-1.4l1.4,0L109.4,55.5z"
				/>
		</g>
	</g>
</g>
</svg>
