<?xml version="1.0" encoding="utf-8"?>
<!-- Generator: Adobe Illustrator 19.0.0, SVG Export Plug-In . SVG Version: 6.00 Build 0)  -->
<svg version="1.1" id="Calque_1" xmlns="http://www.w3.org/2000/svg" xmlns:xlink="http://www.w3.org/1999/xlink" x="0px" y="0px"
	 viewBox="0 0 110 28" style="enable-background:new 0 0 110 28;" xml:space="preserve">
<style type="text/css">
	.st0{fill:#161616;}
</style>
<g id="XMLID_10192_">
	<g id="XMLID_10243_">
		<path id="XMLID_10259_" class="st0" d="M79.5,24.1C79.5,24.1,79.5,24.1,79.5,24.1C79.5,24.1,79.5,24.1,79.5,24.1
			c-0.1,0.1-0.2,0-0.2,0c0,0-0.1-0.1-0.2-0.1c-0.1,0-0.2-0.1-0.3-0.1c-0.1,0-0.3-0.1-0.5-0.1c-0.2,0-0.5,0-0.7,0.1
			c-0.2,0.1-0.3,0.2-0.5,0.4c-0.1,0.2-0.2,0.4-0.3,0.6c-0.1,0.2-0.1,0.5-0.1,0.8c0,0.3,0,0.6,0.1,0.8c0.1,0.2,0.2,0.4,0.3,0.6
			c0.1,0.2,0.3,0.3,0.5,0.4c0.2,0.1,0.4,0.1,0.6,0.1c0.2,0,0.4,0,0.5-0.1c0.1,0,0.3-0.1,0.3-0.2c0.1-0.1,0.2-0.1,0.2-0.2
			c0.1,0,0.1-0.1,0.1-0.1c0,0,0.1,0,0.1,0l0.1,0.1c-0.1,0.1-0.1,0.2-0.2,0.2c-0.1,0.1-0.2,0.1-0.3,0.2c-0.1,0.1-0.3,0.1-0.4,0.1
			c-0.1,0-0.3,0-0.5,0c-0.3,0-0.5,0-0.7-0.1c-0.2-0.1-0.4-0.2-0.6-0.4c-0.2-0.2-0.3-0.4-0.4-0.7c-0.1-0.3-0.1-0.6-0.1-0.9
			c0-0.3,0-0.6,0.1-0.9c0.1-0.3,0.2-0.5,0.4-0.7c0.2-0.2,0.4-0.3,0.6-0.5c0.2-0.1,0.5-0.2,0.8-0.2c0.3,0,0.5,0,0.7,0.1
			c0.2,0.1,0.4,0.2,0.6,0.4L79.5,24.1z"/>
		<path id="XMLID_10257_" class="st0" d="M81.1,21.5v6.2h-0.4v-6.2H81.1z"/>
		<path id="XMLID_10254_" class="st0" d="M84.3,23.4c0.3,0,0.6,0.1,0.8,0.2c0.2,0.1,0.4,0.3,0.6,0.4c0.2,0.2,0.3,0.4,0.4,0.7
			c0.1,0.3,0.1,0.6,0.1,0.9c0,0.3,0,0.6-0.1,0.9c-0.1,0.3-0.2,0.5-0.4,0.7c-0.2,0.2-0.4,0.3-0.6,0.4c-0.2,0.1-0.5,0.2-0.8,0.2
			s-0.6-0.1-0.8-0.2c-0.2-0.1-0.4-0.2-0.6-0.4c-0.2-0.2-0.3-0.4-0.4-0.7c-0.1-0.3-0.1-0.6-0.1-0.9c0-0.3,0-0.6,0.1-0.9
			c0.1-0.3,0.2-0.5,0.4-0.7c0.2-0.2,0.4-0.3,0.6-0.4C83.7,23.5,84,23.4,84.3,23.4z M84.3,27.5c0.3,0,0.5,0,0.7-0.1
			c0.2-0.1,0.3-0.2,0.5-0.4c0.1-0.2,0.2-0.4,0.3-0.6c0.1-0.2,0.1-0.5,0.1-0.8c0-0.3,0-0.5-0.1-0.8c-0.1-0.2-0.2-0.4-0.3-0.6
			c-0.1-0.2-0.3-0.3-0.5-0.4c-0.2-0.1-0.4-0.1-0.7-0.1s-0.5,0-0.7,0.1c-0.2,0.1-0.3,0.2-0.5,0.4c-0.1,0.2-0.2,0.4-0.3,0.6
			c-0.1,0.2-0.1,0.5-0.1,0.8c0,0.3,0,0.5,0.1,0.8s0.2,0.4,0.3,0.6c0.1,0.2,0.3,0.3,0.5,0.4C83.8,27.4,84,27.5,84.3,27.5z"/>
		<path id="XMLID_10249_" class="st0" d="M87.6,23.5v2.7c0,0.4,0.1,0.7,0.3,0.9c0.2,0.2,0.5,0.3,0.8,0.3c0.3,0,0.5-0.1,0.8-0.2
			c0.2-0.1,0.5-0.3,0.6-0.6v-3.2h0.4v4.3h-0.2c-0.1,0-0.1,0-0.1-0.1l0-0.6c-0.2,0.2-0.4,0.4-0.7,0.6c-0.3,0.1-0.5,0.2-0.9,0.2
			c-0.2,0-0.4,0-0.6-0.1c-0.2-0.1-0.3-0.2-0.4-0.3s-0.2-0.3-0.3-0.5c-0.1-0.2-0.1-0.4-0.1-0.7v-2.7H87.6z"/>
		<path id="XMLID_10244_" class="st0" d="M94.9,27.7c-0.1,0-0.1,0-0.1-0.1l0-0.7c-0.2,0.3-0.4,0.5-0.7,0.6c-0.3,0.2-0.5,0.2-0.8,0.2
			c-0.5,0-0.9-0.2-1.2-0.5c-0.3-0.4-0.4-0.9-0.4-1.6c0-0.3,0-0.6,0.1-0.9c0.1-0.3,0.2-0.5,0.4-0.7c0.2-0.2,0.4-0.4,0.6-0.5
			c0.2-0.1,0.5-0.2,0.8-0.2c0.3,0,0.5,0.1,0.7,0.2c0.2,0.1,0.4,0.3,0.5,0.5v-2.5h0.4v6.2H94.9z M93.3,27.5c0.3,0,0.5-0.1,0.8-0.2
			s0.4-0.3,0.6-0.6v-2.2c-0.2-0.2-0.3-0.4-0.5-0.5c-0.2-0.1-0.4-0.1-0.7-0.1c-0.3,0-0.5,0-0.7,0.1c-0.2,0.1-0.3,0.2-0.5,0.4
			c-0.1,0.2-0.2,0.4-0.3,0.6C92,25.1,92,25.3,92,25.6c0,0.6,0.1,1.1,0.4,1.4C92.6,27.3,92.9,27.5,93.3,27.5z"/>
	</g>
	<g id="XMLID_10195_">
		<g id="XMLID_10236_">
			<path id="XMLID_10240_" class="st0" d="M106.2,6.4c-1.6,0-3.1-1.3-3.1-3.3c0-1.6,1.1-2.8,2.6-3c0.3,0,0.7,0,1,0
				c1.5,0.2,2.6,1.5,2.6,3C109.4,5.2,108,6.4,106.2,6.4z M106.7,0.8c-0.3,0-0.6,0-0.8,0c-1.2,0.2-2,1.2-2,2.4c0,1.6,1.1,2.6,2.4,2.6
				c1.4,0,2.4-1,2.4-2.6C108.6,1.9,107.9,1,106.7,0.8z"/>
			<path id="XMLID_10237_" class="st0" d="M99.7,6.4c-0.8,0-1.5-0.3-1.9-0.9c-0.4-0.5-0.6-1.1-0.6-1.8c0.1-1.1,0.7-2,1.8-2.3
				c0.3-0.1,0.5-0.1,0.7-0.1c0.2,0,0.5,0,0.7,0.1c1.1,0.3,1.7,1.2,1.8,2.3c0,0.7-0.2,1.3-0.6,1.8C101.1,6.1,100.4,6.4,99.7,6.4z
				 M99.1,2.1c-0.8,0.2-1.3,1-1.3,1.8c0,0.4,0.2,0.9,0.4,1.2c0.3,0.4,0.9,0.6,1.4,0.6c0.5,0,1-0.2,1.4-0.6c0.3-0.3,0.4-0.8,0.4-1.2
				c0-0.9-0.5-1.6-1.3-1.8C100,2,99.9,2,99.7,2C99.5,2,99.3,2,99.1,2.1z"/>
		</g>
		<g id="XMLID_10198_">
			<g id="XMLID_10213_">
				<path id="XMLID_10234_" class="st0" d="M51,9c0.2-0.3,0.5-0.2,0.5,0.1v10.1c0,0.4-0.5,0.4-0.5,0V10l-3.9,6.7
					c-0.1,0.3-0.4,0.3-0.5,0l-3.9-6.7v9.1c0,0.4-0.5,0.4-0.5,0V9.1c0-0.3,0.3-0.4,0.5-0.1l4.2,7.2L51,9z"/>
				<path id="XMLID_10229_" class="st0" d="M53.7,14c0.1-2.5,1.5-4.7,3.8-5.1c0.5-0.1,1.1-0.1,1.6,0c2.3,0.4,3.9,2.6,4,5.1
					c0.1,3.1-2.1,5.5-4.7,5.5C55.8,19.5,53.6,17.1,53.7,14z M54.2,14c-0.1,2.8,1.9,5,4.2,5c2.3,0,4.3-2.2,4.2-5
					c-0.1-2.3-1.5-4.3-3.5-4.6c-0.5-0.1-1-0.1-1.4,0C55.5,9.8,54.3,11.8,54.2,14z"/>
				<path id="XMLID_10227_" class="st0" d="M71.8,8.8c0.4,0,0.4,0.5,0,0.5h-3.9l0,9.9c0,0.2-0.2,0.3-0.3,0.3c-0.1,0-0.3-0.1-0.3-0.3
					V9.3h-3.9c-0.4,0-0.4-0.5,0-0.5C66.2,8.8,69,8.8,71.8,8.8z"/>
				<path id="XMLID_10225_" class="st0" d="M73.6,9.1c0-0.4,0.5-0.4,0.5,0v10.1c0,0.4-0.5,0.4-0.5,0V9.1z"/>
				<path id="XMLID_10216_" class="st0" d="M76.3,14c0.1-2.5,1.5-4.7,3.8-5.1c0.5-0.1,1.1-0.1,1.6,0c2.3,0.4,3.9,2.6,4,5.1
					c0.1,3.1-2.1,5.5-4.7,5.5C78.5,19.5,76.3,17.1,76.3,14z M76.8,14c-0.1,2.8,1.9,5,4.2,5c2.3,0,4.3-2.2,4.2-5
					c-0.1-2.3-1.5-4.3-3.6-4.6c-0.5-0.1-1-0.1-1.4,0C78.1,9.8,76.9,11.8,76.8,14z"/>
				<path id="XMLID_10214_" class="st0" d="M95,9.2c0-0.4,0.5-0.4,0.5,0v10c0,0.4-0.3,0.4-0.5,0.1l-6.6-9.5v9.4c0,0.4-0.5,0.4-0.5,0
					v-10c0-0.4,0.3-0.5,0.5-0.2l6.6,9.5V9.2z"/>
			</g>
			<g id="XMLID_10199_">
				<path id="XMLID_10211_" class="st0" d="M6.3,18.1c0.4,0,0.8,0,1.2-0.1c0.3-0.1,0.6-0.2,1-0.3v-1.9H7c-0.1,0-0.2,0-0.3-0.1
					c-0.1-0.1-0.1-0.2-0.1-0.3v-1.1h3.6v4.3c-0.3,0.2-0.6,0.4-0.8,0.5c-0.3,0.1-0.6,0.3-0.9,0.4c-0.3,0.1-0.7,0.2-1.1,0.2
					c-0.4,0-0.8,0.1-1.2,0.1c-0.8,0-1.5-0.1-2.2-0.4c-0.7-0.3-1.2-0.6-1.7-1.1c-0.5-0.5-0.9-1.1-1.1-1.7c-0.3-0.7-0.4-1.4-0.4-2.2
					c0-0.8,0.1-1.5,0.4-2.2c0.3-0.7,0.6-1.2,1.1-1.7C2.7,9.8,3.3,9.4,4,9.1c0.7-0.3,1.5-0.4,2.3-0.4c0.9,0,1.6,0.1,2.3,0.4
					c0.6,0.3,1.2,0.6,1.6,1L9.6,11c-0.1,0.2-0.3,0.3-0.5,0.3c-0.1,0-0.2,0-0.4-0.1c-0.2-0.1-0.3-0.2-0.5-0.3
					c-0.2-0.1-0.3-0.2-0.5-0.2c-0.2-0.1-0.4-0.1-0.7-0.2c-0.2,0-0.5-0.1-0.9-0.1c-0.5,0-1,0.1-1.4,0.3c-0.4,0.2-0.8,0.4-1.1,0.8
					c-0.3,0.3-0.5,0.7-0.7,1.2c-0.2,0.5-0.2,1-0.2,1.5c0,0.6,0.1,1.2,0.3,1.6c0.2,0.5,0.4,0.9,0.7,1.2c0.3,0.3,0.7,0.6,1.1,0.8
					C5.3,18,5.7,18.1,6.3,18.1z"/>
				<path id="XMLID_10209_" class="st0" d="M18.8,8.9v1.6H14v3h3.7v1.5H14v3h4.7v1.6H12V8.9H18.8z"/>
				<path id="XMLID_10207_" class="st0" d="M21.8,8.9c0.1,0,0.1,0,0.2,0C22,8.9,22,9,22.1,9c0,0,0.1,0.1,0.1,0.2l5.6,7.1
					c0-0.2,0-0.3,0-0.5c0-0.2,0-0.3,0-0.5V8.9h1.8v10.7h-1c-0.2,0-0.3,0-0.4-0.1c-0.1,0-0.2-0.1-0.3-0.3l-5.6-7.1c0,0.2,0,0.3,0,0.5
					c0,0.2,0,0.3,0,0.4v6.5h-1.8V8.9h1C21.6,8.9,21.7,8.9,21.8,8.9z"/>
				<path id="XMLID_10200_" class="st0" d="M36.4,15.4v4.1h-2v-4.1l-3.9-6.5h1.8c0.2,0,0.3,0,0.4,0.1c0.1,0.1,0.2,0.2,0.3,0.3l2,3.6
					c0.1,0.2,0.2,0.4,0.3,0.6c0.1,0.2,0.2,0.4,0.2,0.6c0.1-0.2,0.1-0.4,0.2-0.6c0.1-0.2,0.2-0.4,0.3-0.6l1.9-3.6
					C38,9.2,38,9.1,38.1,9c0.1-0.1,0.2-0.1,0.4-0.1h1.8L36.4,15.4z"/>
			</g>
		</g>
	</g>
</g>
</svg>
