<?xml version="1.0" encoding="utf-8"?>
<!-- Generator: Adobe Illustrator 19.1.0, SVG Export Plug-In . SVG Version: 6.00 Build 0)  -->
<svg version="1.1" id="Calque_1" xmlns="http://www.w3.org/2000/svg" xmlns:xlink="http://www.w3.org/1999/xlink" x="0px" y="0px"
	 viewBox="-248 333 202 36" style="enable-background:new -248 333 202 36;" xml:space="preserve">
<style type="text/css">
	.st0{fill:#FFFFFF;}
	.st1{fill:#E61A5F;}
</style>
<g>
	<path class="st0" d="M-51.8,344.7c-3,0-5.7-2.3-5.7-6c0-2.9,2.1-5.2,4.9-5.6c0.6-0.1,1.2-0.1,1.9,0c2.8,0.4,4.7,2.8,4.7,5.6
		C-46,342.4-48.6,344.7-51.8,344.7z M-50.9,334.2c-0.5-0.1-1-0.1-1.5,0c-2.2,0.4-3.7,2.2-3.7,4.5c0,3,2,4.8,4.4,4.8
		c2.5,0,4.4-1.8,4.4-4.8C-47.3,336.3-48.7,334.6-50.9,334.2L-50.9,334.2z M-63.9,344.7c-1.4,0-2.7-0.5-3.6-1.6
		c-0.8-0.9-1.1-2.1-1.1-3.4c0.2-2,1.4-3.6,3.3-4.2c0.5-0.1,0.9-0.2,1.3-0.2c0.4,0,0.9,0,1.4,0.2c2,0.5,3.1,2.2,3.3,4.2
		c0.1,1.3-0.3,2.5-1.1,3.4C-61.2,344.1-62.5,344.7-63.9,344.7L-63.9,344.7z M-64.9,336.7c-1.5,0.4-2.4,1.8-2.4,3.4
		c0,0.8,0.3,1.6,0.8,2.2c0.6,0.7,1.6,1.2,2.6,1.2c1,0,1.9-0.4,2.5-1.2c0.5-0.6,0.8-1.5,0.8-2.2c0-1.6-0.9-3-2.4-3.4
		c-0.3-0.1-0.6-0.1-0.9-0.1C-64.2,336.5-64.6,336.6-64.9,336.7L-64.9,336.7z"/>
</g>
<g>
	<path class="st1" d="M-155.3,349.4c0.3-0.5,0.9-0.4,0.9,0.2v18.6c0,0.7-0.9,0.7-0.9,0v-16.9l-7.2,12.4c-0.2,0.5-0.8,0.5-1,0
		l-7.2-12.4v16.9c0,0.7-0.9,0.7-0.9,0v-18.6c0-0.6,0.6-0.8,0.9-0.2l7.8,13.3L-155.3,349.4L-155.3,349.4z M-150.3,358.7
		c0.1-4.6,2.7-8.7,7-9.4c0.9-0.1,2-0.1,2.9,0c4.3,0.7,7.2,4.8,7.3,9.4c0.2,5.7-3.9,10.1-8.6,10.1
		C-146.4,368.8-150.4,364.4-150.3,358.7L-150.3,358.7z M-149.4,358.7c-0.1,5.1,3.5,9.2,7.7,9.2c4.2,0,7.8-4.1,7.7-9.2
		c-0.1-4.2-2.7-7.8-6.6-8.5c-0.9-0.1-1.8-0.1-2.6,0C-147,350.8-149.3,354.5-149.4,358.7L-149.4,358.7z M-116.8,349.1
		c0.7,0,0.7,0.9,0,0.9h-7.2l0,18.2c0,0.4-0.3,0.6-0.5,0.6c-0.2,0-0.5-0.2-0.5-0.6V350h-7.2c-0.7,0-0.7-0.9,0-0.9L-116.8,349.1
		L-116.8,349.1z M-113.6,349.7c0-0.8,1-0.8,1,0v18.6c0,0.7-1,0.7-1,0L-113.6,349.7L-113.6,349.7z M-108.5,358.7
		c0.1-4.6,2.7-8.7,7-9.4c0.9-0.1,2-0.1,2.9,0c4.3,0.7,7.2,4.8,7.3,9.4c0.2,5.7-3.9,10.1-8.6,10.1
		C-104.6,368.8-108.6,364.4-108.5,358.7L-108.5,358.7z M-107.6,358.7c-0.1,5.1,3.5,9.2,7.7,9.2c4.2,0,7.9-4.1,7.7-9.2
		c-0.1-4.2-2.7-7.9-6.6-8.5c-0.9-0.1-1.8-0.1-2.7,0C-105.2,350.8-107.5,354.5-107.6,358.7L-107.6,358.7z M-74,349.7
		c0-0.8,0.9-0.8,0.9,0v18.5c0,0.7-0.6,0.7-1,0.2L-86.2,351v17.2c0,0.7-0.9,0.7-0.9,0v-18.5c0-0.8,0.6-0.9,1-0.3l12.1,17.4L-74,349.7
		L-74,349.7z"/>
</g>
<g>
	<path class="st0" d="M-237.8,366.1c0.8,0,1.6-0.1,2.2-0.2c0.6-0.1,1.2-0.4,1.8-0.6v-3.6h-2.5c-0.2,0-0.4-0.1-0.6-0.2
		c-0.1-0.1-0.2-0.3-0.2-0.5v-2.1h6.6v7.9c-0.5,0.4-1,0.7-1.6,0.9c-0.5,0.3-1.1,0.5-1.7,0.7c-0.6,0.2-1.3,0.3-2,0.4
		c-0.7,0.1-1.4,0.1-2.3,0.1c-1.4,0-2.8-0.2-4-0.7c-1.2-0.5-2.3-1.2-3.1-2.1c-0.9-0.9-1.6-1.9-2.1-3.2c-0.5-1.2-0.7-2.6-0.7-4
		c0-1.5,0.2-2.8,0.7-4.1c0.5-1.2,1.2-2.3,2.1-3.2c0.9-0.9,2-1.6,3.2-2.1s2.7-0.7,4.3-0.7c1.6,0,3,0.2,4.2,0.7c1.2,0.5,2.2,1.1,3,1.9
		l-1.1,1.7c-0.2,0.3-0.5,0.5-0.8,0.5c-0.2,0-0.4-0.1-0.7-0.2c-0.3-0.2-0.6-0.3-0.9-0.5c-0.3-0.2-0.6-0.3-1-0.4
		c-0.4-0.1-0.8-0.2-1.2-0.3c-0.5-0.1-1-0.1-1.6-0.1c-1,0-1.9,0.2-2.6,0.5c-0.8,0.3-1.5,0.8-2,1.4c-0.6,0.6-1,1.3-1.3,2.2
		c-0.3,0.9-0.5,1.8-0.5,2.9c0,1.1,0.2,2.1,0.5,3c0.3,0.9,0.8,1.6,1.3,2.2c0.6,0.6,1.3,1.1,2,1.4S-238.7,366.1-237.8,366.1
		L-237.8,366.1z M-214.7,349.1v2.9h-8.7v5.4h6.9v2.8h-6.9v5.6h8.7v2.9h-12.4v-19.6L-214.7,349.1L-214.7,349.1z M-209.2,349.2
		c0.1,0,0.2,0,0.3,0.1c0.1,0,0.2,0.1,0.3,0.2c0.1,0.1,0.2,0.2,0.3,0.3l10.4,13.1c0-0.3-0.1-0.6-0.1-0.9c0-0.3,0-0.6,0-0.9v-11.9h3.2
		v19.6h-1.9c-0.3,0-0.5,0-0.7-0.1c-0.2-0.1-0.4-0.3-0.6-0.5l-10.3-13.1c0,0.3,0,0.6,0.1,0.9c0,0.3,0,0.5,0,0.8v12.1h-3.2v-19.6h1.9
		C-209.4,349.1-209.3,349.1-209.2,349.2L-209.2,349.2z M-182.1,361.1v7.6h-3.7v-7.6l-7.2-12h3.2c0.3,0,0.6,0.1,0.8,0.2
		c0.2,0.2,0.3,0.3,0.5,0.6l3.6,6.6c0.2,0.4,0.4,0.8,0.5,1.1c0.2,0.4,0.3,0.7,0.4,1c0.1-0.3,0.3-0.7,0.4-1c0.1-0.3,0.3-0.7,0.5-1.1
		l3.6-6.6c0.1-0.2,0.2-0.4,0.4-0.6c0.2-0.2,0.5-0.3,0.8-0.3h3.2L-182.1,361.1L-182.1,361.1z"/>
</g>
</svg>
