<?xml version="1.0" encoding="utf-8"?>
<!-- Generator: Adobe Illustrator 19.1.0, SVG Export Plug-In . SVG Version: 6.00 Build 0)  -->
<svg version="1.1" id="Calque_1" xmlns="http://www.w3.org/2000/svg" xmlns:xlink="http://www.w3.org/1999/xlink" x="0px" y="0px"
	 viewBox="760 -340 1920 1080" style="enable-background:new 760 -340 1920 1080;" xml:space="preserve">
<style type="text/css">
	.st0{display:none;}
	.st1{display:inline;}
	.st2{fill:#202020;}
	.st3{fill:#333333;}
	.st4{display:inline;enable-background:new    ;}
	.st5{fill:#3C3C3B;}
	.st6{opacity:0.7;}
	.st7{display:inline;fill:#333333;}
	.st8{display:inline;fill:#3C3C3B;}
</style>
<g id="Calque_1_1_" class="st0">
	<g class="st1">
		<rect x="759.8" y="-339.9" class="st2" width="1920.3" height="1089.9"/>
	</g>
	<g class="st1">
		<polygon class="st3" points="1754,-3.2 1755.2,0.3 1758.8,0.3 1755.9,2.5 1757,6 1754,3.8 1751,6 1752.2,2.5 1749.2,0.3 
			1752.9,0.3 		"/>
	</g>
	<g class="st1">
		<polygon class="st3" points="1454.8,100.5 1456,104 1459.7,104 1456.7,106.2 1457.8,109.7 1454.8,107.5 1451.8,109.7 1453,106.2 
			1450,104 1453.7,104 		"/>
	</g>
	<g class="st1">
		<polygon class="st3" points="1234.8,-41.5 1236,-38 1239.7,-38 1236.7,-35.8 1237.8,-32.3 1234.8,-34.5 1231.8,-32.3 1233,-35.8 
			1230,-38 1233.7,-38 		"/>
	</g>
	<g class="st1">
		<polygon class="st3" points="1145.8,128.5 1147,132 1150.7,132 1147.7,134.2 1148.8,137.7 1145.8,135.5 1142.8,137.7 1144,134.2 
			1141,132 1144.7,132 		"/>
	</g>
	<g class="st1">
		<polygon class="st3" points="892.8,-225.5 894,-222 897.7,-222 894.7,-219.8 895.8,-216.3 892.8,-218.5 889.8,-216.3 891,-219.8 
			888,-222 891.7,-222 		"/>
	</g>
	<g class="st1">
		<polygon class="st3" points="2213.8,-197.5 2215,-194 2218.7,-194 2215.7,-191.8 2216.8,-188.3 2213.8,-190.5 2210.8,-188.3 
			2212,-191.8 2209,-194 2212.7,-194 		"/>
	</g>
	<g class="st1">
		<polygon class="st3" points="2527.8,84.5 2529,88 2532.7,88 2529.7,90.2 2530.8,93.7 2527.8,91.5 2524.8,93.7 2526,90.2 2523,88 
			2526.7,88 		"/>
	</g>
	<g class="st4">
		<polygon class="st5" points="2032.1,59.5 2033.3,63 2037,63 2034,65.2 2035.1,68.7 2032.1,66.5 2029.2,68.7 2030.3,65.2 
			2027.3,63 2031,63 		"/>
	</g>
	<g class="st4">
		<polygon class="st5" points="1699.1,-206.5 1700.3,-203 1704,-203 1701,-200.8 1702.1,-197.3 1699.1,-199.5 1696.2,-197.3 
			1697.3,-200.8 1694.3,-203 1698,-203 		"/>
	</g>
	<g class="st4">
		<polygon class="st5" points="2534.1,-245.5 2535.3,-242 2539,-242 2536,-239.8 2537.1,-236.3 2534.1,-238.5 2531.2,-236.3 
			2532.3,-239.8 2529.3,-242 2533,-242 		"/>
	</g>
	<g class="st4">
		<polygon class="st5" points="1317.1,43.5 1318.3,47 1322,47 1319,49.2 1320.1,52.7 1317.1,50.5 1314.2,52.7 1315.3,49.2 
			1312.3,47 1316,47 		"/>
	</g>
	<g class="st4">
		<polygon class="st5" points="848.1,144.3 849.3,147.8 853,147.8 850,150 851.1,153.5 848.1,151.3 845.2,153.5 846.3,150 
			843.3,147.8 847,147.8 		"/>
	</g>
</g>
<g id="montgolfieres" class="st0">
	<g class="st1">
		<g class="st6">
			<path class="st5" d="M1473.4,574.5c1.4,4.1,3.3,8.1,5,12h0.1c-0.5-1.2-4.3-9.7-4.9-11.8L1473.4,574.5z"/>
			<path class="st5" d="M1475.6,576.9c0.6,3.2,1.8,6.5,3.2,9.5h0.2c-1.4-2.7-2.6-6.1-3.2-9.3L1475.6,576.9z"/>
			<path class="st5" d="M1477,578.4c0.4,2.7,1.2,5.5,2.2,8.1h0.2c-1.1-2.4-1.9-5.3-2.2-8L1477,578.4z"/>
			<path class="st5" d="M1478.2,579.9c0.2,2.3,0.6,4.4,1.3,6.6h0.1c-0.8-2.7-1.2-4.3-1.3-6.5L1478.2,579.9z"/>
			<path class="st5" d="M1480.1,581c0,1.8,0.1,3.6,0,5.4h0.1C1480.2,584.6,1480.2,582.8,1480.1,581L1480.1,581z"/>
			<path class="st5" d="M1481,581.1c0,1.8-0.3,3.6-0.6,5.4h0.1c0.3-1.8,0.6-3.6,0.7-5.4H1481z"/>
			<path class="st5" d="M1487.1,574.5c-1.5,4-3.5,8-5.3,11.9h-0.1c0.6-1.2,4.5-9.6,5.2-11.7L1487.1,574.5z"/>
			<path class="st5" d="M1484.8,576.9c-0.6,3.2-1.8,6.5-3.2,9.5h-0.2c1.4-2.7,2.6-6.1,3.2-9.3L1484.8,576.9z"/>
			<path class="st5" d="M1483.4,578.4c-0.4,2.7-1.2,5.5-2.2,8.1h-0.2c1.1-2.4,1.9-5.3,2.2-8L1483.4,578.4z"/>
			<path class="st5" d="M1482.2,579.9c-0.2,2.3-0.6,4.4-1.3,6.6h-0.1C1481.6,583.8,1482,582.2,1482.2,579.9L1482.2,579.9z"/>
			<path class="st5" d="M1479.3,581.1c0,1.8,0.3,3.6,0.6,5.4h-0.1c-0.3-1.8-0.6-3.6-0.7-5.4H1479.3z"/>
		</g>
		<path class="st5" d="M1481.2,588.8h-2.2c-0.3-0.3-0.3-0.7-0.4-1.1c-0.1-0.5-0.3-0.9-0.4-1.4h3.9c-0.2,0.5-0.4,0.9-0.5,1.4
			S1481.5,588.4,1481.2,588.8z"/>
		<path class="st5" d="M1489.6,566.5c-0.2-0.9-0.7-1.8-1.3-2.4c0,0-0.1-0.1-0.1-0.2c-0.3-1-1-1.7-1.8-2.3c-1-0.8-2.2-1-3.4-0.7l0,0
			c-0.1,0-0.1,0-0.2-0.1c-0.4-0.5-1-0.7-1.6-0.9l0,0h-0.6c-0.4,0.1-0.8,0.2-1.1,0.4c-0.1,0.1-0.2,0.1-0.3,0.2
			c-0.2,0-0.5,0.1-0.7,0.1c-1-0.3-1.9-0.2-2.8,0.3c-0.8,0.4-1.5,1-1.9,1.9c0,0.1-0.1,0.1-0.1,0.1c-1.1,0.7-1.7,1.7-2.1,2.9
			c-0.1,0.4-0.2,0.8-0.3,1.2v0.9c0,0.2,0.1,0.4,0.1,0.6c0.1,0.3,0.1,0.6,0.2,0.9l0,0c0.1,2.1,0.9,4.1,2.7,6c1.4,1.5,2.8,2.9,4.1,4.5
			c0.3,0.4,0.5,0.8,0.5,1.3h2.8c0-0.5,0.3-0.9,0.6-1.2c1.4-1.6,3-3,4.4-4.6c1.3-1.4,2.1-2.8,2.4-4.3c0.4-0.9,0.6-1.8,0.7-2.8
			c0-0.1,0-0.1,0-0.2v-1C1489.6,566.9,1489.6,566.7,1489.6,566.5z"/>
	</g>
	<g class="st1">
		<g class="st6">
			<path class="st5" d="M2399.9,416.7c1.4,4.1,3.3,8.1,5,12h0.1c-0.5-1.2-4.3-9.7-4.9-11.8L2399.9,416.7z"/>
			<path class="st5" d="M2402.1,419.1c0.6,3.2,1.8,6.5,3.2,9.5h0.2c-1.4-2.7-2.6-6.1-3.2-9.3L2402.1,419.1z"/>
			<path class="st5" d="M2403.5,420.6c0.4,2.7,1.2,5.5,2.2,8.1h0.2c-1.1-2.4-1.9-5.3-2.2-8L2403.5,420.6z"/>
			<path class="st5" d="M2404.7,422.1c0.2,2.3,0.6,4.4,1.3,6.6h0.1C2405.3,426,2404.9,424.4,2404.7,422.1L2404.7,422.1z"/>
			<path class="st5" d="M2406.6,423.3c0,1.8,0.1,3.6,0,5.4h0.1C2406.7,426.9,2406.7,425.1,2406.6,423.3L2406.6,423.3z"/>
			<path class="st5" d="M2407.5,423.3c0,1.8-0.3,3.6-0.6,5.4h0.1c0.3-1.8,0.6-3.6,0.7-5.4H2407.5z"/>
			<path class="st5" d="M2413.7,416.7c-1.5,4-3.5,8-5.3,11.9h-0.1c0.6-1.2,4.5-9.6,5.2-11.7L2413.7,416.7z"/>
			<path class="st5" d="M2411.3,419.1c-0.6,3.2-1.8,6.5-3.2,9.5h-0.2c1.4-2.7,2.6-6.1,3.2-9.3L2411.3,419.1z"/>
			<path class="st5" d="M2409.9,420.6c-0.4,2.7-1.2,5.5-2.2,8.1h-0.2c1.1-2.4,1.9-5.3,2.2-8L2409.9,420.6z"/>
			<path class="st5" d="M2408.7,422.1c-0.2,2.3-0.6,4.4-1.3,6.6h-0.1C2408.1,426,2408.5,424.4,2408.7,422.1L2408.7,422.1z"/>
			<path class="st5" d="M2405.8,423.3c0,1.8,0.3,3.6,0.6,5.4h-0.1c-0.3-1.8-0.6-3.6-0.7-5.4H2405.8z"/>
		</g>
		<path class="st5" d="M2407.7,431h-2.2c-0.3-0.3-0.3-0.7-0.4-1.1c-0.1-0.5-0.3-0.9-0.4-1.4h3.9c-0.2,0.5-0.4,0.9-0.5,1.4
			C2408,430.4,2408,430.6,2407.7,431z"/>
		<path class="st5" d="M2416.1,408.7c-0.2-0.9-0.7-1.8-1.3-2.4c0,0-0.1-0.1-0.1-0.2c-0.3-1-1-1.7-1.8-2.3c-1-0.8-2.2-1-3.4-0.7l0,0
			c-0.1,0-0.1,0-0.2-0.1c-0.4-0.5-1-0.7-1.6-0.9l0,0h-0.6c-0.4,0.1-0.8,0.2-1.1,0.4c-0.1,0.1-0.2,0.1-0.3,0.2
			c-0.2,0-0.5,0.1-0.7,0.1c-1-0.3-1.9-0.2-2.8,0.3c-0.8,0.4-1.5,1-1.9,1.9c0,0.1-0.1,0.1-0.1,0.1c-1.1,0.7-1.7,1.7-2.1,2.9
			c-0.1,0.4-0.2,0.8-0.3,1.2v0.9c0,0.2,0.1,0.4,0.1,0.6c0.1,0.3,0.1,0.6,0.2,0.9l0,0c0.1,2.1,0.9,4.1,2.7,6c1.4,1.5,2.8,2.9,4.1,4.5
			c0.3,0.4,0.5,0.8,0.5,1.3h2.8c0-0.5,0.3-0.9,0.6-1.2c1.4-1.6,3-3,4.4-4.6c1.3-1.4,2.1-2.8,2.4-4.3c0.4-0.9,0.6-1.8,0.7-2.8
			c0-0.1,0-0.1,0-0.2v-1C2416.2,409.1,2416.1,408.9,2416.1,408.7z"/>
	</g>
	<g class="st1">
		<g class="st6">
			<path class="st5" d="M1020.9-25c1.4,4.1,3.3,8.1,5,12h0.1c-0.5-1.2-4.3-9.7-4.9-11.8L1020.9-25z"/>
			<path class="st5" d="M1023.1-22.6c0.6,3.2,1.8,6.5,3.2,9.5h0.2c-1.4-2.7-2.6-6.1-3.2-9.3L1023.1-22.6z"/>
			<path class="st5" d="M1024.5-21.1c0.4,2.7,1.2,5.5,2.2,8.1h0.2c-1.1-2.4-1.9-5.3-2.2-8L1024.5-21.1z"/>
			<path class="st5" d="M1025.7-19.6c0.2,2.3,0.6,4.4,1.3,6.6h0.1c-0.8-2.7-1.2-4.3-1.3-6.5L1025.7-19.6z"/>
			<path class="st5" d="M1027.6-18.5c0,1.8,0.1,3.6,0,5.4h0.1C1027.7-14.9,1027.7-16.7,1027.6-18.5L1027.6-18.5z"/>
			<path class="st5" d="M1028.5-18.4c0,1.8-0.3,3.6-0.6,5.4h0.1c0.3-1.8,0.6-3.6,0.7-5.4H1028.5z"/>
			<path class="st5" d="M1034.7-25c-1.5,4-3.5,8-5.3,11.9h-0.1c0.6-1.2,4.5-9.6,5.2-11.7L1034.7-25z"/>
			<path class="st5" d="M1032.3-22.6c-0.6,3.2-1.8,6.5-3.2,9.5h-0.2c1.4-2.7,2.6-6.1,3.2-9.3L1032.3-22.6z"/>
			<path class="st5" d="M1030.9-21.1c-0.4,2.7-1.2,5.5-2.2,8.1h-0.2c1.1-2.4,1.9-5.3,2.2-8L1030.9-21.1z"/>
			<path class="st5" d="M1029.7-19.6c-0.2,2.3-0.6,4.4-1.3,6.6h-0.1c0.8-2.7,1.2-4.3,1.3-6.5L1029.7-19.6z"/>
			<path class="st5" d="M1026.8-18.4c0,1.8,0.3,3.6,0.6,5.4h-0.1c-0.3-1.8-0.6-3.6-0.7-5.4H1026.8z"/>
		</g>
		<path class="st5" d="M1028.7-10.7h-2.2c-0.3-0.3-0.3-0.7-0.4-1.1c-0.1-0.5-0.3-0.9-0.4-1.4h3.9c-0.2,0.5-0.4,0.9-0.5,1.4
			C1029-11.3,1029-11.1,1028.7-10.7z"/>
		<path class="st5" d="M1037.1-33c-0.2-0.9-0.7-1.8-1.3-2.4c0,0-0.1-0.1-0.1-0.2c-0.3-1-1-1.7-1.8-2.3c-1-0.8-2.2-1-3.4-0.7l0,0
			c-0.1,0-0.1,0-0.2-0.1c-0.4-0.5-1-0.7-1.6-0.9l0,0h-0.7c-0.4,0.1-0.8,0.2-1.1,0.4c-0.1,0.1-0.2,0.1-0.3,0.2
			c-0.2,0-0.5,0.1-0.7,0.1c-1-0.3-1.9-0.2-2.8,0.3c-0.8,0.4-1.5,1-1.9,1.9c0,0.1-0.1,0.1-0.1,0.1c-1.1,0.7-1.7,1.7-2.1,2.9
			c-0.1,0.4-0.2,0.8-0.3,1.2v0.9c0,0.2,0.1,0.4,0.1,0.6c0.1,0.3,0.1,0.6,0.2,0.9l0,0c0.1,2.1,0.9,4.1,2.7,6c1.4,1.5,2.8,2.9,4.1,4.5
			c0.3,0.4,0.5,0.8,0.5,1.3h2.8c0-0.5,0.3-0.9,0.6-1.2c1.4-1.6,3-3,4.4-4.6c1.3-1.4,2.1-2.8,2.4-4.3c0.4-0.9,0.6-1.8,0.7-2.8
			c0-0.1,0-0.1,0-0.2v-1C1037.2-32.6,1037.1-32.8,1037.1-33z"/>
	</g>
</g>
<g id="nuage_3e_plan" class="st0">
	<path class="st7" d="M1474.4,297.8c-2.4,0-4.7,0.5-6.8,1.3c-1.7-5.3-6.6-9.1-12.4-9.1c-3.7,0-7,1.5-9.4,4
		c-1.8-12.3-12.4-21.7-25.2-21.7c-14.1,0-25.5,11.4-25.5,25.5c0,1,0.1,2,0.2,3c-0.5,0-1-0.1-1.6-0.1c-9.2,0-16.7,7.5-16.7,16.7
		s7.5,16.7,16.7,16.7h80.7l0,0l0,0h1.1l0,0c9.5-0.6,17.1-8.5,17.1-18.1C1492.6,305.9,1484.5,297.8,1474.4,297.8z"/>
	<path class="st8" d="M1583.9,249.8c-2.4,0-4.7,0.5-6.8,1.3c-1.7-5.3-6.6-9.1-12.4-9.1c-3.7,0-7,1.5-9.4,4
		c-1.8-12.3-12.4-21.7-25.2-21.7c-14.1,0-25.5,11.4-25.5,25.5c0,1,0.1,2,0.2,3c-0.5,0-1-0.1-1.6-0.1c-9.2,0-16.7,7.5-16.7,16.7
		s7.5,16.7,16.7,16.7h80.7l0,0l0,0h1.1l0,0c9.5-0.6,17.1-8.5,17.1-18.1C1602.1,258,1594,249.8,1583.9,249.8z"/>
	<path class="st7" d="M975.5,61.3c-2.4,0-4.7,0.5-6.8,1.3c-1.7-5.3-6.6-9.1-12.4-9.1c-3.7,0-7,1.5-9.4,4
		c-1.8-12.3-12.4-21.7-25.2-21.7c-14.1,0-25.5,11.4-25.5,25.5c0,1,0.1,2,0.2,3c-0.5,0-1-0.1-1.6-0.1c-9.2,0-16.7,7.5-16.7,16.7
		s7.5,16.7,16.7,16.7h80.7l0,0l0,0h1.1l0,0c9.5-0.6,17.1-8.5,17.1-18.1C993.6,69.5,985.5,61.3,975.5,61.3z"/>
	<path class="st8" d="M2473.9-37.2c-2.4,0-4.7,0.5-6.8,1.3c-1.7-5.3-6.6-9.1-12.4-9.1c-3.7,0-7,1.5-9.4,4
		c-1.8-12.3-12.4-21.7-25.2-21.7c-14.1,0-25.5,11.4-25.5,25.5c0,1,0.1,2,0.2,3c-0.5,0-1-0.1-1.6-0.1c-9.2,0-16.7,7.5-16.7,16.7
		s7.5,16.7,16.7,16.7h80.7l0,0l0,0h1.1l0,0c9.5-0.6,17.1-8.5,17.1-18.1C2492.1-29,2483.9-37.2,2473.9-37.2z"/>
	<path class="st7" d="M1327.3-178c3,0,5.9,0.6,8.6,1.7c2.1-6.7,8.4-11.6,15.8-11.6c4.7,0,9,2,12,5.1c2.3-15.6,15.8-27.6,32.1-27.6
		c17.9,0,32.4,14.5,32.4,32.4c0,1.3-0.1,2.6-0.2,3.8c0.7-0.1,1.3-0.1,2-0.1c11.7,0,21.2,9.5,21.2,21.2s-9.5,21.2-21.2,21.2h-102.7
		l0,0c0,0,0,0-0.1,0h-1.3l0,0c-12.1-0.7-21.7-10.8-21.7-23.1C1304.2-167.7,1314.5-178,1327.3-178z"/>
	<path class="st7" d="M2207.3,348.9c3,0,5.9,0.6,8.6,1.7c2.1-6.7,8.4-11.6,15.8-11.6c4.7,0,9,2,12,5.1c2.3-15.6,15.8-27.6,32.1-27.6
		c17.9,0,32.4,14.5,32.4,32.4c0,1.3-0.1,2.6-0.2,3.8c0.7-0.1,1.3-0.1,2-0.1c11.7,0,21.2,9.5,21.2,21.2s-9.5,21.2-21.2,21.2h-102.6
		l0,0c0,0,0,0-0.1,0h-1.3l0,0c-12.1-0.7-21.7-10.8-21.7-23.1C2184.2,359.3,2194.5,348.9,2207.3,348.9z"/>
</g>
<g id="nuage_2nd_plan">
	<path class="st5" d="M2618.5,639.6c-0.8,0-1.7,0.1-2.6,0.1c0.2-1.6,0.3-3.2,0.3-4.8c0-22.9-18.5-41.4-41.4-41.4
		c-20.7,0-38,15.3-40.9,35.2c-3.8-4-9.3-6.5-15.3-6.5c-9.5,0-17.5,6.2-20.2,14.8c-3.4-1.3-7.1-2.1-11-2.1c-3.7,0-7.2,0.7-10.5,1.9
		c-4.6-2-9.9-3.1-15.3-3.1c-4.6,0-9,0.8-13,2.2c-3.2-8.8-12.8-15.2-24-15.2c-2.9,0-5.6,0.4-8.2,1.2c-2.6-9.1-11.6-18.7-21-18.9
		c-0.6,0-1.1,0-1.6,0.1c0.2-1,0.2-2.1,0.3-3.1c0.3-14.7-11.3-27-26-27.3c-13-0.3-24,8.8-26.6,21.1c-0.3,0.1-0.6,0.2-0.9,0.3
		c-2.3-2.2-5.5-3.6-9-3.7c-6.1-0.2-11.4,3.7-13.2,9.3c-2.2-0.9-4.5-1.4-7-1.5c-5.4-0.1-10.4,2.1-13.9,5.6
		c-7.2-1.9-14.7,3.2-14.7,3.2c3.9-21.5-5.5-42.1-34.8-44.8c0.1-0.8,0.2-1.7,0.2-2.5c0.3-14.6-11-26.7-25.5-27.3
		c-14.4,0.6-25.9,12.7-25.5,27.3c0,0.8,0.1,1.7,0.2,2.5c-29.3,2.6-38.7,23.4-34.8,44.8c0,0-7.4-5.1-14.7-3.2
		c-3.5-3.6-8.5-5.8-13.9-5.6c-2.5,0.1-4.8,0.6-7,1.5c-1.8-5.5-7.1-9.4-13.2-9.3c-3.5,0.1-6.6,1.5-9,3.7c-0.3-0.1-0.6-0.2-0.9-0.3
		c-2.6-12.3-13.7-21.4-26.6-21.1c-14.7,0.3-26.3,12.6-26,27.3c0,1.1,0.1,2.1,0.3,3.1c-0.6-0.1-1.1-0.1-1.6-0.1
		c-9.4,0.2-18.4,9.7-21,18.9c-2.6-0.8-5.4-1.2-8.2-1.2c-11.3,0-20.8,6.4-24,15.2c-4-1.4-8.4-2.2-13-2.2c-5.5,0-10.7,1.1-15.3,3.1
		c-3.2-1.2-6.8-1.9-10.5-1.9c-3.9,0-7.6,0.8-11,2.1c-2.7-8.6-10.8-14.8-20.2-14.8c-6,0-11.4,2.5-15.3,6.5c-3-20-20.2-35.2-40.9-35.2
		c-6.1,0-12,1.3-17.2,3.7c-2.8-1.1-5.9-1.7-9-1.7c-13.4,0-24.4,10.7-25.3,24.2c-5.7,1.4-12.7,4.6-18,11.5c-6.1,8-6.4,16.6-6.4,19.7
		c0,0-6.2-0.5-13.7,1c-3.5-3.1-8.5-5.1-14.1-5.1c-2.6,0-5,0.4-7.2,1.2c-1.8-4.7-7.1-8.2-13.3-8.2c-4,0-7.5,1.4-10.1,3.6
		c-2-11-13.3-19.5-26.9-19.5c-15.1,0-27.2,10.3-27.2,22.9c0,0.9,0.1,1.8,0.2,2.7c-0.6-0.1-1.1-0.1-1.7-0.1c-7.6,0-14.2,4-16.7,9.7
		c-1.1,0.1-2.1,0.4-3.1,0.7c-1.3-3.4-5-5.9-9.5-5.9c-2.8,0-5.4,1-7.1,2.6c-1.4-7.8-9.4-13.8-19.1-13.8c-10.5,0-19.1,7.1-19.3,15.9
		c-1.1-0.2-2.2-0.3-3.3-0.3c-2.2,0-4.3,0.4-6.2,1c-2.2-2.5-8.9-2.5-11.4-2.4c-3.4,0.2-6.5,1.2-8.7,3.1c-1.7-9.5-11.4-16.7-23.2-16.7
		c-12.9,0-23.5,8.8-23.5,19.7c0,0.8,0.1,1.6,0.2,2.3c-0.5-0.1-0.4,1-0.9,1c-4.8,0-6.4-2.6-13.3-2.1c-5,0.4-8.5,3.5-11.6,6.5
		c-0.4-5.2-5.6-9.4-11.9-9.4c-1.6,0-3.1,0.3-4.4,0.7c-1.1-2.9-4.3-5-8.1-5c-2.5,0-4.6,0.8-6.2,2.2c-1.2-6.7-8.1-11.9-16.5-11.9
		c-4.2,0-8.1,1.3-11,3.5c-2.6-1.2-5.6-1.9-8.8-1.9c-0.6,0-1.1,0-1.7,0.1c0.1-0.9,0.2-1.8,0.2-2.7c0-5.4-2.2-10.3-5.7-14.2
		c4.8-8.2,5.5-19.1,4.5-23c-2.4-9.4-11.7-19.3-21.3-19.5c-0.6,0-1.1,0-1.7,0.1c0.2-1,0.2-2.1,0.3-3.1c0.3-14.7-11.3-27-26.1-27.3
		c-13.4-0.3-24.7,9.3-26.9,22.1c-2.5-2.7-5.9-4.3-9.8-4.5c-6.1-0.2-11.4,3.7-13.3,9.3c-2.2-0.9-4.5-1.4-7-1.5
		c-5.5-0.1-10.4,2.1-13.9,5.6c-7.2-1.9-14.7,3.2-14.7,3.2c3.9-21.5-5.5-42.1-34.9-44.8c0.1-0.8,0.2-1.7,0.2-2.5
		c0.3-14.7-11.3-27-26.1-27.3c-11.2-0.3-21,6.4-25.1,16.1l-0.1,0.5c-12.1,2.7-21.1,13.7-20.7,26.6c0,0.8,0.1,1.7,0.2,2.5
		c-29.3,2.6-38.7,23.4-34.8,44.8c0,0-7.4-5.1-14.7-3.2c-3.5-3.6-8.5-5.8-13.9-5.6c-2.5,0.1-4.8,0.6-7,1.5c-1.8-5.5-7.1-9.4-13.2-9.3
		c-3.5,0.1-6.6,1.5-9,3.7c-0.3-0.1-0.6-0.2-0.9-0.3c-2.6-12.3-13.7-21.4-26.6-21.1c-14.7,0.3-26.3,12.6-26,27.3
		c0,1.1,0.1,2.1,0.3,3.1c-0.6-0.1-1.1-0.1-1.6-0.1c-9.4,0.2-18.4,9.7-21,18.9c-2.6-0.8-5.4-1.2-8.2-1.2c-11.3,0-20.8,6.4-24,15.2
		c-4-1.4-8.4-2.2-13-2.2c-5.5,0-10.7,1.1-15.3,3.1c-3.2-1.2-6.8-1.9-10.5-1.9c-3.9,0-7.6,0.8-11,2.1c-2.7-8.6-10.8-14.8-20.2-14.8
		c-6,0-11.4,2.5-15.3,6.5c-3-20-20.2-35.2-40.9-35.2c-22.9,0-41.4,18.6-41.4,41.4c0,1.7,0.1,3.3,0.3,4.8c-0.8-0.1-1.7-0.1-2.6-0.1
		c-15,0-27.1,12.2-27.1,27.1c0,4,0.9,7.8,2.5,11.2l1845.8-2.5c1.6-3.4,2.5-7.2,2.5-11.2C2645.6,651.7,2633.4,639.6,2618.5,639.6z"/>
</g>
<g id="nuage_1er_plan" class="st0">
	<path class="st7" d="M2680,740V454.2c-12.5-7.4-27.3-11.8-43.1-11.8c-45.5,0-82.3,35.5-82.3,79.3c0,2.5,0.2,5,0.4,7.4
		c-90.8,5.8-114.5,69.5-114.5,116.6c0,0-18.9-1.7-41.4,3.5c-10.7-10.9-25.8-17.7-42.6-17.7c-7.7,0-15.1,1.4-21.8,4.1
		c-5.4-16.5-21.3-28.4-40.2-28.4c-12,0-22.8,4.8-30.4,12.5c-5.9-38.2-40.1-67.5-81.4-67.5c-45.5,0-82.3,35.5-82.3,79.3
		c0,3.2,0.2,6.3,0.6,9.3c-1.7-0.2-3.4-0.2-5.1-0.2c-23.1,0-42.8,14-50.5,33.6c-3.3,0.5-6.5,1.3-9.5,2.5
		c-3.8-11.7-15.2-20.2-28.6-20.2c-8.5,0-16.2,3.4-21.6,8.9c-4.2-27.1-28.5-48-57.9-48c-31.9,0-57.8,24.6-58.5,55.2
		c-3.3-0.6-6.7-1-10.1-1c-6.6,0-13,1.3-18.8,3.5c-6.6-8.7-26.8-8.6-34.6-8.3c-10.3,0.5-19.6,4.2-26.2,10.8
		c-5.1-32.9-34.6-58.1-70.1-58.1c-39.2,0-70.9,30.6-70.9,68.3c0,2.7,0.2,5.4,0.5,8c-1.4-0.1-1.4,3.5-2.8,3.5
		c-14.4,0-19.2-9-40.1-7.4c-15,1.5-25.6,12.2-35.1,22.5c-1.2-18.1-16.8-32.5-35.9-32.5c-4.7,0-9.2,0.9-13.4,2.5
		c-3.3-10.1-13.1-17.4-24.7-17.4c-7.3,0-14,3-18.7,7.7c-3.6-23.4-24.6-41.4-50-41.4c-12.8,0-24.5,4.6-33.4,12.1
		c-7.9-4.2-16.9-6.6-26.5-6.6c-1.7,0-3.5,0.1-5.2,0.2c0.4-3.1,0.6-6.3,0.6-9.5c0-44.5-37.5-80.6-83.7-80.6
		c-42,0-76.8,29.8-82.8,68.6c-7.8-7.8-18.8-12.7-31-12.7c-19.2,0-35.4,12.2-40.9,28.9c-6.9-2.7-14.3-4.1-22.2-4.1
		c-17.1,0-32.4,7-43.3,18c-22.9-5.2-42.1-3.5-42.1-3.5c0-47.9-24.2-112.7-116.5-118.6c0.2-2.5,0.4-5,0.4-7.5
		c0-44.5-37.5-80.6-83.7-80.6c-17.9,0-34.6,5.5-48.2,14.7V740H2680z"/>
	<path class="st7" d="M51,682c2.3,0,4.5,0.3,4.5,0.3c3.1,0.4,6.1,1.1,8.9,2.2c3.3-10.1,13.1-17.4,24.7-17.4c7.3,0,14,3,18.7,7.7
		c3.6-23.4,24.6-41.4,50-41.4c12.8,0,24.5,4.6,33.4,12.1c7.9-4.2,16.9-6.6,26.5-6.6c1.7,0,3.5,0.1,5.2,0.2c-0.4-3.1-0.6-6.3-0.6-9.5
		c0-44.5,37.5-80.6,83.7-80.6c42,0,76.8,29.8,82.8,68.6c7.8-7.8,18.8-12.7,31-12.7c19.2,0,35.4,12.2,40.9,28.9
		c6.9-2.7,14.3-4.1,22.2-4.1c17.1,0,32.4,7,43.3,18c22.9-5.2,42.1-3.5,42.1-3.5c0-47.9,24.2-112.7,116.5-118.6
		c-0.2-2.5-0.4-5-0.4-7.5c0-12.8,5.4-22.1,8.2-27.2c0.3-0.6,0.8-1.4,1.5-2.5c15-24.9,41.4-33.1,41.4-33.1c2.9-0.9,6.3-1.8,10.1-2.4
		c5.4-0.8,10.3-0.9,14.2-0.7c18.8,96,37.7,191.9,56.5,287.9H13.9c-0.7-1.5-9.4-20.3,1.3-38.3C15.1,701.7,26.8,682,51,682z"/>
	<path class="st7" d="M3400.9,682c-2.3,0-4.5,0.3-4.5,0.3c-3.1,0.4-6.1,1.1-8.9,2.2c-3.3-10.1-13.1-17.4-24.7-17.4
		c-7.3,0-14,3-18.7,7.7c-3.6-23.4-24.6-41.4-50-41.4c-12.8,0-24.5,4.6-33.4,12.1c-7.9-4.2-16.9-6.6-26.5-6.6c-1.7,0-3.5,0.1-5.2,0.2
		c0.4-3.1,0.6-6.3,0.6-9.5c0-44.5-37.5-80.6-83.7-80.6c-42,0-76.8,29.8-82.8,68.6c-7.8-7.8-18.8-12.7-31-12.7
		c-19.2,0-35.4,12.2-40.9,28.9c-6.9-2.7-14.3-4.1-22.2-4.1c-17.1,0-32.4,7-43.3,18c-22.9-5.2-42.1-3.5-42.1-3.5
		c0-47.9-24.2-112.7-116.5-118.6c0.2-2.5,0.4-5,0.4-7.5c0,0-0.3-13.3-8.2-27.2c-14.6-25.5-45.3-33.4-50-34.5
		c-12-2.9-22.4-2.7-29.4-2c-14.7,95.2-29.5,190.5-44.2,285.7h802.4c0.7-1.5,9.4-20.3-1.3-38.3C3436.9,701.7,3425.2,682,3400.9,682z"
		/>
</g>
</svg>
