<?xml version="1.0" encoding="utf-8"?>
<!-- Generator: Adobe Illustrator 19.1.0, SVG Export Plug-In . SVG Version: 6.00 Build 0)  -->
<svg version="1.1" xmlns="http://www.w3.org/2000/svg" xmlns:xlink="http://www.w3.org/1999/xlink" x="0px" y="0px"
	 viewBox="0 0 1920 1080" style="enable-background:new 0 0 1920 1080;" xml:space="preserve">
<style type="text/css">
	.st0{display:none;}
	.st1{display:inline;}
	.st2{fill:#202020;}
	.st3{fill:#333333;}
	.st4{display:inline;enable-background:new    ;}
	.st5{fill:#3C3C3B;}
	.st6{opacity:0.7;}
	.st7{display:inline;fill:#333333;}
	.st8{display:inline;fill:#3C3C3B;enable-background:new    ;}
	.st9{display:inline;fill:#3C3C3B;}
</style>
<g id="Calque_1" class="st0">
	<g class="st1">
		<rect x="-0.2" y="0.1" class="st2" width="1920.3" height="1089.9"/>
	</g>
	<g class="st1">
		<polygon class="st3" points="994,336.8 995.2,340.3 998.8,340.3 995.9,342.5 997,346 994,343.8 991,346 992.2,342.5 989.2,340.3 
			992.9,340.3 		"/>
	</g>
	<g class="st1">
		<polygon class="st3" points="694.8,440.5 696,444 699.7,444 696.7,446.2 697.8,449.7 694.8,447.5 691.8,449.7 693,446.2 690,444 
			693.7,444 		"/>
	</g>
	<g class="st1">
		<polygon class="st3" points="474.8,298.5 476,302 479.7,302 476.7,304.2 477.8,307.7 474.8,305.5 471.8,307.7 473,304.2 470,302 
			473.7,302 		"/>
	</g>
	<g class="st1">
		<polygon class="st3" points="385.8,468.5 387,472 390.7,472 387.7,474.2 388.8,477.7 385.8,475.5 382.8,477.7 384,474.2 381,472 
			384.7,472 		"/>
	</g>
	<g class="st1">
		<polygon class="st3" points="132.8,114.5 134,118 137.7,118 134.7,120.2 135.8,123.7 132.8,121.5 129.8,123.7 131,120.2 128,118 
			131.7,118 		"/>
	</g>
	<g class="st1">
		<polygon class="st3" points="1453.8,142.5 1455,146 1458.7,146 1455.7,148.2 1456.8,151.7 1453.8,149.5 1450.8,151.7 1452,148.2 
			1449,146 1452.7,146 		"/>
	</g>
	<g class="st1">
		<polygon class="st3" points="1767.8,424.5 1769,428 1772.7,428 1769.7,430.2 1770.8,433.7 1767.8,431.5 1764.8,433.7 1766,430.2 
			1763,428 1766.7,428 		"/>
	</g>
	<g class="st4">
		<polygon class="st5" points="1272.1,399.5 1273.3,403 1277,403 1274,405.2 1275.1,408.7 1272.1,406.5 1269.2,408.7 1270.3,405.2 
			1267.3,403 1271,403 		"/>
	</g>
	<g class="st4">
		<polygon class="st5" points="939.1,133.5 940.3,137 944,137 941,139.2 942.1,142.7 939.1,140.5 936.2,142.7 937.3,139.2 
			934.3,137 938,137 		"/>
	</g>
	<g class="st4">
		<polygon class="st5" points="1774.1,94.5 1775.3,98 1779,98 1776,100.2 1777.1,103.7 1774.1,101.5 1771.2,103.7 1772.3,100.2 
			1769.3,98 1773,98 		"/>
	</g>
	<g class="st4">
		<polygon class="st5" points="557.1,383.5 558.3,387 562,387 559,389.2 560.1,392.7 557.1,390.5 554.2,392.7 555.3,389.2 
			552.3,387 556,387 		"/>
	</g>
	<g class="st4">
		<polygon class="st5" points="88.1,484.3 89.3,487.8 93,487.8 90,490 91.1,493.5 88.1,491.3 85.2,493.5 86.3,490 83.3,487.8 
			87,487.8 		"/>
	</g>
</g>
<g id="montgolfieres" class="st0">
	<g class="st1">
		<g class="st6">
			<path class="st5" d="M713.4,914.5c1.4,4.1,3.3,8.1,5,12c0,0,0.1,0,0.1,0c-0.5-1.2-4.3-9.7-4.9-11.8L713.4,914.5z"/>
			<path class="st5" d="M715.6,916.9c0.6,3.2,1.8,6.5,3.2,9.5h0.2c-1.4-2.7-2.6-6.1-3.2-9.3L715.6,916.9z"/>
			<path class="st5" d="M717,918.4c0.4,2.7,1.2,5.5,2.2,8.1l0.2,0c-1.1-2.4-1.9-5.3-2.2-8L717,918.4z"/>
			<path class="st5" d="M718.2,919.9c0.2,2.3,0.6,4.4,1.3,6.6l0.1,0c-0.8-2.7-1.2-4.3-1.3-6.5L718.2,919.9z"/>
			<path class="st5" d="M720.1,921c0,1.8,0.1,3.6,0,5.4l0.1,0c0-1.8,0-3.6,0-5.4L720.1,921z"/>
			<path class="st5" d="M721,921.1c0,1.8-0.3,3.6-0.6,5.4l0.1,0c0.3-1.8,0.6-3.6,0.7-5.4L721,921.1z"/>
			<path class="st5" d="M727.1,914.5c-1.5,4-3.5,8-5.3,11.9c0,0-0.1,0-0.1,0c0.6-1.2,4.5-9.6,5.2-11.7L727.1,914.5z"/>
			<path class="st5" d="M724.8,916.9c-0.6,3.2-1.8,6.5-3.2,9.5h-0.2c1.4-2.7,2.6-6.1,3.2-9.3L724.8,916.9z"/>
			<path class="st5" d="M723.4,918.4c-0.4,2.7-1.2,5.5-2.2,8.1l-0.2,0c1.1-2.4,1.9-5.3,2.2-8L723.4,918.4z"/>
			<path class="st5" d="M722.2,919.9c-0.2,2.3-0.6,4.4-1.3,6.6l-0.1,0c0.8-2.7,1.2-4.3,1.3-6.5L722.2,919.9z"/>
			<path class="st5" d="M719.3,921.1c0,1.8,0.3,3.6,0.6,5.4l-0.1,0c-0.3-1.8-0.6-3.6-0.7-5.4L719.3,921.1z"/>
		</g>
		<path class="st5" d="M721.2,928.8H719c-0.3-0.3-0.3-0.7-0.4-1.1c-0.1-0.5-0.3-0.9-0.4-1.4h3.9c-0.2,0.5-0.4,0.9-0.5,1.4
			C721.5,928.2,721.5,928.4,721.2,928.8z"/>
		<path class="st5" d="M729.6,906.5c-0.2-0.9-0.7-1.8-1.3-2.4c0,0-0.1-0.1-0.1-0.2c-0.3-1-1-1.7-1.8-2.3c-1-0.8-2.2-1-3.4-0.7
			c0,0,0,0,0,0c-0.1,0-0.1,0-0.2-0.1c-0.4-0.5-1-0.7-1.6-0.9c0,0,0,0,0,0h-0.6c-0.4,0.1-0.8,0.2-1.1,0.4c-0.1,0.1-0.2,0.1-0.3,0.2
			c-0.2,0-0.5,0.1-0.7,0.1c-1-0.3-1.9-0.2-2.8,0.3c-0.8,0.4-1.5,1-1.9,1.9c0,0.1-0.1,0.1-0.1,0.1c-1.1,0.7-1.7,1.7-2.1,2.9
			c-0.1,0.4-0.2,0.8-0.3,1.2v0.9c0,0.2,0.1,0.4,0.1,0.6c0.1,0.3,0.1,0.6,0.2,0.9c0,0,0,0,0,0c0.1,2.1,0.9,4.1,2.7,6
			c1.4,1.5,2.8,2.9,4.1,4.5c0.3,0.4,0.5,0.8,0.5,1.3l2.8,0c0-0.5,0.3-0.9,0.6-1.2c1.4-1.6,3-3,4.4-4.6c1.3-1.4,2.1-2.8,2.4-4.3
			c0.4-0.9,0.6-1.8,0.7-2.8c0-0.1,0-0.1,0-0.2v-1C729.6,906.9,729.6,906.7,729.6,906.5z"/>
	</g>
	<g class="st1">
		<g class="st6">
			<path class="st5" d="M1639.9,756.7c1.4,4.1,3.3,8.1,5,12c0,0,0.1,0,0.1,0c-0.5-1.2-4.3-9.7-4.9-11.8L1639.9,756.7z"/>
			<path class="st5" d="M1642.1,759.1c0.6,3.2,1.8,6.5,3.2,9.5h0.2c-1.4-2.7-2.6-6.1-3.2-9.3L1642.1,759.1z"/>
			<path class="st5" d="M1643.5,760.6c0.4,2.7,1.2,5.5,2.2,8.1l0.2,0c-1.1-2.4-1.9-5.3-2.2-8L1643.5,760.6z"/>
			<path class="st5" d="M1644.7,762.1c0.2,2.3,0.6,4.4,1.3,6.6l0.1,0c-0.8-2.7-1.2-4.3-1.3-6.5L1644.7,762.1z"/>
			<path class="st5" d="M1646.6,763.3c0,1.8,0.1,3.6,0,5.4l0.1,0c0-1.8,0-3.6,0-5.4L1646.6,763.3z"/>
			<path class="st5" d="M1647.5,763.3c0,1.8-0.3,3.6-0.6,5.4l0.1,0c0.3-1.8,0.6-3.6,0.7-5.4L1647.5,763.3z"/>
			<path class="st5" d="M1653.7,756.7c-1.5,4-3.5,8-5.3,11.9c0,0-0.1,0-0.1,0c0.6-1.2,4.5-9.6,5.2-11.7L1653.7,756.7z"/>
			<path class="st5" d="M1651.3,759.1c-0.6,3.2-1.8,6.5-3.2,9.5h-0.2c1.4-2.7,2.6-6.1,3.2-9.3L1651.3,759.1z"/>
			<path class="st5" d="M1649.9,760.6c-0.4,2.7-1.2,5.5-2.2,8.1l-0.2,0c1.1-2.4,1.9-5.3,2.2-8L1649.9,760.6z"/>
			<path class="st5" d="M1648.7,762.1c-0.2,2.3-0.6,4.4-1.3,6.6l-0.1,0c0.8-2.7,1.2-4.3,1.3-6.5L1648.7,762.1z"/>
			<path class="st5" d="M1645.8,763.3c0,1.8,0.3,3.6,0.6,5.4l-0.1,0c-0.3-1.8-0.6-3.6-0.7-5.4L1645.8,763.3z"/>
		</g>
		<path class="st5" d="M1647.7,771h-2.2c-0.3-0.3-0.3-0.7-0.4-1.1c-0.1-0.5-0.3-0.9-0.4-1.4h3.9c-0.2,0.5-0.4,0.9-0.5,1.4
			C1648,770.4,1648,770.6,1647.7,771z"/>
		<path class="st5" d="M1656.1,748.7c-0.2-0.9-0.7-1.8-1.3-2.4c0,0-0.1-0.1-0.1-0.2c-0.3-1-1-1.7-1.8-2.3c-1-0.8-2.2-1-3.4-0.7
			c0,0,0,0,0,0c-0.1,0-0.1,0-0.2-0.1c-0.4-0.5-1-0.7-1.6-0.9c0,0,0,0,0,0h-0.6c-0.4,0.1-0.8,0.2-1.1,0.4c-0.1,0.1-0.2,0.1-0.3,0.2
			c-0.2,0-0.5,0.1-0.7,0.1c-1-0.3-1.9-0.2-2.8,0.3c-0.8,0.4-1.5,1-1.9,1.9c0,0.1-0.1,0.1-0.1,0.1c-1.1,0.7-1.7,1.7-2.1,2.9
			c-0.1,0.4-0.2,0.8-0.3,1.2v0.9c0,0.2,0.1,0.4,0.1,0.6c0.1,0.3,0.1,0.6,0.2,0.9c0,0,0,0,0,0c0.1,2.1,0.9,4.1,2.7,6
			c1.4,1.5,2.8,2.9,4.1,4.5c0.3,0.4,0.5,0.8,0.5,1.3l2.8,0c0-0.5,0.3-0.9,0.6-1.2c1.4-1.6,3-3,4.4-4.6c1.3-1.4,2.1-2.8,2.4-4.3
			c0.4-0.9,0.6-1.8,0.7-2.8c0-0.1,0-0.1,0-0.2v-1C1656.2,749.1,1656.1,748.9,1656.1,748.7z"/>
	</g>
	<g class="st1">
		<g class="st6">
			<path class="st5" d="M260.9,315c1.4,4.1,3.3,8.1,5,12c0,0,0.1,0,0.1,0c-0.5-1.2-4.3-9.7-4.9-11.8L260.9,315z"/>
			<path class="st5" d="M263.1,317.4c0.6,3.2,1.8,6.5,3.2,9.5h0.2c-1.4-2.7-2.6-6.1-3.2-9.3L263.1,317.4z"/>
			<path class="st5" d="M264.5,318.9c0.4,2.7,1.2,5.5,2.2,8.1l0.2,0c-1.1-2.4-1.9-5.3-2.2-8L264.5,318.9z"/>
			<path class="st5" d="M265.7,320.4c0.2,2.3,0.6,4.4,1.3,6.6l0.1,0c-0.8-2.7-1.2-4.3-1.3-6.5L265.7,320.4z"/>
			<path class="st5" d="M267.6,321.5c0,1.8,0.1,3.6,0,5.4l0.1,0c0-1.8,0-3.6,0-5.4L267.6,321.5z"/>
			<path class="st5" d="M268.5,321.6c0,1.8-0.3,3.6-0.6,5.4l0.1,0c0.3-1.8,0.6-3.6,0.7-5.4L268.5,321.6z"/>
			<path class="st5" d="M274.7,315c-1.5,4-3.5,8-5.3,11.9c0,0-0.1,0-0.1,0c0.6-1.2,4.5-9.6,5.2-11.7L274.7,315z"/>
			<path class="st5" d="M272.3,317.4c-0.6,3.2-1.8,6.5-3.2,9.5h-0.2c1.4-2.7,2.6-6.1,3.2-9.3L272.3,317.4z"/>
			<path class="st5" d="M270.9,318.9c-0.4,2.7-1.2,5.5-2.2,8.1l-0.2,0c1.1-2.4,1.9-5.3,2.2-8L270.9,318.9z"/>
			<path class="st5" d="M269.7,320.4c-0.2,2.3-0.6,4.4-1.3,6.6l-0.1,0c0.8-2.7,1.2-4.3,1.3-6.5L269.7,320.4z"/>
			<path class="st5" d="M266.8,321.6c0,1.8,0.3,3.6,0.6,5.4l-0.1,0c-0.3-1.8-0.6-3.6-0.7-5.4L266.8,321.6z"/>
		</g>
		<path class="st5" d="M268.7,329.3h-2.2c-0.3-0.3-0.3-0.7-0.4-1.1c-0.1-0.5-0.3-0.9-0.4-1.4h3.9c-0.2,0.5-0.4,0.9-0.5,1.4
			C269,328.7,269,328.9,268.7,329.3z"/>
		<path class="st5" d="M277.1,307c-0.2-0.9-0.7-1.8-1.3-2.4c0,0-0.1-0.1-0.1-0.2c-0.3-1-1-1.7-1.8-2.3c-1-0.8-2.2-1-3.4-0.7
			c0,0,0,0,0,0c-0.1,0-0.1,0-0.2-0.1c-0.4-0.5-1-0.7-1.6-0.9c0,0,0,0,0,0H268c-0.4,0.1-0.8,0.2-1.1,0.4c-0.1,0.1-0.2,0.1-0.3,0.2
			c-0.2,0-0.5,0.1-0.7,0.1c-1-0.3-1.9-0.2-2.8,0.3c-0.8,0.4-1.5,1-1.9,1.9c0,0.1-0.1,0.1-0.1,0.1c-1.1,0.7-1.7,1.7-2.1,2.9
			c-0.1,0.4-0.2,0.8-0.3,1.2v0.9c0,0.2,0.1,0.4,0.1,0.6c0.1,0.3,0.1,0.6,0.2,0.9c0,0,0,0,0,0c0.1,2.1,0.9,4.1,2.7,6
			c1.4,1.5,2.8,2.9,4.1,4.5c0.3,0.4,0.5,0.8,0.5,1.3l2.8,0c0-0.5,0.3-0.9,0.6-1.2c1.4-1.6,3-3,4.4-4.6c1.3-1.4,2.1-2.8,2.4-4.3
			c0.4-0.9,0.6-1.8,0.7-2.8c0-0.1,0-0.1,0-0.2v-1C277.2,307.4,277.1,307.2,277.1,307z"/>
	</g>
</g>
<g id="nuage_3e_plan" class="st0">
	<path class="st7" d="M714.4,637.8c-2.4,0-4.7,0.5-6.8,1.3c-1.7-5.3-6.6-9.1-12.4-9.1c-3.7,0-7,1.5-9.4,4
		c-1.8-12.3-12.4-21.7-25.2-21.7c-14.1,0-25.5,11.4-25.5,25.5c0,1,0.1,2,0.2,3c-0.5,0-1-0.1-1.6-0.1c-9.2,0-16.7,7.5-16.7,16.7
		c0,9.2,7.5,16.7,16.7,16.7h80.7c0,0,0,0,0,0c0,0,0,0,0,0h1.1v0c9.5-0.6,17.1-8.5,17.1-18.1C732.6,645.9,724.5,637.8,714.4,637.8z"
		/>
	<path class="st8" d="M823.9,589.8c-2.4,0-4.7,0.5-6.8,1.3c-1.7-5.3-6.6-9.1-12.4-9.1c-3.7,0-7,1.5-9.4,4
		c-1.8-12.3-12.4-21.7-25.2-21.7c-14.1,0-25.5,11.4-25.5,25.5c0,1,0.1,2,0.2,3c-0.5,0-1-0.1-1.6-0.1c-9.2,0-16.7,7.5-16.7,16.7
		c0,9.2,7.5,16.7,16.7,16.7h80.7c0,0,0,0,0,0c0,0,0,0,0,0h1.1v0c9.5-0.6,17.1-8.5,17.1-18.1C842.1,598,834,589.8,823.9,589.8z"/>
	<path class="st7" d="M215.5,401.3c-2.4,0-4.7,0.5-6.8,1.3c-1.7-5.3-6.6-9.1-12.4-9.1c-3.7,0-7,1.5-9.4,4
		c-1.8-12.3-12.4-21.7-25.2-21.7c-14.1,0-25.5,11.4-25.5,25.5c0,1,0.1,2,0.2,3c-0.5,0-1-0.1-1.6-0.1c-9.2,0-16.7,7.5-16.7,16.7
		c0,9.2,7.5,16.7,16.7,16.7h80.7c0,0,0,0,0,0c0,0,0,0,0,0h1.1v0c9.5-0.6,17.1-8.5,17.1-18.1C233.6,409.5,225.5,401.3,215.5,401.3z"
		/>
	<path class="st8" d="M1713.9,302.8c-2.4,0-4.7,0.5-6.8,1.3c-1.7-5.3-6.6-9.1-12.4-9.1c-3.7,0-7,1.5-9.4,4
		c-1.8-12.3-12.4-21.7-25.2-21.7c-14.1,0-25.5,11.4-25.5,25.5c0,1,0.1,2,0.2,3c-0.5,0-1-0.1-1.6-0.1c-9.2,0-16.7,7.5-16.7,16.7
		c0,9.2,7.5,16.7,16.7,16.7h80.7c0,0,0,0,0,0c0,0,0,0,0,0h1.1v0c9.5-0.6,17.1-8.5,17.1-18.1C1732.1,311,1723.9,302.8,1713.9,302.8z"
		/>
	<path class="st7" d="M567.3,162c3,0,5.9,0.6,8.6,1.7c2.1-6.7,8.4-11.6,15.8-11.6c4.7,0,9,2,12,5.1c2.3-15.6,15.8-27.6,32.1-27.6
		c17.9,0,32.4,14.5,32.4,32.4c0,1.3-0.1,2.6-0.2,3.8c0.7-0.1,1.3-0.1,2-0.1c11.7,0,21.2,9.5,21.2,21.2c0,11.7-9.5,21.2-21.2,21.2
		H567.3c0,0,0,0,0,0c0,0,0,0-0.1,0h-1.3v0c-12.1-0.7-21.7-10.8-21.7-23.1C544.2,172.3,554.5,162,567.3,162z"/>
	<path class="st7" d="M1447.3,688.9c3,0,5.9,0.6,8.6,1.7c2.1-6.7,8.4-11.6,15.8-11.6c4.7,0,9,2,12,5.1c2.3-15.6,15.8-27.6,32.1-27.6
		c17.9,0,32.4,14.5,32.4,32.4c0,1.3-0.1,2.6-0.2,3.8c0.7-0.1,1.3-0.1,2-0.1c11.7,0,21.2,9.5,21.2,21.2c0,11.7-9.5,21.2-21.2,21.2
		h-102.6c0,0,0,0,0,0c0,0,0,0-0.1,0h-1.3v0c-12.1-0.7-21.7-10.8-21.7-23.1C1424.2,699.3,1434.5,688.9,1447.3,688.9z"/>
</g>
<g id="nuage_2nd_plan" class="st0">
	<path class="st9" d="M2630.5,1011.3c-1.5,0-3.1,0.1-4.6,0.2c0.3-2.9,0.5-5.8,0.5-8.7c0-41-33.2-74.3-74.3-74.3
		c-37.2,0-68.1,27.4-73.4,63.2c-6.9-7.2-16.7-11.7-27.5-11.7c-17,0-31.4,11.2-36.3,26.6c-6.1-2.4-12.7-3.8-19.7-3.8
		c-6.6,0-12.9,1.2-18.8,3.4c-8.3-3.5-17.7-5.5-27.5-5.5c-8.3,0-16.1,1.4-23.4,3.9c-5.8-15.8-22.9-27.3-43.1-27.3
		c-5.2,0-10.1,0.8-14.8,2.2c-4.7-16.4-20.8-33.5-37.7-33.9c-1,0-2,0-2.9,0.1c0.3-1.8,0.4-3.7,0.5-5.6c0.6-26.4-20.2-48.4-46.6-49
		c-23.3-0.5-43.1,15.8-47.8,37.8c-0.5,0.2-1.1,0.3-1.6,0.5c-4.2-4-9.9-6.5-16.2-6.7c-10.9-0.3-20.4,6.7-23.7,16.6
		c-3.9-1.7-8.1-2.6-12.6-2.7c-9.7-0.2-18.6,3.7-24.9,10.1c-13-3.4-26.3,5.7-26.3,5.7c7-38.5-9.9-75.6-62.4-80.3
		c0.2-1.5,0.3-3,0.3-4.5c0.6-26.2-19.8-47.9-45.8-49c-25.9,1.1-46.4,22.8-45.8,49c0,1.5,0.2,3,0.3,4.5
		c-52.5,4.7-69.4,41.9-62.4,80.3c0,0-13.3-9.1-26.3-5.7c-6.3-6.4-15.2-10.4-24.9-10.1c-4.5,0.1-8.7,1.1-12.6,2.7
		c-3.3-9.9-12.8-16.9-23.7-16.6c-6.3,0.1-11.9,2.7-16.2,6.7c-0.5-0.2-1.1-0.3-1.6-0.5c-4.7-22.1-24.5-38.4-47.8-37.8
		c-26.3,0.6-47.2,22.6-46.6,49c0,1.9,0.2,3.8,0.5,5.6c-1-0.1-1.9-0.1-2.9-0.1c-16.9,0.4-33,17.4-37.7,33.9
		c-4.6-1.4-9.6-2.2-14.8-2.2c-20.2,0-37.3,11.5-43.1,27.3c-7.2-2.5-15.1-3.9-23.4-3.9c-9.9,0-19.2,2-27.5,5.5
		c-5.8-2.2-12.2-3.4-18.8-3.4c-7,0-13.6,1.4-19.7,3.8c-4.8-15.4-19.3-26.6-36.3-26.6c-10.8,0-20.5,4.5-27.5,11.7
		c-5.3-35.8-36.2-63.2-73.4-63.2c-11,0-21.5,2.4-30.9,6.7c-5-2-10.5-3.1-16.2-3.1c-24.1,0-43.7,19.2-45.3,43.4
		c-10.2,2.6-22.8,8.2-32.3,20.7c-10.9,14.3-11.5,29.8-11.5,35.4c0,0-11.2-0.9-24.6,1.8c-6.3-5.6-15.3-9.2-25.3-9.2
		c-4.6,0-8.9,0.7-12.9,2.1c-3.2-8.5-12.7-14.7-23.9-14.7c-7.1,0-13.5,2.5-18.1,6.5c-3.5-19.7-23.8-34.9-48.3-34.9
		c-27,0-48.8,18.4-48.8,41c0,1.6,0.1,3.2,0.3,4.8c-1-0.1-2-0.1-3-0.1c-13.7,0-25.4,7.2-29.9,17.4c-2,0.2-3.8,0.7-5.6,1.3
		c-2.3-6.1-9-10.5-17-10.5c-5,0-9.6,1.8-12.8,4.6c-2.5-14-16.9-24.8-34.3-24.8c-18.9,0-34.3,12.7-34.7,28.5c-1.9-0.3-4-0.5-6-0.5
		c-3.9,0-7.7,0.7-11.1,1.8c-3.9-4.5-15.9-4.5-20.5-4.3c-6.1,0.3-11.6,2.1-15.6,5.6c-3-17-20.5-30-41.6-30
		c-23.2,0-42.1,15.8-42.1,35.3c0,1.4,0.1,2.8,0.3,4.2c-0.9-0.1-0.8,1.8-1.7,1.8c-8.6,0-11.4-4.6-23.8-3.8
		c-8.9,0.8-15.2,6.3-20.8,11.6c-0.7-9.4-10-16.8-21.3-16.8c-2.8,0-5.5,0.5-7.9,1.3c-2-5.2-7.8-9-14.6-9c-4.4,0-8.3,1.5-11.1,4
		c-2.2-12.1-14.6-21.4-29.6-21.4c-7.6,0-14.5,2.4-19.8,6.3c-4.7-2.2-10-3.4-15.7-3.4c-1,0-2,0-3.1,0.1c0.2-1.6,0.4-3.2,0.4-4.9
		c0-9.6-3.9-18.4-10.3-25.4c8.6-14.8,9.9-34.2,8-41.3c-4.3-16.8-20.9-34.6-38.2-35c-1,0-2,0-3,0.1c0.3-1.8,0.4-3.7,0.5-5.6
		c0.6-26.4-20.3-48.4-46.8-49c-24-0.6-44.3,16.7-48.3,39.6c-4.4-4.8-10.6-7.8-17.5-8c-11-0.3-20.4,6.7-23.8,16.6
		c-3.9-1.7-8.1-2.6-12.6-2.7c-9.8-0.2-18.7,3.7-25,10.1c-13-3.4-26.4,5.7-26.4,5.7c7-38.5-9.9-75.6-62.6-80.3c0.2-1.5,0.3-3,0.3-4.5
		c0.6-26.4-20.3-48.4-46.8-49c-20.1-0.5-37.6,11.5-45.1,28.9l-0.2,0.9c-21.7,4.9-37.8,24.6-37.2,47.8c0,1.5,0.2,3,0.3,4.5
		c-52.5,4.7-69.4,41.9-62.4,80.3c0,0-13.3-9.1-26.3-5.7c-6.3-6.4-15.2-10.4-24.9-10.1c-4.5,0.1-8.7,1.1-12.6,2.7
		c-3.3-9.9-12.8-16.9-23.7-16.6c-6.3,0.1-11.9,2.7-16.2,6.7c-0.5-0.2-1.1-0.3-1.6-0.5c-4.7-22.1-24.5-38.4-47.8-37.8
		c-26.3,0.6-47.2,22.6-46.6,49c0,1.9,0.2,3.8,0.5,5.6c-1-0.1-1.9-0.1-2.9-0.1c-16.9,0.4-33,17.4-37.7,33.9
		c-4.6-1.4-9.6-2.2-14.8-2.2c-20.2,0-37.3,11.5-43.1,27.3c-7.2-2.5-15.1-3.9-23.4-3.9c-9.9,0-19.2,2-27.5,5.5
		c-5.8-2.2-12.2-3.4-18.8-3.4c-7,0-13.6,1.4-19.7,3.8c-4.8-15.4-19.3-26.6-36.3-26.6c-10.8,0-20.5,4.5-27.5,11.7
		c-5.3-35.8-36.2-63.2-73.4-63.2c-41,0-74.3,33.3-74.3,74.3c0,3,0.2,5.9,0.5,8.7c-1.5-0.1-3-0.2-4.6-0.2
		c-26.9,0-48.6,21.8-48.6,48.6c0,7.2,1.6,14,4.4,20.1l3311.3-4.5c2.8-6.1,4.4-12.9,4.4-20.1
		C2679.1,1033,2657.3,1011.3,2630.5,1011.3z"/>
</g>
<g id="nuage_1er_plan">
	<path class="st3" d="M1920,1080V794.2c-12.5-7.4-27.3-11.8-43.1-11.8c-45.5,0-82.3,35.5-82.3,79.3c0,2.5,0.2,5,0.4,7.4
		c-90.8,5.8-114.5,69.5-114.5,116.6c0,0-18.9-1.7-41.4,3.5c-10.7-10.9-25.8-17.7-42.6-17.7c-7.7,0-15.1,1.4-21.8,4.1
		c-5.4-16.5-21.3-28.4-40.2-28.4c-12,0-22.8,4.8-30.4,12.5c-5.9-38.2-40.1-67.5-81.4-67.5c-45.5,0-82.3,35.5-82.3,79.3
		c0,3.2,0.2,6.3,0.6,9.3c-1.7-0.2-3.4-0.2-5.1-0.2c-23.1,0-42.8,14-50.5,33.6c-3.3,0.5-6.5,1.3-9.5,2.5
		c-3.8-11.7-15.2-20.2-28.6-20.2c-8.5,0-16.2,3.4-21.6,8.9c-4.2-27.1-28.5-48-57.9-48c-31.9,0-57.8,24.6-58.5,55.2
		c-3.3-0.6-6.7-1-10.1-1c-6.6,0-13,1.3-18.8,3.5c-6.6-8.7-26.8-8.6-34.6-8.3c-10.3,0.5-19.6,4.2-26.2,10.8
		c-5.1-32.9-34.6-58.1-70.1-58.1c-39.2,0-70.9,30.6-70.9,68.3c0,2.7,0.2,5.4,0.5,8c-1.4-0.1-1.4,3.5-2.8,3.5
		c-14.4,0-19.2-9-40.1-7.4c-15,1.5-25.6,12.2-35.1,22.5c-1.2-18.1-16.8-32.5-35.9-32.5c-4.7,0-9.2,0.9-13.4,2.5
		c-3.3-10.1-13.1-17.4-24.7-17.4c-7.3,0-14,3-18.7,7.7c-3.6-23.4-24.6-41.4-50-41.4c-12.8,0-24.5,4.6-33.4,12.1
		c-7.9-4.2-16.9-6.6-26.5-6.6c-1.7,0-3.5,0.1-5.2,0.2c0.4-3.1,0.6-6.3,0.6-9.5c0-44.5-37.5-80.6-83.7-80.6
		c-42,0-76.8,29.8-82.8,68.6c-7.8-7.8-18.8-12.7-31-12.7c-19.2,0-35.4,12.2-40.9,28.9c-6.9-2.7-14.3-4.1-22.2-4.1
		c-17.1,0-32.4,7-43.3,18c-22.9-5.2-42.1-3.5-42.1-3.5c0-47.9-24.2-112.7-116.5-118.6c0.2-2.5,0.4-5,0.4-7.5
		c0-44.5-37.5-80.6-83.7-80.6c-17.9,0-34.6,5.5-48.2,14.7V1080H1920z"/>
	<path class="st3" d="M-709,1022c2.3,0,4.5,0.3,4.5,0.3c3.1,0.4,6.1,1.1,8.9,2.2c3.3-10.1,13.1-17.4,24.7-17.4c7.3,0,14,3,18.7,7.7
		c3.6-23.4,24.6-41.4,50-41.4c12.8,0,24.5,4.6,33.4,12.1c7.9-4.2,16.9-6.6,26.5-6.6c1.7,0,3.5,0.1,5.2,0.2c-0.4-3.1-0.6-6.3-0.6-9.5
		c0-44.5,37.5-80.6,83.7-80.6c42,0,76.8,29.8,82.8,68.6c7.8-7.8,18.8-12.7,31-12.7c19.2,0,35.4,12.2,40.9,28.9
		c6.9-2.7,14.3-4.1,22.2-4.1c17.1,0,32.4,7,43.3,18c22.9-5.2,42.1-3.5,42.1-3.5c0-47.9,24.2-112.7,116.5-118.6
		c-0.2-2.5-0.4-5-0.4-7.5c0-12.8,5.4-22.1,8.2-27.2c0.3-0.6,0.8-1.4,1.5-2.5c15-24.9,41.4-33.1,41.4-33.1c2.9-0.9,6.3-1.8,10.1-2.4
		c5.4-0.8,10.3-0.9,14.2-0.7c18.8,96,37.7,191.9,56.5,287.9h-802.4c-0.7-1.5-9.4-20.3,1.3-38.3C-744.9,1041.7-733.2,1022-709,1022z"
		/>
	<path class="st3" d="M2640.9,1022c-2.3,0-4.5,0.3-4.5,0.3c-3.1,0.4-6.1,1.1-8.9,2.2c-3.3-10.1-13.1-17.4-24.7-17.4
		c-7.3,0-14,3-18.7,7.7c-3.6-23.4-24.6-41.4-50-41.4c-12.8,0-24.5,4.6-33.4,12.1c-7.9-4.2-16.9-6.6-26.5-6.6c-1.7,0-3.5,0.1-5.2,0.2
		c0.4-3.1,0.6-6.3,0.6-9.5c0-44.5-37.5-80.6-83.7-80.6c-42,0-76.8,29.8-82.8,68.6c-7.8-7.8-18.8-12.7-31-12.7
		c-19.2,0-35.4,12.2-40.9,28.9c-6.9-2.7-14.3-4.1-22.2-4.1c-17.1,0-32.4,7-43.3,18c-22.9-5.2-42.1-3.5-42.1-3.5
		c0-47.9-24.2-112.7-116.5-118.6c0.2-2.5,0.4-5,0.4-7.5c0,0-0.3-13.3-8.2-27.2c-14.6-25.5-45.3-33.4-50-34.5
		c-12-2.9-22.4-2.7-29.4-2c-14.7,95.2-29.5,190.5-44.2,285.7h802.4c0.7-1.5,9.4-20.3-1.3-38.3
		C2676.9,1041.7,2665.2,1022,2640.9,1022z"/>
</g>
</svg>
