<?xml version="1.0" encoding="utf-8"?>
<!-- Generator: Adobe Illustrator 19.0.0, SVG Export Plug-In . SVG Version: 6.00 Build 0)  -->
<svg version="1.1" id="Calque_1" xmlns="http://www.w3.org/2000/svg" xmlns:xlink="http://www.w3.org/1999/xlink" x="0px" y="0px"
	 viewBox="0 0 200 200" style="enable-background:new 0 0 200 200;" xml:space="preserve">
<style type="text/css">
	.st0{fill:#D6D7D7;}
	.st1{fill:#E2E1E1;}
	.st2{opacity:0.5;}
	.st3{fill-rule:evenodd;clip-rule:evenodd;fill:#FFFFFF;}
	.st4{opacity:0.6;fill-rule:evenodd;clip-rule:evenodd;fill:#D2D3D4;}
	.st5{fill:#777778;}
	.st6{fill:#909090;}
	.st7{fill:#B3B2B2;}
	.st8{fill:#878787;}
	.st9{opacity:0.2;fill:#9C9B9B;}
</style>
<g id="XMLID_19022_">
	<circle id="XMLID_20052_" class="st0" cx="100.7" cy="102.9" r="78"/>
	<circle id="XMLID_20050_" class="st1" cx="100.7" cy="99.9" r="78"/>
	<g id="XMLID_19038_">
		<g id="XMLID_19115_" class="st2">
			<g id="XMLID_19887_">
				<g id="XMLID_20045_">
					<path id="XMLID_20049_" class="st3" d="M91.1,106.4c0.3,0.8,0,1.5-0.7,1.8l-21.8,7.6c-0.6,0.2-1.4-0.2-1.6-1L55.2,81.2
						c-0.3-0.8,0.1-1.5,0.7-1.8l21.8-7.6c0.6-0.2,1.4,0.2,1.6,1L91.1,106.4z"/>
					<path id="XMLID_20046_" class="st4" d="M75,106.7c-0.6,2.6-1.4,5.3-2.5,7.8l17.7-6.2c0.8-0.3,1.2-1.2,0.9-2L79.4,73.1
						c-0.1,3.3-0.3,6.5-0.6,9.7c-0.4,4.2-1,8.4-1.7,12.6"/>
				</g>
				<path id="XMLID_20040_" class="st5" d="M68.8,112.8c0.3,1,1.4,1.5,2.4,1.2l16.5-5.8c1-0.3,1.5-1.4,1.2-2.4L78.2,75.1
					c-0.3-1-1.4-1.5-2.4-1.2l-16.5,5.8c-1,0.3-1.5,1.4-1.2,2.4L68.8,112.8z M81.1,116.1c1.1-0.4,1.6-1.5,1.2-2.6
					c-0.4-1.1-1.5-1.6-2.6-1.2c-1.1,0.4-1.6,1.5-1.2,2.6C78.9,115.9,80,116.4,81.1,116.1L81.1,116.1z M56.9,77l18.8-6.6
					c2.1-0.7,4.4,0.4,5.2,2.5l12.5,36c0.7,2.1-0.4,4.4-2.5,5.2l-18.8,6.6c-2.1,0.7-4.4-0.4-5.2-2.5l-12.5-36
					C53.7,80,54.8,77.7,56.9,77"/>
			</g>
			<g id="XMLID_19231_">
				<g id="XMLID_19236_">
					<path id="XMLID_19886_" class="st3" d="M120.7,136.1c-0.6,1-1.8,1.3-2.8,0.7l-32.5-19c-1-0.6-1.3-1.8-0.7-2.8l25.2-42.9
						c0.6-1,1.8-1.3,2.8-0.7l32.5,19.1c1,0.6,1.3,1.8,0.7,2.8L120.7,136.1z"/>
					<path id="XMLID_19237_" class="st4" d="M102.8,117.4c-3.6,1.6-7.5,2.9-11.5,3.8l26.3,15.4c1.2,0.7,2.6,0.4,3.2-0.6l24.9-42.5
						c-3.7,2.8-7.7,5.3-11.7,7.7c-5.2,3.2-10.6,6.1-16.1,8.9"/>
				</g>
				<path id="XMLID_19232_" class="st5" d="M86.9,116.1c-0.6,1.1-0.3,2.4,0.8,3l29,17c1.1,0.6,2.4,0.3,3-0.8l23.9-40.8
					c0.6-1.1,0.3-2.4-0.8-3l-29-17c-1.1-0.6-2.4-0.3-3,0.8L86.9,116.1z M100.5,130.3c0.6,0.3,1.4,0.2,1.7-0.4
					c0.3-0.6,0.1-1.4-0.5-1.7c-0.6-0.3-1.4-0.2-1.7,0.4C99.7,129.2,99.9,129.9,100.5,130.3L100.5,130.3z M114.5,70.3L146,88.8
					c2.3,1.3,3,4.2,1.7,6.5l-25.3,43.2c-1.3,2.3-4.2,3-6.5,1.7l-31.5-18.5c-2.3-1.3-3-4.2-1.7-6.5L108,72
					C109.3,69.7,112.2,69,114.5,70.3"/>
			</g>
			<g id="XMLID_19158_">
				<g id="XMLID_19226_">
					<path id="XMLID_19230_" class="st3" d="M78.8,134.6c-1,0.1-1.9-0.6-2-1.6l-3.6-34.3c-0.1-1,0.6-1.9,1.6-2l45.3-4.8
						c1-0.1,1.9,0.6,2,1.6l3.6,34.3c0.1,1-0.6,1.9-1.6,2L78.8,134.6z"/>
					<path id="XMLID_19227_" class="st4" d="M82.9,111.2c-3.2-1.8-6.2-3.9-9-6.4l2.9,27.7c0.1,1.2,1.1,2.1,2.2,2l44.8-4.7
						c-4.1-1.2-8.1-2.8-12-4.4c-5.2-2.1-10.3-4.5-15.3-7"/>
				</g>
				<path id="XMLID_19161_" class="st6" d="M75.2,98.8c-1.1,0.1-1.9,1.1-1.8,2.2l3.2,30.6c0.1,1.1,1.1,1.9,2.2,1.8l43-4.5
					c1.1-0.1,1.9-1.1,1.8-2.2L120.5,96c-0.1-1.1-1.1-1.9-2.2-1.8L75.2,98.8z M72.1,116.5c0.1,0.6,0.6,1.1,1.3,1
					c0.6-0.1,1.1-0.6,1-1.3c-0.1-0.6-0.6-1.1-1.2-1C72.5,115.3,72.1,115.9,72.1,116.5L72.1,116.5z M124,94.2l3.5,33.2
					c0.2,2.4-1.5,4.5-3.9,4.8L78,137c-2.4,0.3-4.5-1.5-4.8-3.9L69.7,100c-0.3-2.4,1.5-4.5,3.9-4.8l45.6-4.8
					C121.6,90.1,123.7,91.8,124,94.2"/>
			</g>
			<g id="XMLID_19116_">
				<path id="XMLID_19157_" class="st7" d="M141.9,111.3H59c-3.1,0-5.5,2.3-5.5,5.3v2.6c0,2.8,2.3,5,5.1,5.2l0,0.1h83.7l0-0.1
					c2.9-0.2,5.1-2.4,5.1-5.2v-2.6C147.4,113.6,144.9,111.3,141.9,111.3z"/>
				<path id="XMLID_19156_" class="st7" d="M68.2,148.5c2.7,5.3,5.4,5.3,8.1,5.3h48.4c2.7,0,5.4,0,8.1-5.3l7.5-20.9H60.7L68.2,148.5
					z"/>
				<polygon id="XMLID_19154_" class="st8" points="60.7,127.6 140.2,127.6 141.1,124.4 59.7,124.4 				"/>
				<path id="XMLID_19138_" class="st9" d="M141.9,111.3h-17.7c-2.4,8.1-6.3,15.6-11.5,21.8c-9,10.6-21.3,16.6-34,16.6
					c-3.6,0-7.2-0.5-10.6-1.4l0.1,0.3c2.7,5.3,5.4,5.3,8.1,5.3h48.4c2.7,0,5.4,0,8.1-5.3l7.5-20.9l0.9-3.2h1.2l0-0.1
					c2.9-0.2,5.1-2.4,5.1-5.2v-2.6C147.4,113.6,144.9,111.3,141.9,111.3z"/>
			</g>
		</g>
		<g id="XMLID_19039_" class="st2">

				<g id="g14339-7-6-1-7-2_1_" transform="matrix(0.65200849,0,0,0.65200849,7048.2194,-874.22776)">
				<g id="XMLID_30_">
					<g id="XMLID_31_">
						<path id="XMLID_32_" class="st5" d="M-10661.8,1551.9v8.8c0,0.5,0.4,1,0.9,1h1.1v2.7c0,0.7,0.5,1.2,1.2,1.2
							c0.7,0,1.2-0.6,1.2-1.2v-2.7h1.9v2.7c0,0.7,0.5,1.2,1.2,1.2c0.7,0,1.2-0.6,1.2-1.2v-2.7h1.1c0.5,0,0.9-0.4,0.9-1v-8.8
							H-10661.8L-10661.8,1551.9z"/>
					</g>
				</g>
			</g>

				<g id="path3779-5-4-8-0-4-1-1-0_1_">
				<g id="XMLID_49_">
					<path id="XMLID_50_" class="st5" d="M101.9,134.7l0.7-0.9c0-0.1,0-0.1,0-0.2c-0.1,0-0.1,0-0.2,0l-0.7,1
						c-0.4-0.2-0.9-0.3-1.5-0.3c-0.5,0-1,0.1-1.5,0.3l-0.7-1c0-0.1-0.1-0.1-0.2,0c0,0-0.1,0.1,0,0.2l0.7,0.9c-1,0.5-1.8,1.4-1.9,2.5
						l7.1,0C103.6,136.1,102.9,135.2,101.9,134.7L101.9,134.7z M98.7,136.2c-0.2,0-0.4-0.2-0.4-0.4c0-0.2,0.2-0.4,0.4-0.4
						c0.2,0,0.4,0.2,0.4,0.4C99.1,136.1,98.9,136.2,98.7,136.2z M101.7,136.2c-0.2,0-0.4-0.2-0.4-0.4c0-0.2,0.2-0.4,0.4-0.4
						c0.2,0,0.4,0.2,0.4,0.4C102.1,136,101.9,136.2,101.7,136.2z"/>
				</g>
			</g>

				<g id="path3775-74-1-6-4-9-1-6-7_2_">
				<path id="XMLID_21_" class="st5" d="M95.5,137.6c-0.4,0-0.8,0.4-0.8,0.8l0,3.2c0,0.4,0.4,0.8,0.8,0.8c0.4,0,0.8-0.4,0.8-0.8
					l0-3.2C96.3,138,95.9,137.6,95.5,137.6L95.5,137.6z"/>
			</g>

				<g id="path3775-74-1-6-4-9-1-6-7_1_">
				<path id="XMLID_19_" class="st5" d="M104.8,137.6c-0.4,0-0.8,0.4-0.8,0.8l0,3.2c0,0.4,0.4,0.8,0.8,0.8c0.4,0,0.8-0.4,0.8-0.8
					l0-3.2C105.6,138,105.3,137.6,104.8,137.6L104.8,137.6z"/>
			</g>
		</g>
	</g>
	<g id="XMLID_19023_" class="st2">
		<g id="XMLID_19032_">
			<path id="XMLID_19033_" class="st5" d="M96,62.5c0.1-1.2,0.2-2.1,0.4-2.6c0.2-0.5,0.8-1.1,1.7-1.8c0.9-1,1.5-1.7,1.9-2.2
				c0.4-0.5,0.6-1.2,0.6-1.9c0-0.9-0.2-1.6-0.6-2.1c-0.5-0.5-1.1-0.8-2-0.8c-0.8,0-1.5,0.1-2,0.5c-0.6,0.4-0.9,1-0.9,1.8l-2.4-0.1
				l0-0.1c0-1.4,0.6-2.5,1.6-3.3c1-0.8,2.3-1.1,3.9-1.1c1.7,0.1,3,0.6,3.9,1.5c0.9,0.9,1.3,2.1,1.2,3.7c-0.1,1.1-0.4,2.1-1.1,3
				c-0.6,0.9-1.5,1.8-2.5,2.7c-0.5,0.4-0.8,0.8-0.9,1.2c-0.1,0.4-0.2,0.9-0.2,1.7L96,62.5z M98.4,67.9l-2.7-0.1l0.1-2.7l2.7,0.1
				L98.4,67.9z"/>
		</g>
		<g id="XMLID_19028_">
			<path id="XMLID_19029_" class="st5" d="M114.2,49.9c0.4-0.8,0.8-1.3,1.1-1.5s0.9-0.4,1.7-0.6c0.9-0.3,1.5-0.6,1.9-0.8
				c0.4-0.2,0.8-0.5,1-1c0.3-0.6,0.4-1.1,0.3-1.5c-0.1-0.5-0.5-0.9-1-1.2c-0.5-0.3-1-0.4-1.5-0.3c-0.5,0.1-0.9,0.4-1.2,0.9l-1.5-0.9
				l0-0.1c0.5-0.9,1.2-1.4,2.1-1.5s1.8,0,2.8,0.6c1,0.6,1.7,1.3,2,2.2c0.3,0.9,0.1,1.8-0.4,2.7c-0.4,0.7-0.9,1.2-1.6,1.5
				c-0.7,0.4-1.5,0.6-2.5,0.9c-0.4,0.1-0.8,0.3-1,0.5s-0.4,0.5-0.7,1L114.2,49.9z M113.9,54.1l-1.6-0.9l0.9-1.6l1.6,0.9L113.9,54.1z
				"/>
		</g>
		<g id="XMLID_19024_">
			<path id="XMLID_19025_" class="st5" d="M80.8,54.5c-0.3-0.4-0.5-0.8-0.5-1c0-0.2,0-0.6,0.1-1.1c0-0.6,0.1-1,0.1-1.3
				c0-0.3-0.1-0.6-0.3-0.8c-0.2-0.3-0.5-0.5-0.8-0.6c-0.3-0.1-0.6,0-0.9,0.3c-0.3,0.2-0.5,0.4-0.5,0.7c-0.1,0.3,0,0.6,0.2,0.9
				l-0.9,0.6l0,0c-0.4-0.5-0.5-1-0.3-1.6c0.1-0.6,0.5-1,1-1.4c0.6-0.4,1.2-0.6,1.7-0.5c0.6,0.1,1,0.4,1.4,0.9
				c0.3,0.4,0.4,0.8,0.4,1.3s0,1-0.1,1.6c0,0.3,0,0.5,0,0.7s0.2,0.4,0.4,0.7L80.8,54.5z M83.1,55.7l-0.9,0.7l-0.7-1l0.9-0.7
				L83.1,55.7z"/>
		</g>
	</g>
</g>
</svg>
